<svg xmlns="http://www.w3.org/2000/svg" width="118" height="32" viewBox="0 0 118 32" fill="none">
    <g clip-path="url(#clip0_899_1068)">
        <path fill-rule="evenodd" clip-rule="evenodd" d="M7.73384 22.6457C1.87869 16.2171 -0.282597 9.7885 1.87869 1.21704C9.19611 1.21704 14.8465 5.50277 14.8465 5.50277C14.8465 5.50277 10.7233 7.64562 8.36267 11.9313H10.5239C10.5239 11.9313 6.2013 18.36 7.73384 22.6457ZM28.6951 18.4576C33.9524 9.6458 29.9051 1.21704 29.9051 1.21704C29.9051 1.21704 26.5284 1.21704 21.1082 3.32165C15.6878 5.42624 13.1995 11.74 13.1995 11.74H15.4211C15.4211 11.74 12.0888 11.74 12.0888 20.1585C13.1995 28.5768 15.4211 30.6814 15.4211 30.6814C15.4211 30.6814 23.438 27.2694 28.6951 18.4576Z" fill="black"/>
        <path d="M44.9371 18.0103H50.7615L48.4012 7.10269C48.2743 6.53575 48.1728 5.91951 48.0967 5.25395C48.0205 4.58839 47.9697 4.0338 47.9444 3.59007H47.8683C47.8175 4.0338 47.7287 4.57604 47.6018 5.21697C47.5003 5.8332 47.3861 6.44949 47.2592 7.06573L44.9371 18.0103ZM51.0663 19.5262H44.6326L42.8815 27.7347H41.2065L46.9928 1.29761H48.9721L54.7202 27.7347H52.8548L51.0663 19.5262Z" fill="black"/>
        <path d="M58.3228 1.29761H61.52C62.8651 1.29761 64.1215 1.50716 65.2885 1.9262C66.456 2.34524 67.4711 3.03543 68.3343 3.99682C69.2228 4.93348 69.9202 6.19067 70.4275 7.76822C70.9353 9.3212 71.189 11.2439 71.189 13.5363C71.189 15.7795 70.9477 17.7761 70.4662 19.5262C69.9837 21.2765 69.2982 22.7677 68.4097 24.0002C67.5217 25.208 66.456 26.1324 65.2125 26.7733C63.9691 27.4143 62.5991 27.7347 61.1015 27.7347H58.3228V1.29761ZM60.2259 2.81359V26.2187H61.1392C62.3578 26.2187 63.4618 25.9475 64.4511 25.4053C65.4409 24.863 66.2907 24.0618 67.002 23.0019C67.7123 21.9419 68.2583 20.6355 68.6385 19.0826C69.0446 17.505 69.2476 15.7054 69.2476 13.6843C69.2476 11.6383 69.0446 9.92515 68.6385 8.54474C68.2325 7.16427 67.6741 6.05506 66.9633 5.21697C66.2783 4.35421 65.4662 3.73796 64.527 3.36823C63.5884 2.99845 62.5862 2.81359 61.52 2.81359H60.2259Z" fill="black"/>
        <path d="M75.4404 1.29761H84.5768V2.81359H77.3436V13.6472H83.8149V15.1632H77.3436V27.7347H75.4404V1.29761Z" fill="black"/>
        <path d="M94.8657 28.1048C93.8005 28.1048 92.8102 27.8213 91.8964 27.2543C91.0083 26.6627 90.2474 25.8 89.6125 24.6661C88.9781 23.5075 88.4837 22.0902 88.1278 20.414C87.7724 18.7131 87.5952 16.7535 87.5952 14.535C87.5952 12.3658 87.7724 10.4431 88.1278 8.7669C88.4837 7.06608 88.9781 5.63636 89.6125 4.47781C90.2474 3.31926 91.0083 2.44421 91.8964 1.85259C92.8102 1.23635 93.8005 0.928223 94.8657 0.928223C95.9572 0.928223 96.947 1.22402 97.8355 1.81562C98.7236 2.40724 99.4845 3.26995 100.119 4.40386C100.779 5.53773 101.287 6.94281 101.642 8.61901C101.997 10.2952 102.175 12.2056 102.175 14.3501C102.175 16.544 101.997 18.5036 101.642 20.2291C101.287 21.93 100.779 23.372 100.119 24.5552C99.4845 25.7137 98.7236 26.6011 97.8355 27.2174C96.947 27.8089 95.9572 28.1048 94.8657 28.1048ZM94.8657 26.5888C95.6525 26.5888 96.3762 26.3423 97.0354 25.8492C97.6961 25.3317 98.2669 24.5675 98.7484 23.5569C99.2309 22.5462 99.5992 21.289 99.8524 19.7854C100.132 18.2571 100.271 16.4823 100.271 14.461C100.271 10.4678 99.7635 7.47274 98.7484 5.47612C97.7338 3.45487 96.4397 2.44421 94.8657 2.44421C93.318 2.44421 92.0368 3.45487 91.0212 5.47612C90.0061 7.47274 89.4984 10.4678 89.4984 14.461C89.4984 18.5283 90.0061 21.5726 91.0212 23.5938C92.0368 25.5905 93.318 26.5888 94.8657 26.5888Z" fill="black"/>
        <path d="M110.648 15.9767L106.004 27.7347H104.291L109.658 14.3867L104.481 1.29761H106.461L110.8 12.464L115.216 1.29761H116.928L111.752 14.0909L117.119 27.7347H115.14L110.648 15.9767Z" fill="black"/>
    </g>
    <defs>
        <clipPath id="clip0_899_1068">
            <rect width="116.557" height="30.1441" fill="white" transform="translate(0.721191 0.927979)"/>
        </clipPath>
    </defs>
</svg>