<svg width="105" height="16" viewBox="0 0 105 16" fill="none" xmlns="http://www.w3.org/2000/svg">
<g id="Frame" clip-path="url(#clip0_172_174)">
<path id="Vector" fill-rule="evenodd" clip-rule="evenodd" d="M77.2642 5.78006H88.8019V2.78711H77.2642V5.78006Z" fill="white"/>
<path id="Vector_2" fill-rule="evenodd" clip-rule="evenodd" d="M77.2642 10.3808H88.8019V7.51758H77.2642V10.3808Z" fill="white"/>
<path id="Vector_3" fill-rule="evenodd" clip-rule="evenodd" d="M77.2637 15.1101H88.8021V12.1172H77.2637V15.1101Z" fill="white"/>
<path id="Vector_4" fill-rule="evenodd" clip-rule="evenodd" d="M23.0995 12.2465H26.2533C28.045 12.2465 29.3514 10.6699 29.3514 8.94841C29.3514 7.22693 28.26 5.63217 26.2533 5.63217H23.0995V12.2465ZM19.3726 15.1098V2.78703H26.2533C30.4365 2.78703 33.0704 5.37625 33.0704 8.94841C33.0704 12.5205 30.507 15.1098 26.2533 15.1098H19.3726ZM40.1825 7.10546H44.9135C45.8693 7.10546 46.4901 6.4177 46.4901 5.59516C46.4901 4.77265 45.9881 4.08939 44.9135 4.08939H40.1825V7.10546ZM36.2399 0.935547H45.4152C48.4968 0.935547 50.2891 3.22815 50.2891 5.59516C50.2891 7.35786 49.1518 9.08736 47.5654 9.64141L50.3049 15.1095H46.3067L43.7507 9.98431H40.1825V15.1095H36.2399V0.935547Z" fill="white"/>
<path id="Vector_5" fill-rule="evenodd" clip-rule="evenodd" d="M53.7568 15.1099H57.6004V2.78711H53.7568V15.1099Z" fill="white"/>
<path id="Vector_6" fill-rule="evenodd" clip-rule="evenodd" d="M75.4412 2.78711L69.2737 15.1099H65.577L59.4092 2.78711H63.3527L67.3633 10.9399H67.4867L71.4977 2.78711H75.4412Z" fill="white"/>
<path id="Vector_7" fill-rule="evenodd" clip-rule="evenodd" d="M99.9133 8.08375C100.875 8.08375 101.371 7.5121 101.371 6.87411C101.371 6.23609 100.91 5.6584 99.9133 5.6584H95.8517V8.08375H99.9133ZM92.1248 2.78713H99.9133C103.14 2.78713 104.926 4.45681 104.955 6.87411C104.979 8.88115 103.667 9.93745 102.589 10.3884C102.661 10.3884 104.979 15.1099 104.979 15.1099H101.061L98.9477 10.944H95.7803V15.1099H92.1248V2.78713ZM6.76599 10.0688L8.78584 5.39206L10.8036 10.0688H6.76599ZM10.4046 0.935547H7.16711L0.35791 15.11H4.58635L5.66198 12.932H11.9097L12.9853 15.11H17.2143L10.4046 0.935547Z" fill="white"/>
</g>
<defs>
<clipPath id="clip0_172_174">
<rect width="104.642" height="14.4334" fill="white" transform="translate(0.35791 0.935547)"/>
</clipPath>
</defs>
</svg>
