<svg xmlns="http://www.w3.org/2000/svg" width="172" height="44" viewBox="0 0 172 44" fill="none">
    <path d="M14.5165 15.6218C6.76663 15.6218 0.480957 21.9075 0.480957 29.6573C0.480957 37.4072 6.76663 43.6928 14.5165 43.6928C22.2663 43.6928 28.5452 37.4072 28.5452 29.6573C28.5452 21.9075 22.2595 15.6218 14.5165 15.6218Z" fill="white"/>
    <path d="M35.5655 23.1274C41.8512 23.1274 46.9792 18.0062 46.9792 11.7137C46.9792 5.42123 41.8512 0.306885 35.5655 0.306885C29.2798 0.306885 24.1587 5.43485 24.1587 11.7137C24.1587 17.9926 29.2867 23.1274 35.5655 23.1274Z" fill="white"/>
    <path d="M38.8672 24.9592C34.1682 24.9592 30.3818 28.7456 30.3818 33.4445C30.3818 38.1435 34.1682 41.9299 38.8672 41.9299C43.5661 41.9299 47.3525 38.1435 47.3525 33.4445C47.3525 28.7456 43.5661 24.9592 38.8672 24.9592Z" fill="white"/>
    <path d="M17.2042 13.7909C20.1325 13.7909 22.4547 11.4074 22.4547 8.54034C22.4547 5.67331 20.1325 3.28979 17.2042 3.28979C14.2758 3.28979 11.9536 5.61202 11.9536 8.54034C11.9536 11.4687 14.3371 13.7909 17.2042 13.7909Z" fill="white"/>
    <path d="M157.483 33.1389C153.696 33.1389 150.645 30.088 150.645 26.3016C150.645 22.5152 153.696 19.4643 157.483 19.4643C161.269 19.4643 164.32 22.5152 164.32 26.3016C164.32 30.088 161.269 33.1389 157.483 33.1389ZM157.483 12.2661C149.733 12.2661 143.447 18.5518 143.447 26.3016C143.447 34.0515 149.733 40.3371 157.483 40.3371C165.233 40.3371 171.518 33.9902 171.518 26.3016C171.518 18.6131 165.233 12.2661 157.483 12.2661Z" fill="white"/>
    <path d="M98.1153 29.9023L91.7071 12.7546H84.1411L94.4515 39.8518H101.956L112.09 12.7546H104.517L98.1153 29.9023Z" fill="white"/>
    <path d="M135.881 5.55664H128.683V12.7549H124.474V19.2244H128.683V30.7538C128.683 37.2847 132.278 40.0904 137.345 40.0904C139.3 40.0904 140.948 39.7227 142.351 39.1166V32.4019C142.351 32.4019 141.132 32.8922 139.667 32.8922C137.468 32.8922 135.881 32.0341 135.881 29.1058V19.2176H142.351V12.7481H135.881V5.55664Z" fill="white"/>
    <path d="M118.012 0.306885C115.145 0.306885 112.761 2.6904 112.761 5.55743C112.761 8.42446 115.145 10.808 118.012 10.808C120.879 10.808 123.256 8.48575 123.256 5.55743C123.256 2.62911 120.94 0.306885 118.012 0.306885Z" fill="white"/>
    <path d="M121.602 12.7546H114.403V39.845H121.602V12.7546Z" fill="white"/>
    <path d="M64.7605 24.7208L69.9225 11.1483L75.0573 24.7208H64.7605ZM65.8365 1.29419L51.0723 39.8595H59.006L62.0705 31.8032H77.7404L80.7913 39.8595H88.6637L73.954 1.29419H65.8365Z" fill="white"/>
    <path d="M14.5165 15.6218C6.76663 15.6218 0.480957 21.9075 0.480957 29.6573C0.480957 37.4072 6.76663 43.6928 14.5165 43.6928C22.2663 43.6928 28.5452 37.4072 28.5452 29.6573C28.5452 21.9075 22.2595 15.6218 14.5165 15.6218Z" fill="white"/>
    <path d="M35.5655 23.1274C41.8512 23.1274 46.9792 17.9994 46.9792 11.7137C46.9792 5.42804 41.8512 0.306885 35.5655 0.306885C29.2798 0.306885 24.1587 5.43485 24.1587 11.7137C24.1587 17.9926 29.2867 23.1274 35.5655 23.1274Z" fill="white"/>
    <path d="M38.8672 24.9592C34.1682 24.9592 30.3818 28.7388 30.3818 33.4377C30.3818 38.1367 34.1682 41.9231 38.8672 41.9231C43.5661 41.9231 47.3525 38.1435 47.3525 33.4377C47.3525 28.732 43.5661 24.9592 38.8672 24.9592Z" fill="white"/>
    <path d="M17.2042 13.7914C20.1325 13.7914 22.4547 11.4147 22.4547 8.54086C22.4547 5.66702 20.1325 3.29712 17.2042 3.29712C14.2758 3.29712 11.9536 5.61935 11.9536 8.54086C11.9536 11.4624 14.3371 13.7914 17.2042 13.7914Z" fill="white"/>
    <path d="M157.483 33.1389C153.696 33.1389 150.645 30.088 150.645 26.3084C150.645 22.5289 153.696 19.4711 157.483 19.4711C161.269 19.4711 164.32 22.522 164.32 26.3084C164.32 30.0948 161.269 33.1389 157.483 33.1389ZM157.483 12.2661C149.733 12.2661 143.447 18.5518 143.447 26.3016C143.447 34.0515 149.733 40.3371 157.483 40.3371C165.233 40.3371 171.518 33.9902 171.518 26.3016C171.518 18.6131 165.233 12.2661 157.483 12.2661Z" fill="white"/>
    <path d="M98.1153 29.9023L91.7071 12.7546H84.1411L94.4515 39.845H101.956L112.09 12.7546H104.517L98.1153 29.9023Z" fill="white"/>
    <path d="M135.881 5.55664H128.683V12.7549H124.474V19.2244H128.683V30.7538C128.683 37.2847 132.278 40.0904 137.345 40.0904C139.3 40.0904 140.948 39.7227 142.351 39.1166V32.4019C142.351 32.4019 141.132 32.8922 139.667 32.8922C137.468 32.8922 135.881 32.0409 135.881 29.1058V19.2244H142.351V12.7549H135.881V5.55664Z" fill="white"/>
    <path d="M118.012 0.306885C115.145 0.306885 112.761 2.68359 112.761 5.55743C112.761 8.43127 115.145 10.8012 118.012 10.8012C120.879 10.8012 123.256 8.48575 123.256 5.55743C123.256 2.62911 120.94 0.306885 118.012 0.306885Z" fill="white"/>
    <path d="M121.602 12.7546H114.403V39.8518H121.602V12.7546Z" fill="white"/>
    <path d="M64.7605 24.7208L69.9225 11.1483L75.0573 24.7208H64.7605ZM65.8365 1.29419L51.0723 39.8595H59.006L62.0705 31.8032H77.7404L80.7913 39.8595H88.6637L73.954 1.29419H65.8365Z" fill="white"/>
</svg>