<svg width="89" height="32" viewBox="0 0 89 32" fill="none" xmlns="http://www.w3.org/2000/svg">
<g id="Group">
<g id="Group_2">
<path id="Vector" d="M10.3862 11.084C4.82741 11.084 0.318848 15.5925 0.318848 21.1513C0.318848 26.7101 4.82741 31.2186 10.3862 31.2186C15.9449 31.2186 20.4486 26.7101 20.4486 21.1513C20.4486 15.5925 15.9401 11.084 10.3862 11.084Z" fill="white"/>
<path id="Vector_2" d="M25.4846 16.4682C29.9931 16.4682 33.6713 12.7949 33.6713 8.28145C33.6713 3.768 29.9931 0.0996094 25.4846 0.0996094C20.976 0.0996094 17.3027 3.77777 17.3027 8.28145C17.3027 12.7851 20.9809 16.4682 25.4846 16.4682Z" fill="white"/>
<path id="Vector_3" d="M27.8524 17.7812C24.482 17.7812 21.7661 20.4971 21.7661 23.8676C21.7661 27.238 24.482 29.9539 27.8524 29.9539C31.2229 29.9539 33.9387 27.238 33.9387 23.8676C33.9387 20.4971 31.2229 17.7812 27.8524 17.7812Z" fill="white"/>
<path id="Vector_4" d="M12.3139 9.77046C14.4144 9.77046 16.08 8.06082 16.08 6.00437C16.08 3.94792 14.4144 2.23828 12.3139 2.23828C10.2135 2.23828 8.54785 3.90396 8.54785 6.00437C8.54785 8.10478 10.2575 9.77046 12.3139 9.77046Z" fill="white"/>
<path id="Vector_5" d="M70.3498 21.327L65.7533 9.02734H60.3264L67.7218 28.4635H73.1047L80.3731 9.02734H74.9414L70.3498 21.327Z" fill="white"/>
<path id="Vector_6" d="M84.6208 0.0996094C82.5644 0.0996094 80.8547 1.80925 80.8547 3.8657C80.8547 5.92215 82.5644 7.63179 84.6208 7.63179C86.6773 7.63179 88.382 5.96611 88.382 3.8657C88.382 1.76529 86.7212 0.0996094 84.6208 0.0996094Z" fill="white"/>
<path id="Vector_7" d="M87.1956 9.02734H82.0325V28.4586H87.1956V9.02734Z" fill="white"/>
<path id="Vector_8" d="M46.4251 17.6119L50.1277 7.87673L53.8108 17.6119H46.4251ZM47.1969 0.808594L36.6069 28.4705H42.2976L44.4957 22.692H55.7353L57.9237 28.4705H63.5704L53.0195 0.808594H47.1969Z" fill="white"/>
</g>
<g id="Group_3">
<path id="Vector_9" d="M10.3862 11.084C4.82741 11.084 0.318848 15.5925 0.318848 21.1513C0.318848 26.7101 4.82741 31.2186 10.3862 31.2186C15.9449 31.2186 20.4486 26.7101 20.4486 21.1513C20.4486 15.5925 15.9401 11.084 10.3862 11.084Z" fill="white"/>
<path id="Vector_10" d="M25.4846 16.4682C29.9931 16.4682 33.6713 12.79 33.6713 8.28145C33.6713 3.77289 29.9931 0.0996094 25.4846 0.0996094C20.976 0.0996094 17.3027 3.77777 17.3027 8.28145C17.3027 12.7851 20.9809 16.4682 25.4846 16.4682Z" fill="white"/>
<path id="Vector_11" d="M27.8524 17.7812C24.482 17.7812 21.7661 20.4922 21.7661 23.8627C21.7661 27.2331 24.482 29.949 27.8524 29.949C31.2229 29.949 33.9387 27.238 33.9387 23.8627C33.9387 20.4874 31.2229 17.7812 27.8524 17.7812Z" fill="white"/>
<path id="Vector_12" d="M12.3139 9.77143C14.4144 9.77143 16.08 8.06668 16.08 6.00535C16.08 3.94401 14.4144 2.24414 12.3139 2.24414C10.2135 2.24414 8.54785 3.90982 8.54785 6.00535C8.54785 8.10087 10.2575 9.77143 12.3139 9.77143Z" fill="white"/>
<path id="Vector_13" d="M70.3498 21.327L65.7533 9.02734H60.3264L67.7218 28.4586H73.1047L80.3731 9.02734H74.9414L70.3498 21.327Z" fill="white"/>
<path id="Vector_14" d="M84.6208 0.0996094C82.5644 0.0996094 80.8547 1.80436 80.8547 3.8657C80.8547 5.92703 82.5644 7.6269 84.6208 7.6269C86.6773 7.6269 88.382 5.96611 88.382 3.8657C88.382 1.76529 86.7212 0.0996094 84.6208 0.0996094Z" fill="white"/>
<path id="Vector_15" d="M87.1956 9.02734H82.0325V28.4635H87.1956V9.02734Z" fill="white"/>
<path id="Vector_16" d="M46.4251 17.6119L50.1277 7.87673L53.8108 17.6119H46.4251ZM47.1969 0.808594L36.6069 28.4705H42.2976L44.4957 22.692H55.7353L57.9237 28.4705H63.5704L53.0195 0.808594H47.1969Z" fill="white"/>
</g>
</g>
</svg>
