<svg width="93" height="27" viewBox="0 0 93 27" fill="none" xmlns="http://www.w3.org/2000/svg">
<g id="Frame" clip-path="url(#clip0_172_253)">
<path id="Vector" d="M9.15855 0H9.51192C10.6197 0.088118 11.5556 1.10637 11.5461 2.24211C11.5556 9.19365 11.5461 16.1452 11.5461 23.1065C11.5461 23.6058 11.5843 24.1247 11.3933 24.5947C11.0877 25.4465 10.2377 26.0437 9.34955 26.0437C8.47095 26.0535 7.62101 25.4465 7.30588 24.6045C7.09575 24.1051 7.15305 23.5471 7.1435 23.0184C7.1435 16.0962 7.1435 9.17407 7.1435 2.2519C7.15305 1.11616 8.06986 0.1077 9.15855 0Z" fill="white"/>
<path id="Vector_2" d="M1.40385 7.10783C2.1201 6.79451 2.98915 6.96094 3.58124 7.47007C4.09696 7.91066 4.40255 8.60584 4.38346 9.30098C4.38346 13.9321 4.38346 18.5632 4.38346 23.1943C4.38346 23.625 4.41209 24.0656 4.29751 24.4768C4.1065 25.2014 3.53349 25.8084 2.83635 26.0336C2.1201 26.2882 1.2988 26.0825 0.744899 25.5636C0.3056 25.172 0.0573 24.6041 0 24.0167V9.09535C0.0477501 8.23378 0.60165 7.42112 1.40385 7.10783Z" fill="white"/>
<path id="Vector_3" d="M16.2635 7.00096C17.018 6.8247 17.8393 7.12823 18.3454 7.72547C18.7179 8.15627 18.9089 8.73393 18.8993 9.3018C18.8993 14.1287 18.8993 18.9654 18.8993 23.7923C18.9184 24.6441 18.4409 25.4959 17.696 25.8876C17.1135 26.2107 16.3877 26.2205 15.786 25.9267C14.9934 25.5547 14.4777 24.6833 14.5063 23.7923C14.5063 19.1906 14.5063 14.5889 14.5063 9.98715C14.5159 9.47802 14.4586 8.9591 14.64 8.46956C14.8788 7.73526 15.5186 7.16739 16.2635 7.00096Z" fill="white"/>
<path id="Vector_4" d="M23.6933 0H24.0085C25.1258 0.078327 26.0617 1.09658 26.0617 2.24211C26.0713 9.19365 26.0617 16.155 26.0617 23.1065C26.0617 23.4296 26.0713 23.7625 26.0331 24.0856C25.928 24.9374 25.3073 25.6913 24.4955 25.9458C23.8557 26.171 23.1203 26.0242 22.5855 25.6129C21.9934 25.1822 21.6496 24.438 21.6687 23.7037C21.6687 16.5564 21.6687 9.39924 21.6687 2.2519C21.6592 1.10637 22.5951 0.0979089 23.6933 0Z" fill="white"/>
<path id="Vector_5" d="M30.9517 6.97139C32.2027 6.78534 33.4251 7.91128 33.4156 9.2037C33.4156 14.0698 33.4156 18.9358 33.4156 23.8019C33.4251 24.3796 33.2246 24.9474 32.8522 25.3782C32.3078 26.0244 31.3814 26.3182 30.5793 26.044C29.8917 25.8286 29.3378 25.251 29.1276 24.5558C28.994 24.1544 29.0226 23.7236 29.0226 23.3124C29.0226 18.8673 29.0226 14.432 29.0226 9.99674C29.0321 9.48762 28.9748 8.9687 29.1563 8.48894C29.4141 7.67632 30.14 7.07908 30.9517 6.97139Z" fill="white"/>
<path id="Vector_6" d="M46.3558 7.60845C48.3518 7.41261 50.4621 7.67698 52.21 8.73439C53.7474 9.64495 54.9411 11.1136 55.6193 12.7878C56.3642 14.6187 56.5264 16.6454 56.3642 18.6036C56.2017 20.4933 55.5812 22.3829 54.3874 23.8613C53.1937 25.3887 51.4364 26.3971 49.5645 26.7398C47.6355 27.0825 45.5916 26.9846 43.7676 26.2111C41.8673 25.3985 40.368 23.7634 39.5371 21.8542C38.6394 19.7589 38.5056 17.3798 38.8303 15.1376C39.1645 12.9445 40.2247 10.8296 41.9341 9.42953C43.1758 8.36233 44.761 7.77488 46.3558 7.60845ZM46.5372 11.6227C45.9737 11.75 45.4389 11.9947 44.9998 12.3668C43.9588 13.2382 43.424 14.5893 43.2331 15.9209C43.0132 17.5951 43.1373 19.3966 43.9875 20.8849C44.4936 21.7954 45.3053 22.5493 46.3079 22.8235C47.3489 23.1074 48.4951 23.0486 49.469 22.5493C50.596 21.9717 51.3217 20.8065 51.6657 19.5925C52.0188 18.3197 52.0285 16.9685 51.8185 15.6663C51.5891 14.3348 50.9875 13.0032 49.8798 12.2102C48.9153 11.5248 47.6642 11.3877 46.5372 11.6227Z" fill="white"/>
<path id="Vector_7" d="M73.7354 8.04802C74.9005 7.28435 76.5718 7.39204 77.5743 8.38092C78.0518 8.8411 78.3479 9.45792 78.5007 10.1041C79.341 13.668 80.1338 17.2417 80.9836 20.8056C81.041 20.7272 81.0794 20.6391 81.1077 20.551C81.8338 17.3689 82.5595 14.1869 83.2852 11.0049C83.4764 10.1041 83.6865 9.14463 84.3549 8.47882C85.4053 7.31372 87.3153 7.26477 88.5091 8.22428C89.2733 8.80194 89.7221 9.73208 89.8462 10.6818C90.524 14.9898 91.2022 19.2978 91.8709 23.6156C91.995 24.4673 92.138 25.4171 91.7084 26.2004C91.3361 26.8563 90.524 27.0228 89.8462 26.9542C89.2635 26.9151 88.7 26.5626 88.4231 26.0241C88.1463 25.4856 88.0222 24.8884 87.9267 24.2911C87.3727 20.786 86.8571 17.271 86.2936 13.7659C85.4245 17.0752 84.6415 20.4139 83.7914 23.733C83.5624 24.4771 83.3331 25.28 82.7601 25.8185C82.0914 26.4451 81.0983 26.5822 80.2485 26.3668C79.5703 26.1905 78.988 25.6912 78.6919 25.045C78.3004 24.2226 78.1186 23.3218 77.8896 22.4504C77.1541 19.5523 76.4477 16.6542 75.6929 13.7659C75.1011 17.3983 74.5852 21.0601 74.0122 24.6926C73.8787 25.3192 73.7256 26.0045 73.2484 26.4549C72.7136 26.964 71.9113 27.0326 71.2237 26.8661C70.7749 26.7682 70.3736 26.4549 70.1827 26.0241C69.8961 25.3779 69.9534 24.6436 70.0681 23.9582C70.7749 19.4544 71.4814 14.9604 72.1882 10.4566C72.3409 9.48729 72.9237 8.58655 73.7354 8.04802Z" fill="white"/>
<path id="Vector_8" d="M57.7012 8.15539C58.3601 7.79312 59.124 7.74417 59.8594 7.73438C62.3138 7.73438 64.7681 7.73438 67.2129 7.73438C67.9673 7.74417 68.7601 7.8127 69.4093 8.23371C70.4024 8.85053 70.4408 10.5639 69.4666 11.2199C69.0272 11.5234 68.5021 11.6507 67.9865 11.6899C67.1937 11.7584 66.3915 11.7584 65.5892 11.7584C65.5892 15.802 65.5892 19.8457 65.5892 23.8893C65.5798 24.6041 65.513 25.358 65.1596 25.9944C64.5006 27.2378 62.4665 27.2378 61.7981 26.0042C61.4349 25.3678 61.3682 24.604 61.3682 23.8795C61.3682 19.8359 61.3682 15.802 61.3682 11.7584C60.5278 11.7486 59.678 11.7486 58.8377 11.6703C58.2263 11.6018 57.5673 11.3962 57.1664 10.887C56.5456 10.0646 56.7364 8.63515 57.7012 8.15539Z" fill="white"/>
</g>
<defs>
<clipPath id="clip0_172_253">
<rect width="92.062" height="26.9837" fill="white"/>
</clipPath>
</defs>
</svg>
