<svg width="117" height="27" viewBox="0 0 117 27" fill="none" xmlns="http://www.w3.org/2000/svg">
<g id="Frame" clip-path="url(#clip0_172_208)">
<path id="Vector" d="M13.3012 0.552858C15.5045 0.460164 17.7302 0.912728 19.7105 1.87238C22.494 3.20826 24.7587 5.54194 25.9803 8.32823C26.99 10.591 27.2967 13.1428 26.8784 15.5801C26.5437 17.554 25.7293 19.446 24.5132 21.0545C23.3307 22.6357 21.7688 23.9498 19.995 24.8658C17.8641 25.9673 15.4209 26.4689 13.0167 26.3108C10.7966 26.1799 8.62113 25.482 6.75245 24.3042C3.96896 22.5703 1.89949 19.7841 1.08508 16.6597C0.47706 14.3424 0.53842 11.8615 1.27473 9.57686C2.01105 7.27588 3.42789 5.193 5.30213 3.63356C7.51665 1.76333 10.3838 0.661909 13.3012 0.552858ZM4.97863 12.3086C4.79454 12.3304 4.61605 12.4395 4.55467 12.6139C4.50447 12.7557 4.5212 12.9138 4.57697 13.0556C5.53087 15.4275 6.49029 17.7993 7.44414 20.1712C7.62267 20.651 8.13583 20.9836 8.6546 20.9782C9.54712 20.9782 10.4396 20.9782 11.3321 20.9782C11.8509 20.9836 12.3529 20.6346 12.5091 20.1494C12.8884 19.1025 13.2677 18.0556 13.647 17.0087C13.6973 16.8833 13.7753 16.7088 13.9427 16.7197C14.0877 16.7579 14.1435 16.9106 14.1993 17.0305C14.5953 18.072 14.9858 19.1189 15.3818 20.1603C15.5492 20.6401 16.0568 20.9891 16.5756 20.9782C17.4681 20.9782 18.3662 20.9782 19.2587 20.9782C19.6379 20.9782 19.995 20.7819 20.2348 20.5038C20.3798 20.3348 20.4412 20.1221 20.5193 19.9258C21.4006 17.6412 22.2876 15.3511 23.1689 13.0665C23.2414 12.8866 23.247 12.6685 23.1187 12.5103C23.0016 12.3577 22.7952 12.3031 22.6055 12.3086C21.9696 12.3086 21.3337 12.3086 20.6978 12.3086C20.3296 12.3031 19.9782 12.5103 19.7607 12.7939C19.6324 12.9575 19.5822 13.1646 19.5152 13.3609C19.0355 14.844 18.5558 16.3326 18.0761 17.8157C18.0259 17.952 17.9701 18.1265 17.8027 18.1483C17.6466 18.1101 17.5852 17.952 17.5294 17.8211C16.9326 16.2562 16.3413 14.6968 15.7444 13.1319C15.5715 12.6357 15.0416 12.2813 14.5061 12.3086C14.0933 12.3086 13.6861 12.3086 13.2733 12.3086C12.7434 12.2868 12.2246 12.6357 12.0517 13.121C11.4493 14.6968 10.8468 16.2671 10.2444 17.843C10.1886 17.9629 10.1272 18.1101 9.9822 18.1483C9.81485 18.1374 9.74794 17.9575 9.69773 17.8266C9.17897 16.2562 8.6602 14.6914 8.14143 13.121C7.99082 12.6412 7.48878 12.2868 6.97002 12.3086C6.3062 12.3086 5.64241 12.2922 4.97863 12.3086Z" fill="white"/>
<path id="Vector_2" d="M55.1206 8.96094C55.829 8.96094 56.5374 8.96094 57.2458 8.96094C57.2458 10.5422 57.2458 12.1234 57.2458 13.7047C57.7478 13.0449 58.4228 12.4833 59.2429 12.2488C60.7265 11.8126 62.439 12.2761 63.4988 13.383C64.2128 14.1191 64.6146 15.1114 64.6926 16.1147C64.782 17.1834 64.5753 18.3012 63.973 19.2118C63.4153 20.0623 62.5169 20.6894 61.5132 20.9402C60.6875 21.1474 59.7951 21.1365 58.9917 20.8475C58.3 20.5967 57.7033 20.1278 57.2513 19.5607C57.2513 20.0078 57.2513 20.4549 57.2513 20.902C56.543 20.902 55.8346 20.902 55.1262 20.902C55.1206 16.9162 55.1206 12.9358 55.1206 8.96094ZM59.3208 13.8573C58.8243 13.9609 58.3557 14.2117 57.9931 14.5662C56.9111 15.6349 56.9166 17.5651 58.021 18.6174C58.6125 19.1899 59.4826 19.4517 60.3027 19.3263C60.9944 19.2336 61.6412 18.8573 62.0319 18.2957C62.4891 17.6523 62.6175 16.8235 62.5058 16.0547C62.4056 15.4004 62.0709 14.7734 61.541 14.3535C60.9328 13.8682 60.0849 13.6938 59.3208 13.8573Z" fill="white"/>
<path id="Vector_3" d="M47.0043 12.5431C48.014 12.0469 49.2021 11.9706 50.2898 12.2214C51.1711 12.4286 51.9745 12.9248 52.5211 13.6336C53.3185 14.6642 53.6031 16.0109 53.4692 17.2814C51.1989 17.2814 48.9231 17.2759 46.6528 17.2814C46.753 17.8485 47.0098 18.4046 47.4503 18.8027C48.0975 19.4024 49.0571 19.5606 49.9161 19.4243C50.6523 19.3207 51.305 18.9281 51.8349 18.4373C52.2532 18.7754 52.6662 19.1244 53.0844 19.4679C52.5044 20.1167 51.7455 20.6238 50.8976 20.8692C50.0219 21.12 49.0793 21.1527 48.1869 20.9837C47.0766 20.7656 46.0335 20.1603 45.3697 19.2552C44.3714 17.903 44.2709 16.0109 45.0071 14.5224C45.4257 13.6718 46.1341 12.9575 47.0043 12.5431ZM47.6681 14.1298C47.0711 14.5606 46.7308 15.2694 46.6306 15.9728C48.2203 15.9728 49.8044 15.9728 51.3941 15.9728C51.3273 15.4275 51.1433 14.8823 50.7807 14.457C50.0497 13.5737 48.5884 13.4592 47.6681 14.1298Z" fill="white"/>
<path id="Vector_4" d="M70.1479 12.118C71.1406 12.009 72.1726 12.1453 73.0765 12.5597C74.0357 12.9959 74.8502 13.7538 75.3074 14.6971C75.6981 15.4877 75.8262 16.3983 75.687 17.2653C75.5252 18.2849 74.9671 19.2391 74.1641 19.9043C72.764 21.093 70.6945 21.3874 68.9653 20.7931C67.9946 20.4605 67.13 19.8225 66.5722 18.9774C65.9978 18.1268 65.7577 17.069 65.8917 16.0548C66.0145 15.0788 66.4884 14.1573 67.2027 13.4703C67.9834 12.7069 69.0488 12.2434 70.1479 12.118ZM70.2036 13.8629C69.4562 13.9883 68.7701 14.4354 68.385 15.0788C67.7103 16.1802 67.8773 17.7287 68.8425 18.6175C69.5453 19.299 70.6274 19.5171 71.5703 19.2827C72.3065 19.1137 72.9537 18.6229 73.2884 17.9632C73.8572 16.889 73.6787 15.4605 72.7863 14.6044C72.1224 13.9501 71.1183 13.6938 70.2036 13.8629Z" fill="white"/>
<path id="Vector_5" d="M80.7854 12.4673C81.3153 12.1783 81.9346 12.0747 82.5313 12.0966C82.5313 12.7945 82.5313 13.4924 82.5313 14.1903C81.8678 14.1794 81.1817 14.2994 80.618 14.6538C79.9823 15.0409 79.5693 15.7007 79.3909 16.4041C79.2068 17.0747 79.2513 17.7727 79.2458 18.4597C79.2458 19.2721 79.2458 20.0791 79.2458 20.8915C78.5374 20.8915 77.829 20.8915 77.1206 20.8915C77.1206 18.0126 77.1206 15.1391 77.1206 12.2601C77.829 12.2601 78.5374 12.2601 79.2458 12.2601C79.2458 12.909 79.2458 13.5578 79.2458 14.2012C79.5694 13.4979 80.077 12.8436 80.7854 12.4673Z" fill="white"/>
<path id="Vector_6" d="M97.3192 12.1714C98.2784 11.9643 99.3664 12.0951 100.153 12.7113C100.465 12.9512 100.71 13.262 100.9 13.6C101.497 12.8639 102.345 12.2914 103.304 12.1442C104.331 11.9806 105.485 12.1224 106.289 12.8203C107.003 13.4364 107.282 14.3961 107.287 15.3012C107.293 17.166 107.287 19.0362 107.287 20.901C106.579 20.901 105.87 20.901 105.162 20.901C105.162 19.3089 105.162 17.7167 105.162 16.1246C105.167 15.6502 105.117 15.1595 104.889 14.7396C104.688 14.3525 104.308 14.0635 103.879 13.9599C103.399 13.8399 102.869 13.8618 102.412 14.0526C101.977 14.2325 101.637 14.6033 101.469 15.0395C101.313 15.4157 101.285 15.8301 101.296 16.2336C101.296 17.7876 101.296 19.347 101.296 20.901C100.588 20.901 99.8796 20.901 99.1712 20.901C99.1712 19.3252 99.1712 17.7494 99.1712 16.1791C99.1824 15.7374 99.1486 15.2794 98.959 14.865C98.7805 14.4615 98.4291 14.1289 97.9997 13.9926C97.5366 13.8454 97.0234 13.8509 96.5603 14.009C96.0865 14.1725 95.7072 14.5488 95.5117 14.9959C95.3387 15.383 95.2998 15.8083 95.3053 16.2282C95.3053 17.7876 95.3053 19.3416 95.3053 20.901C94.597 20.901 93.8886 20.901 93.1802 20.901C93.1802 18.0221 93.1802 15.1486 93.1802 12.2696C93.8886 12.2696 94.597 12.2696 95.3053 12.2696C95.3053 12.7058 95.3053 13.142 95.3053 13.5782C95.813 12.913 96.4935 12.3514 97.3192 12.1714Z" fill="white"/>
<path id="Vector_7" d="M83.8365 12.848C84.7568 12.4555 85.7387 12.1992 86.7428 12.1447C87.8137 12.0847 88.9515 12.1556 89.8999 12.6954C90.5749 13.0771 91.0603 13.7368 91.2666 14.4675C91.4841 15.1763 91.434 15.9233 91.4395 16.6539C91.4395 18.0662 91.4395 19.4784 91.4395 20.8906C90.7367 20.8906 90.0339 20.8906 89.331 20.8906C89.331 20.5362 89.331 20.1818 89.331 19.8328C88.7618 20.4653 87.9644 20.8797 87.1165 21.0105C86.168 21.1578 85.1416 21.0542 84.2996 20.5744C83.7471 20.2635 83.3066 19.7565 83.1281 19.1512C82.8825 18.2897 83.0387 17.2755 83.6914 16.6212C84.3163 15.9778 85.2366 15.7052 86.1179 15.6234C87.2 15.5362 88.3046 15.6343 89.3422 15.9506C89.3589 15.498 89.3029 15.0182 89.0186 14.6419C88.6895 14.1894 88.115 13.9822 87.5681 13.9168C86.4916 13.8023 85.4039 14.0258 84.4054 14.4293C84.2213 13.9059 84.0261 13.3769 83.8365 12.848ZM85.4986 17.4064C85.1642 17.7117 85.0637 18.2079 85.1809 18.6278C85.2811 18.9931 85.5936 19.2657 85.945 19.402C86.5138 19.631 87.1554 19.6201 87.7525 19.4893C88.3882 19.3475 89.0186 18.9713 89.2695 18.3606C89.4313 18.0007 89.3811 17.6027 89.3923 17.221C88.6 16.9484 87.7466 16.8448 86.9101 16.8939C86.4025 16.9429 85.8726 17.0629 85.4986 17.4064Z" fill="white"/>
<path id="Vector_8" d="M109.279 12.8479C110.227 12.439 111.248 12.1827 112.291 12.1445C113.356 12.0955 114.489 12.1827 115.409 12.7443C116.106 13.1587 116.58 13.8785 116.753 14.6473C116.915 15.2689 116.876 15.9177 116.882 16.5502C116.882 17.9952 116.882 19.4455 116.882 20.8905C116.179 20.8905 115.476 20.8905 114.773 20.8905C114.773 20.536 114.773 20.1816 114.773 19.8327C114.21 20.4597 113.418 20.8795 112.57 21.0104C111.61 21.1631 110.584 21.0595 109.736 20.5742C109.156 20.2471 108.699 19.6964 108.542 19.053C108.342 18.2187 108.509 17.2645 109.128 16.632C109.742 15.9995 110.634 15.7269 111.499 15.6342C112.603 15.5306 113.725 15.6342 114.784 15.9559C114.801 15.5142 114.745 15.0453 114.477 14.6745C114.148 14.2056 113.563 13.9875 112.999 13.9275C111.923 13.8185 110.84 14.042 109.847 14.4401C109.663 13.9057 109.468 13.3768 109.279 12.8479ZM110.913 17.439C110.595 17.7553 110.511 18.246 110.634 18.6604C110.746 19.0257 111.069 19.2874 111.42 19.4237C111.979 19.6364 112.603 19.6255 113.183 19.5001C113.808 19.3583 114.433 18.9984 114.7 18.4041C114.879 18.0388 114.829 17.6244 114.834 17.2318C114.009 16.9483 113.116 16.8392 112.241 16.9101C111.761 16.9592 111.259 17.0955 110.913 17.439Z" fill="white"/>
<path id="Vector_9" d="M30.1138 12.2593C30.8389 12.2593 31.5641 12.2593 32.2892 12.2593C32.9084 14.2331 33.5276 16.2069 34.1523 18.1753C34.8384 16.1906 35.5188 14.2059 36.2105 12.2266C36.8131 12.2266 37.4154 12.2266 38.018 12.2266C38.7097 14.2113 39.4014 16.196 40.0931 18.1808C40.7235 16.2069 41.3592 14.2331 41.9897 12.2648C42.6981 12.2648 43.4064 12.2648 44.1148 12.2648C43.0996 15.1655 42.0899 18.0663 41.075 20.9616C40.4445 20.9616 39.8085 20.9616 39.1784 20.9616C38.4867 18.9932 37.795 17.0248 37.1033 15.0565C36.4061 17.0248 35.7088 18.9932 35.0114 20.9616C34.381 20.9616 33.7451 20.9616 33.1148 20.9616C32.1163 18.0608 31.1067 15.16 30.1138 12.2593Z" fill="white"/>
</g>
<defs>
<clipPath id="clip0_172_208">
<rect width="116.557" height="26.1249" fill="white" transform="translate(0.324219 0.541016)"/>
</clipPath>
</defs>
</svg>
