<svg width="117" height="37" viewBox="0 0 117 37" fill="none" xmlns="http://www.w3.org/2000/svg">
<g id="Yandex_logo_2021_Russian 1" clip-path="url(#clip0_172_153)">
<path id="Name" d="M111.28 31.8437C113.567 31.8437 115.187 31.4001 116.394 30.4446V26.1107C115.155 27.0321 113.662 27.6122 111.566 27.6122C108.041 27.6122 106.58 24.6774 106.58 20.0363C106.58 15.1564 108.358 12.6653 111.598 12.6653C113.503 12.6653 115.377 13.3819 116.362 14.0644V9.55984C115.314 8.94558 113.503 8.50195 111.026 8.50195C104.706 8.50195 101.435 13.3819 101.435 20.207C101.467 27.6804 104.674 31.8437 111.28 31.8437ZM80.3783 29.8645V25.5305C78.8538 26.6567 76.2496 27.6463 73.8676 27.6463C70.247 27.6463 68.8814 25.8035 68.659 22.0497H80.6006V19.2515C80.6006 11.4367 77.3929 8.50195 72.4702 8.50195C66.4359 8.50195 63.5775 13.4501 63.5775 20.2411C63.5775 28.0558 67.1663 31.8437 73.4547 31.8437C76.5989 31.8437 78.9173 30.9224 80.3783 29.8645ZM35.0575 8.91146V17.7841H28.4515V8.91146H23.4971V31.4001H28.4515V22.0156H35.0575V31.4001H40.012V8.91146H35.0575ZM62.3389 27.1686H60.1475V8.91146H45.7287V10.8225C45.7287 16.3167 45.4111 23.4148 43.6643 27.1686H42.0764V36.5189H46.6497V31.4001H57.7338V36.5189H62.3071V27.1686H62.3389ZM96.1627 31.4001H101.784L93.8443 19.2856L100.831 8.91146H95.8451L88.8581 19.2856V8.91146H83.9036V31.4001H88.8581V20.3435L96.1627 31.4001ZM72.3431 12.6653C74.7886 12.6653 75.5508 14.8493 75.5508 17.6817V18.1253H68.659C68.7861 14.5422 69.9929 12.6653 72.3431 12.6653ZM55.193 27.1686H48.2059C49.5716 23.7901 49.9527 17.6476 49.9527 13.7573V13.0748H55.193V27.1686Z" fill="white"/>
<path id="Glyph" d="M19.3683 31.3998H14.3185V4.54313H12.0636C7.93488 4.54313 5.77524 6.76128 5.77524 10.0714C5.77524 13.8252 7.26793 15.5656 10.3486 17.7838L12.8894 19.6266L5.58468 31.3998H0.153809L6.72802 20.8892C2.94864 17.9885 0.820758 15.1561 0.820758 10.3786C0.820758 4.40663 4.69541 0.345703 12.0319 0.345703H19.3365V31.3998H19.3683Z" fill="white"/>
</g>
<defs>
<clipPath id="clip0_172_153">
<rect width="116.557" height="36.1729" fill="white" transform="translate(0.153809 0.345703)"/>
</clipPath>
</defs>
</svg>
