<svg xmlns="http://www.w3.org/2000/svg" width="40" height="40" viewBox="0 0 40 40" fill="none">
    <g clip-path="url(#clip0_1_24793)">
        <path d="M30.9858 15.1818C30.8779 15.0466 30.7471 15.0732 30.6786 15.1008C30.6212 15.1241 30.4896 15.1984 30.5078 15.3848C30.5297 15.6087 30.5419 15.8369 30.5443 16.0632C30.554 17.0021 30.1774 17.922 29.511 18.5869C28.8488 19.2475 27.9779 19.6034 27.0505 19.5931C25.7838 19.577 24.7332 18.9163 24.0122 17.6824C23.416 16.6622 23.678 15.3463 23.9555 13.9531C24.1178 13.1377 24.2857 12.2944 24.2857 11.4918C24.2857 5.24266 20.0846 1.63734 17.5804 0.0444531C17.5286 0.0115625 17.4793 0 17.4356 0C17.3646 0 17.3083 0.030625 17.2806 0.049375C17.2269 0.0857812 17.1408 0.16875 17.1685 0.315625C18.1257 5.39859 15.2707 8.4557 12.248 11.6923C9.1324 15.0284 5.60107 18.8098 5.60107 25.6295C5.60107 33.5535 12.0477 40.0002 19.9718 40.0002C26.4962 40.0002 32.2486 35.4514 33.9604 28.9384C35.1278 24.4976 33.9045 18.8407 30.9858 15.1818ZM20.3303 36.9327C18.3461 37.0232 16.459 36.3116 15.0177 34.9334C13.5919 33.57 12.774 31.6673 12.774 29.713C12.774 26.0458 14.1762 23.3536 17.9476 19.7795C18.0094 19.721 18.0726 19.7025 18.1276 19.7025C18.1776 19.7025 18.2208 19.7177 18.2506 19.732C18.3133 19.7623 18.4165 19.8371 18.4026 19.999C18.2677 21.5681 18.2701 22.8705 18.4094 23.8702C18.7657 26.4237 20.635 28.1395 23.0612 28.1395C24.2507 28.1395 25.3837 27.6918 26.2516 26.8789C26.2851 26.8467 26.326 26.8232 26.3707 26.8104C26.4154 26.7977 26.4625 26.7961 26.5079 26.8057C26.5651 26.818 26.6415 26.853 26.6816 26.9497C27.0415 27.8185 27.2254 28.7408 27.2282 29.6907C27.2397 33.513 24.1453 36.7618 20.3303 36.9327Z" fill="#D74560"/>
    </g>
    <defs>
        <clipPath id="clip0_1_24793">
            <rect width="40" height="40" fill="white"/>
        </clipPath>
    </defs>
</svg>