<svg xmlns="http://www.w3.org/2000/svg" width="180" height="30" viewBox="0 -6 180 30" fill="none">
    <g opacity="0.5">
        <g style="mix-blend-mode:overlay" opacity="0.4">
            <path d="M3.78765 -4.80528C3.31828 -5.41011 2.54792 -5.41221 2.00132 -5.09287C1.99317 -5.08815 1.98514 -5.08325 1.97725 -5.07819L-7.06498 0.670133L-7.07461 0.676352C-7.51622 0.966635 -7.82061 1.45762 -7.89389 1.97742C-7.96677 2.49456 -7.80425 3.11136 -7.26104 3.43953L-7.24824 3.44704L-4.42604 5.07644L-6.98664 9.51153C-6.99034 9.51793 -6.99395 9.52439 -6.99753 9.53099C-7.273 10.0427 -7.34387 10.7637 -6.92427 11.3043C-6.45489 11.9091 -5.68456 11.9113 -5.13786 11.5919C-5.12982 11.5872 -5.12182 11.5824 -5.11395 11.5773L3.93058 5.83035L3.94032 5.82408C4.38206 5.53376 4.68644 5.04276 4.75962 4.523C4.83257 4.00586 4.67 3.38903 4.12679 3.0609L4.11405 3.05338L1.28942 1.42258L3.84998 -3.01245C3.8537 -3.01889 3.85733 -3.02539 3.86088 -3.03192C4.13636 -3.54368 4.20723 -4.26462 3.78765 -4.80528Z" fill="white"/>
        </g>
        <g style="mix-blend-mode:overlay" opacity="0.4">
            <path d="M33.7876 -4.80528C33.3183 -5.41011 32.5479 -5.41221 32.0013 -5.09287C31.9932 -5.08815 31.9851 -5.08325 31.9773 -5.07819L22.935 0.670133L22.9254 0.676352C22.4838 0.966635 22.1794 1.45762 22.1061 1.97742C22.0332 2.49456 22.1957 3.11136 22.739 3.43953L22.7518 3.44704L25.574 5.07644L23.0134 9.51153C23.0097 9.51793 23.006 9.52439 23.0025 9.53099C22.727 10.0427 22.6561 10.7637 23.0757 11.3043C23.5451 11.9091 24.3154 11.9113 24.8621 11.5919C24.8702 11.5872 24.8782 11.5824 24.886 11.5773L33.9306 5.83035L33.9403 5.82408C34.3821 5.53376 34.6864 5.04276 34.7596 4.523C34.8326 4.00586 34.67 3.38903 34.1268 3.0609L34.114 3.05338L31.2894 1.42258L33.85 -3.01245C33.8537 -3.01889 33.8573 -3.02539 33.8609 -3.03192C34.1364 -3.54368 34.2072 -4.26462 33.7876 -4.80528Z" fill="white"/>
        </g>
        <g style="mix-blend-mode:overlay" opacity="0.4">
            <path d="M63.7876 -4.80528C63.3183 -5.41011 62.5479 -5.41221 62.0013 -5.09287C61.9932 -5.08815 61.9851 -5.08325 61.9773 -5.07819L52.935 0.670133L52.9254 0.676352C52.4838 0.966635 52.1794 1.45762 52.1061 1.97742C52.0332 2.49456 52.1957 3.11136 52.739 3.43953L52.7518 3.44704L55.574 5.07644L53.0134 9.51153C53.0097 9.51793 53.006 9.52439 53.0025 9.53099C52.727 10.0427 52.6561 10.7637 53.0757 11.3043C53.5451 11.9091 54.3154 11.9113 54.8621 11.5919C54.8702 11.5872 54.8782 11.5824 54.886 11.5773L63.9306 5.83035L63.9403 5.82408C64.3821 5.53376 64.6864 5.04276 64.7596 4.523C64.8326 4.00586 64.67 3.38903 64.1268 3.0609L64.114 3.05338L61.2894 1.42258L63.85 -3.01245C63.8537 -3.01889 63.8573 -3.02539 63.8609 -3.03192C64.1364 -3.54368 64.2072 -4.26462 63.7876 -4.80528Z" fill="white"/>
        </g>
        <g style="mix-blend-mode:overlay" opacity="0.4">
            <path d="M93.7876 -4.80528C93.3183 -5.41011 92.5479 -5.41221 92.0013 -5.09287C91.9932 -5.08815 91.9851 -5.08325 91.9773 -5.07819L82.935 0.670133L82.9254 0.676352C82.4838 0.966635 82.1794 1.45762 82.1061 1.97742C82.0332 2.49456 82.1957 3.11136 82.739 3.43953L82.7518 3.44704L85.574 5.07644L83.0134 9.51153C83.0097 9.51793 83.006 9.52439 83.0025 9.53099C82.727 10.0427 82.6561 10.7637 83.0757 11.3043C83.5451 11.9091 84.3154 11.9113 84.8621 11.5919C84.8702 11.5872 84.8782 11.5824 84.886 11.5773L93.9306 5.83035L93.9403 5.82408C94.3821 5.53376 94.6864 5.04276 94.7596 4.523C94.8326 4.00586 94.67 3.38903 94.1268 3.0609L94.114 3.05338L91.2894 1.42258L93.85 -3.01245C93.8537 -3.01889 93.8573 -3.02539 93.8609 -3.03192C94.1364 -3.54368 94.2072 -4.26462 93.7876 -4.80528Z" fill="white"/>
        </g>
        <g style="mix-blend-mode:overlay" opacity="0.4">
            <path d="M123.788 -4.80528C123.318 -5.41011 122.548 -5.41221 122.001 -5.09287C121.993 -5.08815 121.985 -5.08325 121.977 -5.07819L112.935 0.670133L112.925 0.676352C112.484 0.966635 112.179 1.45762 112.106 1.97742C112.033 2.49456 112.196 3.11136 112.739 3.43953L112.752 3.44704L115.574 5.07644L113.013 9.51153C113.01 9.51793 113.006 9.52439 113.002 9.53099C112.727 10.0427 112.656 10.7637 113.076 11.3043C113.545 11.9091 114.315 11.9113 114.862 11.5919C114.87 11.5872 114.878 11.5824 114.886 11.5773L123.931 5.83035L123.94 5.82408C124.382 5.53376 124.686 5.04276 124.76 4.523C124.833 4.00586 124.67 3.38903 124.127 3.0609L124.114 3.05338L121.289 1.42258L123.85 -3.01245C123.854 -3.01889 123.857 -3.02539 123.861 -3.03192C124.136 -3.54368 124.207 -4.26462 123.788 -4.80528Z" fill="white"/>
        </g>
        <g style="mix-blend-mode:overlay" opacity="0.4">
            <path d="M153.788 -4.80528C153.318 -5.41011 152.548 -5.41221 152.001 -5.09287C151.993 -5.08815 151.985 -5.08325 151.977 -5.07819L142.935 0.670133L142.925 0.676352C142.484 0.966635 142.179 1.45762 142.106 1.97742C142.033 2.49456 142.196 3.11136 142.739 3.43953L142.752 3.44704L145.574 5.07644L143.013 9.51153C143.01 9.51793 143.006 9.52439 143.002 9.53099C142.727 10.0427 142.656 10.7637 143.076 11.3043C143.545 11.9091 144.315 11.9113 144.862 11.5919C144.87 11.5872 144.878 11.5824 144.886 11.5773L153.931 5.83035L153.94 5.82408C154.382 5.53376 154.686 5.04276 154.76 4.523C154.833 4.00586 154.67 3.38903 154.127 3.0609L154.114 3.05338L151.289 1.42258L153.85 -3.01245C153.854 -3.01889 153.857 -3.02539 153.861 -3.03192C154.136 -3.54368 154.207 -4.26462 153.788 -4.80528Z" fill="white"/>
        </g>
        <g style="mix-blend-mode:overlay" opacity="0.4">
            <path d="M183.788 -4.80528C183.318 -5.41011 182.548 -5.41221 182.001 -5.09287C181.993 -5.08815 181.985 -5.08325 181.977 -5.07819L172.935 0.670133L172.925 0.676352C172.484 0.966635 172.179 1.45762 172.106 1.97742C172.033 2.49456 172.196 3.11136 172.739 3.43953L172.752 3.44704L175.574 5.07644L173.013 9.51153C173.01 9.51793 173.006 9.52439 173.002 9.53099C172.727 10.0427 172.656 10.7637 173.076 11.3043C173.545 11.9091 174.315 11.9113 174.862 11.5919C174.87 11.5872 174.878 11.5824 174.886 11.5773L183.931 5.83035L183.94 5.82408C184.382 5.53376 184.686 5.04276 184.76 4.523C184.833 4.00586 184.67 3.38903 184.127 3.0609L184.114 3.05338L181.289 1.42258L183.85 -3.01245C183.854 -3.01889 183.857 -3.02539 183.861 -3.03192C184.136 -3.54368 184.207 -4.26462 183.788 -4.80528Z" fill="white"/>
        </g>
    </g>
</svg>
