<svg xmlns="http://www.w3.org/2000/svg" width="39" height="39" viewBox="0 0 39 39" fill="none">
    <g filter="url(#filter0_bd_172_1189)">
        <circle cx="19.5" cy="13.5" r="11.5" fill="url(#paint0_linear_172_1189)" fill-opacity="0.1" shape-rendering="crispEdges"/>
        <circle cx="19.5" cy="13.5" r="11.4" stroke="url(#paint1_linear_172_1189)" stroke-width="0.2" shape-rendering="crispEdges"/>
    </g>
    <path d="M19.0756 16.8L17.9756 17.9L19.0756 19M22.5206 10.4041C23.3098 11.1994 23.7999 12.2911 23.7999 13.5C23.7999 15.9299 21.8298 17.9 19.3999 17.9C18.9676 17.9 18.5512 17.8351 18.1563 17.7191M19.7244 10.2L20.8244 9.1L19.7244 8M16.2397 16.5591C15.473 15.7671 15 14.6891 15 13.5C15 11.0701 16.9701 9.1 19.4 9.1C19.8323 9.1 20.2486 9.1649 20.6435 9.28095" stroke="white" stroke-opacity="0.6" stroke-width="1.3" stroke-linecap="round" stroke-linejoin="round"/>
    <defs>
        <filter id="filter0_bd_172_1189" x="0" y="-2" width="39" height="41" filterUnits="userSpaceOnUse" color-interpolation-filters="sRGB">
            <feFlood flood-opacity="0" result="BackgroundImageFix"/>
            <feGaussianBlur in="BackgroundImageFix" stdDeviation="2"/>
            <feComposite in2="SourceAlpha" operator="in" result="effect1_backgroundBlur_172_1189"/>
            <feColorMatrix in="SourceAlpha" type="matrix" values="0 0 0 0 0 0 0 0 0 0 0 0 0 0 0 0 0 0 127 0" result="hardAlpha"/>
            <feOffset dy="6"/>
            <feGaussianBlur stdDeviation="4"/>
            <feComposite in2="hardAlpha" operator="out"/>
            <feColorMatrix type="matrix" values="0 0 0 0 0.0901961 0 0 0 0 0.121569 0 0 0 0 0.4 0 0 0 0.15 0"/>
            <feBlend mode="normal" in2="effect1_backgroundBlur_172_1189" result="effect2_dropShadow_172_1189"/>
            <feBlend mode="normal" in="SourceGraphic" in2="effect2_dropShadow_172_1189" result="shape"/>
        </filter>
        <linearGradient id="paint0_linear_172_1189" x1="19.5" y1="2" x2="19.5" y2="25" gradientUnits="userSpaceOnUse">
            <stop stop-color="#171F66" stop-opacity="0.8"/>
            <stop offset="1" stop-color="#171F66"/>
        </linearGradient>
        <linearGradient id="paint1_linear_172_1189" x1="19.5" y1="2" x2="19.5" y2="25" gradientUnits="userSpaceOnUse">
            <stop stop-color="white" stop-opacity="0.6"/>
            <stop offset="1" stop-color="white" stop-opacity="0"/>
        </linearGradient>
    </defs>
</svg>
