<svg xmlns="http://www.w3.org/2000/svg" width="106" height="16" viewBox="0 0 106 16" fill="none">
    <g clip-path="url(#clip0_899_971)">
        <path fill-rule="evenodd" clip-rule="evenodd" d="M77.5854 5.62796H89.1232V2.63501H77.5854V5.62796Z" fill="white"/>
        <path fill-rule="evenodd" clip-rule="evenodd" d="M77.5854 10.228H89.1232V7.36475H77.5854V10.228Z" fill="white"/>
        <path fill-rule="evenodd" clip-rule="evenodd" d="M77.585 14.9575H89.1234V11.9646H77.585V14.9575Z" fill="white"/>
        <path fill-rule="evenodd" clip-rule="evenodd" d="M23.4207 12.0947H26.5746C28.3662 12.0947 29.6727 10.518 29.6727 8.79656C29.6727 7.07507 28.5813 5.48031 26.5746 5.48031H23.4207V12.0947ZM19.6938 14.9579V2.63517H26.5746C30.7578 2.63517 33.3917 5.2244 33.3917 8.79656C33.3917 12.3687 30.8283 14.9579 26.5746 14.9579H19.6938ZM40.5037 6.95361H45.2348C46.1906 6.95361 46.8114 6.26584 46.8114 5.4433C46.8114 4.62079 46.3094 3.93753 45.2348 3.93753H40.5037V6.95361ZM36.5612 0.783691H45.7365C48.8181 0.783691 50.6104 3.0763 50.6104 5.4433C50.6104 7.206 49.4731 8.9355 47.8867 9.48955L50.6262 14.9576H46.628L44.072 9.83246H40.5037V14.9576H36.5612V0.783691Z" fill="white"/>
        <path fill-rule="evenodd" clip-rule="evenodd" d="M54.0781 14.9578H57.9217V2.63501H54.0781V14.9578Z" fill="white"/>
        <path fill-rule="evenodd" clip-rule="evenodd" d="M75.7625 2.6355L69.595 14.9583H65.8983L59.7305 2.6355H63.674L67.6846 10.7883H67.808L71.819 2.6355H75.7625Z" fill="white"/>
        <path fill-rule="evenodd" clip-rule="evenodd" d="M100.235 7.93141C101.196 7.93141 101.692 7.35975 101.692 6.72177C101.692 6.08375 101.231 5.50606 100.235 5.50606H96.173V7.93141H100.235ZM92.4461 2.63478H100.235C103.461 2.63478 105.247 4.30446 105.276 6.72177C105.3 8.72881 103.988 9.7851 102.911 10.2361C102.983 10.2361 105.3 14.9575 105.3 14.9575H101.382L99.269 10.7916H96.1016V14.9575H92.4461V2.63478ZM7.08728 9.91641L9.10713 5.23971L11.1249 9.91641H7.08728ZM10.7259 0.783203H7.4884L0.679199 14.9576H4.90764L5.98327 12.7797H12.231L13.3066 14.9576H17.5356L10.7259 0.783203Z" fill="white"/>
    </g>
    <defs>
        <clipPath id="clip0_899_971">
            <rect width="104.642" height="14.4334" fill="white" transform="translate(0.679199 0.783203)"/>
        </clipPath>
    </defs>
</svg>