<svg width="118" height="34" viewBox="0 0 118 34" fill="none" xmlns="http://www.w3.org/2000/svg">
<g id="Frame" clip-path="url(#clip0_172_194)">
<path id="Vector" d="M43.5581 22.5206C40.4148 22.5206 38.2638 20.2585 38.2638 16.9461C38.2638 13.553 40.4148 11.3717 43.5581 11.3717C46.7017 11.3717 48.7698 13.553 48.8523 16.9461C48.7698 20.2585 46.7017 22.5206 43.5581 22.5206ZM51.417 16.8654C51.417 14.5225 50.5897 12.5027 49.1006 11.0485C47.6943 9.59433 45.7091 8.78646 43.5581 8.78646C41.4899 8.78646 39.6701 9.51354 38.2638 10.7254V0.869141H35.6167V24.7826H38.2638V23.1669C39.6701 24.3787 41.4899 25.1058 43.5581 25.1058C45.7091 25.1058 47.6943 24.2979 49.1006 22.8437C50.5897 21.3895 51.417 19.3698 51.417 17.0269C51.417 16.9461 51.417 16.9461 51.417 16.9461V16.8654Z" fill="white"/>
<path id="Vector_2" d="M78.3848 22.5206C75.2411 22.5206 73.0905 20.2585 73.0905 16.9461C73.0905 13.553 75.2411 11.3717 78.3848 11.3717C81.5281 11.3717 83.5962 13.553 83.6791 16.9461C83.5962 20.2585 81.5281 22.5206 78.3848 22.5206ZM83.6791 10.7254C82.2728 9.51354 80.37 8.78646 78.3848 8.78646C76.2338 8.78646 74.2485 9.59433 72.7594 11.0485C71.3531 12.5027 70.5259 14.5225 70.5259 16.8654V16.9461C70.5259 16.9461 70.5259 16.9461 70.5259 17.0269C70.5259 19.3698 71.3531 21.3895 72.7594 22.8437C74.2485 24.2979 76.2338 25.1058 78.3848 25.1058C80.37 25.1058 82.2728 24.3787 83.6791 23.1669V24.7826H86.2433V0.869141H83.6791V10.7254Z" fill="white"/>
<path id="Vector_3" d="M102.126 22.6833C98.9823 22.6833 96.8317 20.4212 96.8317 17.1089C96.8317 13.7158 98.9823 11.4537 102.126 11.4537C105.27 11.4537 107.338 13.7158 107.338 17.1089C107.338 20.4212 105.27 22.6833 102.126 22.6833ZM107.338 10.8881C106.014 9.59551 104.111 8.94922 102.126 8.94922C99.8925 8.94922 97.9072 9.75709 96.501 11.1305C95.0118 12.5847 94.2674 14.6852 94.1846 17.0281C94.1846 17.0281 94.1846 17.0281 94.1846 17.1089C94.2674 19.5326 95.0118 21.5523 96.501 23.0065C97.9072 24.4607 99.8925 25.1878 102.126 25.1878C104.111 25.1878 106.014 24.5415 107.338 23.2488V24.8646H109.985V9.1108H107.338V10.8881Z" fill="white"/>
<path id="Vector_4" d="M56.8767 9.11027H54.312V24.7833H56.8767V17.0276C56.8767 13.6345 59.0273 11.3723 62.1709 11.3723V8.78711C60.1857 8.78711 58.2829 9.51423 56.8767 10.7261V9.11027Z" fill="white"/>
<path id="Vector_5" d="M64.9834 24.7824H67.6305V9.10938H64.9834V24.7824Z" fill="white"/>
<path id="Vector_6" d="M64.9834 6.52594H67.6305V4.02148H64.9834V6.52594Z" fill="white"/>
<path id="Vector_7" d="M114.535 24.8644H117.099V9.19141H114.535V24.8644Z" fill="white"/>
<path id="Vector_8" d="M114.535 6.68681H117.099V4.10156H114.535V6.68681Z" fill="white"/>
<path id="Vector_9" d="M33.383 9.10938H30.6532L25.5243 21.47L19.8164 9.10938H17.0038L24.118 24.7016L23.9526 25.1864C23.8698 25.3479 23.7871 25.5903 23.7044 25.7519C22.4636 28.6603 20.8091 31.2455 17.7483 30.1145L16.8384 32.5381C17.6656 32.7805 18.4101 32.9421 19.1546 32.9421C20.7264 32.9421 22.2154 32.2958 23.4563 31.0031C24.5317 29.9529 25.1934 28.6603 25.6898 27.61C25.7725 27.5293 25.8552 27.4485 25.8552 27.3677L33.383 9.10938Z" fill="white"/>
<path id="Vector_10" d="M16.2594 24.7826V17.0269C16.2594 14.6033 15.5149 12.5027 14.0259 11.0485C12.5369 9.59433 10.5515 8.78646 8.40072 8.78646C6.41534 8.78646 4.5127 9.51354 3.10642 10.7254V0.869141H0.541992V24.7826H3.10642V17.0269C3.10642 13.6338 5.25723 11.3717 8.40072 11.3717C11.5442 11.3717 13.695 13.6338 13.695 17.0269V24.7826H16.2594Z" fill="white"/>
<path id="Vector_11" d="M89.3042 24.7825H91.8688V22.1973H89.3042V24.7825Z" fill="white"/>
</g>
<defs>
<clipPath id="clip0_172_194">
<rect width="116.557" height="32.1537" fill="white" transform="translate(0.541992 0.869141)"/>
</clipPath>
</defs>
</svg>
