<svg width="108" height="23" viewBox="0 0 108 23" fill="none" xmlns="http://www.w3.org/2000/svg">
<g id="Group 198">
<path id="Vector" d="M41.0956 11.7004V17.8594H39.2841V12.0627C39.2841 11.0362 38.1368 9.91908 37.0197 9.91908C35.1479 9.91908 34.4535 11.3381 34.4535 12.0325V17.8896H32.6118C32.6118 17.8896 32.6118 12.4854 32.6118 12.1231C32.6118 11.4287 31.9174 9.94927 30.2568 9.94927C28.7171 9.94927 27.7811 11.3079 27.7811 12.2438C27.7811 13.0288 27.7811 17.9198 27.7811 17.9198H25.9395V8.37931H27.7811V9.67754C27.7811 9.67754 28.8982 8.19816 30.8003 8.19816C33.1854 8.19816 34.061 10.1908 34.0912 10.221C34.1214 10.1304 35.2384 8.16797 37.4122 8.16797C39.5256 8.19816 41.0956 9.91908 41.0956 11.7004Z" fill="white"/>
<path id="Vector_2" d="M100.241 13.664C100.271 13.5131 100.271 13.3319 100.271 13.181C100.271 10.5845 98.2483 8.25977 95.2593 8.25977C92.5421 8.25977 90.2476 10.5543 90.2476 13.181C90.2476 15.9284 92.5421 18.1626 95.2593 18.1626C97.886 18.1626 99.1842 16.5322 99.7277 15.3548L97.9162 14.9321C97.3426 15.8076 96.3462 16.3813 95.2292 16.3813C93.629 16.3813 92.3006 15.2038 92.059 13.6942L100.241 13.664ZM92.1798 12.245C92.5421 11.0374 93.9007 9.98068 95.2593 9.98068C96.7085 9.98068 97.9766 10.9166 98.3389 12.245H92.1798Z" fill="white"/>
<path id="Vector_3" d="M51.7533 8.38086L46.1075 21.0915H44.0847L45.5641 17.8308L41.458 8.38086H43.4205L46.5604 15.5664L49.7607 8.38086H51.7533Z" fill="white"/>
<path id="Vector_4" d="M69.2341 8.37931V9.31525C69.2341 9.31525 67.966 8.16797 66.0338 8.16797C63.2863 8.16797 61.022 10.6437 61.022 13.1496C61.022 15.8366 63.1958 18.1312 66.0338 18.1312C68.2377 18.1312 69.2341 16.9839 69.2341 16.9839V17.8896H71.0757V8.37931H69.2341ZM66.064 16.3499C64.1317 16.3499 62.8335 14.8101 62.8335 13.1496C62.8335 11.5192 64.3129 9.94927 66.064 9.94927C67.7245 9.94927 69.2944 11.3079 69.2944 13.1496C69.2944 14.9912 67.9962 16.3499 66.064 16.3499Z" fill="white"/>
<path id="Vector_5" d="M78.8653 8.44124V10.1018C76.3594 10.1018 74.6385 11.7925 74.6083 13.9361V17.861H72.7666V8.38086H74.6083V10.6452C74.6083 10.6452 75.514 8.44124 78.3822 8.44124C78.5936 8.44124 78.8653 8.44124 78.8653 8.44124Z" fill="white"/>
<path id="Vector_6" d="M87.198 8.38037V9.19554C87.198 9.19554 85.8696 8.19922 84.2091 8.19922C81.4918 8.19922 79.3784 10.5843 79.3784 12.9695C79.3784 16.2905 82.2164 17.7699 84.2091 17.7699C86.2923 17.7699 87.2584 16.683 87.2584 16.683C87.2584 16.683 87.3188 17.0151 87.3188 17.1661C87.3188 18.4039 86.6244 20.2154 84.2392 20.2154C82.7599 20.2154 81.522 19.1889 81.2503 17.8303H79.4388C79.7709 20.1551 81.7937 21.9967 84.2392 21.9967C86.6848 21.9967 88.7076 20.1852 89.0397 17.8303C89.0699 17.6794 89.0699 17.5284 89.1001 17.4076V8.35018H87.198V8.38037ZM84.2091 15.9282C82.3674 15.9282 81.2503 14.3583 81.2503 12.9695C81.2503 11.3391 82.7297 10.0409 84.2091 10.0409C85.5979 10.0409 87.1678 11.0674 87.1678 12.9695C87.1678 14.7508 85.9602 15.9282 84.2091 15.9282Z" fill="white"/>
<path id="Vector_7" d="M60.4785 17.3779C60.4785 17.3779 59.7237 18.1327 58.3047 18.1327C56.1913 18.1327 54.7723 16.3816 54.7723 14.7814V10.0413H52.7495V8.38081H54.7723V5.48242H56.614V8.38081H59.9049V10.0413H56.614C56.614 10.0413 56.614 14.1776 56.614 14.6003C56.614 15.2947 57.1575 16.291 58.3047 16.291C59.2407 16.291 59.9351 15.7777 59.9351 15.7777L60.4785 17.3779Z" fill="white"/>
<path id="Vector_8" d="M108 17.3779C108 17.3779 107.245 18.1327 105.826 18.1327C103.713 18.1327 102.294 16.3816 102.294 14.7814V10.0413H100.271V8.38081H102.294V5.48242H104.136V8.38081H107.426V10.0413H104.136C104.136 10.0413 104.136 14.1776 104.136 14.6003C104.136 15.2947 104.679 16.291 105.826 16.291C106.762 16.291 107.457 15.7777 107.457 15.7777L108 17.3779Z" fill="white"/>
<path id="Vector_9" fill-rule="evenodd" clip-rule="evenodd" d="M9.81729 3.73047C4.53378 3.73047 0.246582 8.01766 0.246582 13.3012C0.246582 18.5847 4.53378 22.8719 9.81729 22.8719C15.1008 22.8719 19.388 18.5847 19.388 13.3012H16.1877C16.1877 16.8336 13.3195 19.6716 9.81729 19.6716C6.28488 19.6716 3.44688 16.8034 3.44688 13.3012C3.44688 9.76877 6.31507 6.93077 9.81729 6.93077V3.73047Z" fill="white"/>
<path id="Vector_10" fill-rule="evenodd" clip-rule="evenodd" d="M16.1875 0.560547L13.0174 3.73066V7.89708L10.6926 10.2218C10.4209 10.1614 10.1492 10.1011 9.84727 10.1011C8.09617 10.1011 6.64697 11.5201 6.64697 13.3014C6.64697 15.0827 8.06597 16.5017 9.81708 16.5017C11.5682 16.5017 13.0174 15.0827 13.0174 13.3014C13.0174 13.0296 12.9872 12.7579 12.9268 12.4862L15.3119 10.1011H16.2177H19.4482L22.6183 6.93095H16.1875V0.560547Z" fill="white"/>
</g>
</svg>
