<svg width="117" height="28" viewBox="0 0 117 28" fill="none" xmlns="http://www.w3.org/2000/svg">
<g id="Frame" clip-path="url(#clip0_172_170)">
<path id="Vector" fill-rule="evenodd" clip-rule="evenodd" d="M103.675 26.9139H107.418L116.569 0.933594H112.827L103.673 26.9139H103.675ZM95.1045 17.8208C92.6911 17.8208 91.3617 15.7423 91.3617 13.6639C91.3617 11.5855 92.693 9.50709 95.1045 9.50709C97.4338 9.50709 98.7651 11.3257 98.7651 13.6639C98.7651 15.9149 97.5176 17.8208 95.1045 17.8208ZM91.4401 8.38065V6.90905H87.9469V26.9139H91.524V19.1198C92.6031 20.1804 94.032 20.7696 95.5161 20.7658C98.8436 20.7658 101.921 18.1678 101.921 13.6639C102.005 8.90027 98.5939 6.56202 95.5161 6.56202C93.1904 6.56202 91.859 7.86106 91.4401 8.38065ZM79.544 9.41986C81.957 9.41986 82.3721 11.4129 82.456 12.1923H76.3858C76.4938 11.4066 76.8759 10.6899 77.459 10.1786C78.0421 9.66732 78.7855 9.39724 79.5475 9.41986H79.544ZM72.8087 13.6639C72.8087 17.6482 75.5534 20.7658 79.7132 20.7658C83.8728 20.7658 85.6211 17.7336 85.6211 17.7336L82.9584 15.9149C82.6307 16.5058 82.1568 16.9942 81.5858 17.3295C81.0151 17.6646 80.3684 17.8343 79.7132 17.8208C77.3017 17.8208 76.302 15.6551 76.302 14.8757H85.8708C85.8708 14.8757 85.9527 14.2708 85.9527 14.0963V13.6639C85.9527 9.5943 83.6235 6.56202 79.6313 6.56202C75.5534 6.56202 72.8087 9.67968 72.8087 13.6639ZM72.5594 20.4188L67.8168 6.90905H64.0742L59.2478 20.4188H63.158L65.9026 11.8453H65.9865L68.7327 20.4188H72.5594ZM52.2597 17.8208C49.8466 17.8208 48.8449 15.8296 48.8449 13.9237C48.8449 12.0179 49.8431 10.2865 52.2562 10.2865C54.6693 10.2865 55.4998 12.4521 55.4998 14.011C55.4998 15.5698 54.6712 17.8208 52.2597 17.8208ZM49.2638 8.0355C49.3477 7.60127 49.7628 3.96401 54.4216 3.96401H57.3339L58.4157 0.933594H54.5054C49.3477 0.933594 45.3536 3.4444 45.3536 12.1923C45.3536 16.9541 47.3516 20.8512 52.1762 20.8512C56.7511 20.8512 59.0823 17.3884 59.0823 13.9237C59.0823 8.90027 55.5033 6.90905 52.5913 6.90905C51.3968 6.9156 50.2338 7.30929 49.2638 8.0355ZM31.0442 6.99629L30.9605 6.90905H27.8826V20.4188H31.4595V12.5375L34.9543 17.1286L35.0381 17.3012H35.9525L39.5293 12.5375V20.4188H43.1082V6.90905H40.0301L35.5371 12.6247L31.0442 6.99629ZM18.6489 17.908C16.8186 17.908 16.651 16.7816 16.651 16.3492C16.651 15.31 17.4833 14.7031 19.5632 14.4433C20.1426 14.3709 20.7263 14.3417 21.3098 14.3561H21.5593V14.7904C21.5593 16.609 20.5612 17.908 18.6489 17.908ZM24.8867 13.3169V12.5375C24.7191 8.2953 22.9726 6.56202 19.3119 6.56202C16.8168 6.56202 15.1522 7.60127 14.5694 8.0355L15.5674 10.8061C15.5674 10.8061 17.0663 9.41986 18.9786 9.41986C21.725 9.41986 21.3917 11.7581 21.3917 11.7581C20.4757 11.7581 13.0723 11.3257 13.0723 16.3492C13.0723 19.1198 15.3179 20.6786 17.731 20.6786C19.8947 20.6786 21.1422 19.5522 21.4737 19.1198C21.4737 19.207 21.5557 20.4188 21.5557 20.4188H24.8849C25.0506 20.4188 24.8849 19.2924 24.8849 17.3884V13.3169H24.8867ZM5.50323 10.2865H3.6729V4.13845H5.50323C6.9183 4.22381 8.99817 5.00323 8.99817 7.25609C8.99817 9.50895 6.91653 10.2865 5.50323 10.2865ZM0.012207 0.933594V20.506H3.75487V13.5767H5.75095C9.5774 13.5767 12.7391 11.4983 12.7391 7.25609C12.7408 3.09924 9.57918 0.933594 5.83651 0.933594H0.012207Z" fill="white"/>
</g>
<defs>
<clipPath id="clip0_172_170">
<rect width="116.557" height="26.1249" fill="white" transform="translate(0.012207 0.933594)"/>
</clipPath>
</defs>
</svg>
