<svg width="67" height="65" viewBox="0 0 67 65" fill="none" xmlns="http://www.w3.org/2000/svg">
<g id="VK Logo 1" clip-path="url(#clip0_172_144)">
<g id="Clip path group">
<mask id="mask0_172_144" style="mask-type:luminance" maskUnits="userSpaceOnUse" x="1" y="0" width="65" height="65">
<g id="clip0_2_40">
<path id="Vector" d="M65.9783 0H1V64.9783H65.9783V0Z" fill="white"/>
</g>
</mask>
<g mask="url(#mask0_172_144)">
<g id="Group">
<path id="Vector_2" d="M1 31.1896C1 16.4867 1 9.13523 5.56761 4.56761C10.1352 0 17.4867 0 32.1896 0H34.7887C49.4916 0 56.843 0 61.4107 4.56761C65.9783 9.13523 65.9783 16.4867 65.9783 31.1896V33.7887C65.9783 48.4916 65.9783 55.843 61.4107 60.4107C56.843 64.9783 49.4916 64.9783 34.7887 64.9783H32.1896C17.4867 64.9783 10.1352 64.9783 5.56761 60.4107C1 55.843 1 48.4916 1 33.7887V31.1896Z" fill="white"/>
<path id="Vector_3" d="M35.5741 46.8109C20.7644 46.8109 12.3173 36.658 11.9653 19.7637H19.3837C19.6274 32.1637 25.0963 37.4161 29.4281 38.4991V19.7637H36.4135V30.4579C40.6912 29.9977 45.185 25.1244 46.7012 19.7637H53.6866C52.5224 26.3698 47.649 31.2431 44.1835 33.2466C47.649 34.8711 53.1995 39.1217 55.3113 46.8109H47.622C45.9704 41.6667 41.8555 37.6868 36.4135 37.1453V46.8109H35.5741Z" fill="#0077FF"/>
</g>
</g>
</g>
</g>
<defs>
<clipPath id="clip0_172_144">
<rect width="65.6281" height="64.9783" fill="white" transform="translate(0.675293)"/>
</clipPath>
</defs>
</svg>
