<svg xmlns="http://www.w3.org/2000/svg" width="20" height="21" viewBox="0 0 20 21" fill="none">
    <path fill-rule="evenodd" clip-rule="evenodd" d="M1.84131 6.47473C1.84131 4.32795 3.58162 2.58765 5.72839 2.58765H13.9117C16.0585 2.58765 17.7988 4.32795 17.7988 6.47473V14.6581C17.7988 16.8048 16.0585 18.5451 13.9117 18.5451H5.72839C3.58162 18.5451 1.84131 16.8048 1.84131 14.6581V6.47473ZM11.0978 5.90273C11.3337 5.81097 11.6017 5.87343 11.7728 6.06L14.7733 9.33334C14.9884 9.56799 14.9884 9.92814 14.7733 10.1628L11.7728 13.4361C11.6017 13.6227 11.3337 13.6852 11.0978 13.5934C10.862 13.5016 10.7066 13.2745 10.7066 13.0214V11.7369C9.45327 11.7851 8.56867 11.9909 7.87829 12.3926C7.09237 12.8498 6.47444 13.6106 5.87716 14.9138C5.75694 15.1761 5.47025 15.3192 5.18835 15.2577C4.90645 15.1962 4.70547 14.9466 4.70548 14.6581C4.7055 12.1067 5.35624 10.3379 6.59688 9.22331C7.68484 8.24589 9.13063 7.85989 10.7066 7.78464V6.47473C10.7066 6.22163 10.862 5.99448 11.0978 5.90273Z" fill="#FE375B"/>
</svg>