<svg xmlns="http://www.w3.org/2000/svg" width="212" height="213" viewBox="0 0 212 213" fill="none">
    <g opacity="0.3">
        <path d="M207.451 107.222C204.649 107.061 202.455 108.613 202.288 111.475C202.124 114.324 204.125 116.119 206.925 116.281C209.715 116.443 211.825 114.886 211.99 112.036C212.156 109.174 210.24 107.384 207.451 107.222ZM207.319 109.284C209.005 109.382 210.021 110.328 209.929 111.917C209.837 113.493 208.719 114.317 207.033 114.219C205.263 114.117 204.271 113.171 204.35 111.594C204.442 110.005 205.548 109.181 207.319 109.284Z" fill="white"/>
        <path d="M209.984 128.209L210.863 123.184L210.851 123.181L211.384 120.13L209.422 119.787L208.888 122.838L201.29 121.509L200.945 123.484L208.543 124.812L208.01 127.863L209.984 128.209Z" fill="white"/>
        <path d="M202.881 137.118C202.655 138.381 203.256 139.208 204.536 139.592C206.131 140.07 207.13 138.974 207.988 136.112C208.787 133.447 208.266 132.011 205.928 131.31L205.328 133.311C206.27 133.594 206.351 134.341 205.999 135.516C205.521 137.109 205.311 137.642 204.601 137.43C204.031 137.259 203.808 136.901 204.049 136.098L204.447 134.771L202.527 134.196L202.129 135.523C201.888 136.325 201.389 136.721 200.901 136.575C200.04 136.317 200.18 135.509 200.658 133.916C201.01 132.74 201.488 132.16 202.547 132.478L203.147 130.476C200.703 129.744 199.477 130.619 198.669 133.319L198.68 133.323C197.811 136.22 198.103 138.21 200.128 138.816C201.547 139.241 202.398 138.304 202.881 137.118Z" fill="white"/>
        <path d="M200.748 146.055L201.59 144.182L204.847 145.646L205.688 143.774L196.826 139.789L195.142 143.534C194.305 145.395 193.517 148.038 196.12 149.208C198.336 150.204 199.911 147.915 200.748 146.055ZM201.549 152.981L192.686 148.996L191.864 150.824L200.728 154.809L201.549 152.981ZM197.867 142.508L199.806 143.38L198.964 145.252C198.272 146.793 197.812 147.371 197.014 147.013C196.217 146.654 196.333 145.921 197.025 144.381L197.867 142.508Z" fill="white"/>
        <path d="M190.666 153.086L188.327 156.823C187.089 158.8 186.439 161.188 188.344 162.381C190.012 163.425 191.198 162.103 192.107 160.881C191.424 162.245 191.915 162.996 192.841 163.576C194.035 164.324 195.455 163.75 196.563 161.98L198.903 158.242L190.666 153.086ZM194.811 158.117L196.047 158.89L194.803 160.878C194.293 161.691 193.899 161.773 193.579 161.573C193.177 161.322 193.058 160.918 193.568 160.104L194.811 158.117ZM191.321 155.932L193.112 157.053L191.868 159.04C190.779 160.78 190.322 160.824 189.787 160.489C189.148 160.089 188.987 159.659 190.077 157.919L191.321 155.932Z" fill="white"/>
        <path d="M188.24 166.029C186.058 164.264 183.37 164.246 181.568 166.475C179.773 168.695 180.353 171.32 182.535 173.084C184.707 174.841 187.33 174.805 189.124 172.585C190.927 170.356 190.413 167.785 188.24 166.029ZM186.933 167.627C188.245 168.688 188.519 170.049 187.519 171.287C186.526 172.515 185.137 172.533 183.824 171.471C182.445 170.356 182.19 169.009 183.174 167.774C184.174 166.537 185.553 166.511 186.933 167.627Z" fill="white"/>
        <path d="M177.04 171.971L173.878 175.043C172.205 176.668 171.005 178.832 172.571 180.444C173.942 181.856 175.408 180.855 176.582 179.885C175.594 181.047 175.892 181.893 176.653 182.677C177.635 183.688 179.15 183.469 180.649 182.013L183.812 178.941L177.04 171.971ZM179.868 177.845L180.883 178.89L179.201 180.524C178.513 181.192 178.109 181.177 177.847 180.908C177.517 180.568 177.497 180.146 178.186 179.478L179.868 177.845ZM176.998 174.891L178.471 176.407L176.789 178.04C175.317 179.471 174.862 179.404 174.422 178.951C173.897 178.411 173.844 177.955 175.316 176.524L176.998 174.891Z" fill="white"/>
        <path d="M163.984 195.489L165.99 194.096L166.148 189.298L166.87 188.782L169.073 191.956L170.719 190.812L165.176 182.83L163.53 183.973L165.733 187.146L165.015 187.645L160.447 186.114L158.442 187.507L164.306 189.35L163.984 195.489Z" fill="white"/>
        <path d="M153.544 201.462L159.483 198.271L156.838 193.35C155.832 191.477 156.121 191.322 157.117 190.787L156.168 189.021C154.113 190.125 153.348 191.088 155.073 194.298L156.769 197.455L154.361 198.748L150.711 191.953L148.945 192.902L153.544 201.462Z" fill="white"/>
        <path d="M142.531 206.205L144.493 205.417L145.853 197.845L148.281 203.898L150.141 203.152L146.524 194.133L144.562 194.92L143.202 202.493L140.774 196.439L138.914 197.186L142.531 206.205Z" fill="white"/>
        <path d="M131.658 207.409L132.197 209.339L138.924 207.461L136.315 198.113L129.588 199.991L130.13 201.934L134.923 200.582L135.42 202.361L131.383 203.488L131.925 205.43L135.959 204.292L136.455 206.07L131.658 207.409Z" fill="white"/>
        <path d="M122.714 211.244L122.08 207.446L126.212 206.743L126.848 210.554L128.825 210.223L127.224 200.639L125.247 200.969L125.883 204.779L121.75 205.469L121.114 201.659L119.137 201.989L120.738 211.574L122.714 211.244Z" fill="white"/>
        <path d="M108.769 212.521L113.863 212.245L113.863 212.233L116.956 212.065L116.848 210.076L113.755 210.244L113.339 202.541L111.337 202.65L111.754 210.352L108.661 210.519L108.769 212.521Z" fill="white"/>
        <path d="M104.83 207.804C105.014 205.004 103.478 202.797 100.618 202.61C97.7693 202.422 95.9594 204.41 95.7749 207.21C95.5919 209.998 97.1323 212.12 99.9808 212.306C102.841 212.495 104.646 210.592 104.83 207.804ZM102.77 207.657C102.659 209.342 101.704 210.35 100.116 210.246C98.5406 210.143 97.726 209.017 97.8369 207.333C97.953 205.563 98.9058 204.579 100.483 204.67C102.07 204.774 102.886 205.887 102.77 207.657Z" fill="white"/>
        <path d="M93.5369 202.08L89.205 201.254C86.9145 200.817 84.4532 201.077 84.0326 203.284C83.6636 205.217 85.3247 205.843 86.7938 206.247C85.2746 206.106 84.7523 206.835 84.5473 207.908C84.2839 209.292 85.3323 210.407 87.3844 210.799L91.7156 211.625L93.5369 202.08ZM90.3498 207.766L90.0765 209.198L87.7739 208.759C86.831 208.579 86.6116 208.24 86.6822 207.87C86.771 207.405 87.1043 207.147 88.0472 207.327L90.3498 207.766ZM91.1212 203.721L90.7249 205.798L88.4222 205.358C86.4058 204.973 86.2001 204.563 86.3177 203.943C86.459 203.203 86.8021 202.898 88.8185 203.282L91.1212 203.721Z" fill="white"/>
        <path d="M56.2579 194.54C57.776 192.18 57.5031 189.505 55.0922 187.954C52.6914 186.41 50.1447 187.271 48.6266 189.631C47.1152 191.98 47.434 194.583 49.8348 196.127C52.2457 197.678 54.7464 196.889 56.2579 194.54ZM54.5278 193.412C53.6143 194.833 52.2903 195.252 50.952 194.391C49.6239 193.537 49.4564 192.158 50.37 190.738C51.3295 189.246 52.6403 188.847 53.975 189.691C55.3132 190.552 55.4873 191.921 54.5278 193.412Z" fill="white"/>
        <path d="M36.7363 186.433L40.6809 189.667L40.6887 189.658L43.0836 191.622L44.347 190.082L41.952 188.118L46.8436 182.154L45.294 180.883L40.4023 186.847L38.0074 184.882L36.7363 186.433Z" fill="white"/>
        <path d="M32.4688 175.868C31.4796 175.049 30.4636 175.167 29.5005 176.093C28.301 177.246 28.7632 178.655 30.8345 180.809C32.7627 182.814 34.2698 183.067 36.0296 181.375L34.5814 179.869C33.8721 180.551 33.1821 180.254 32.3316 179.37C31.1781 178.17 30.8174 177.725 31.3515 177.211C31.7805 176.799 32.2018 176.782 32.7828 177.385L33.7427 178.383L35.1873 176.994L34.2274 175.996C33.6464 175.392 33.547 174.763 33.9147 174.409C34.5626 173.786 35.1968 174.305 36.3504 175.505C37.2008 176.389 37.4706 177.091 36.6739 177.857L38.1221 179.362C39.9607 177.594 39.801 176.096 37.8475 174.065L37.8388 174.074C35.7422 171.893 33.8663 171.17 32.3429 172.635C31.2748 173.662 31.6722 174.864 32.4688 175.868Z" fill="white"/>
        <path d="M25.7323 169.618L26.9492 171.271L24.073 173.389L25.29 175.041L33.1162 169.281L30.6824 165.974C29.4727 164.331 27.5591 162.346 25.2601 164.038C23.3036 165.478 24.5226 167.975 25.7323 169.618ZM19.3063 166.912L27.1325 161.151L25.9445 159.537L18.1182 165.298L19.3063 166.912ZM30.2363 168.852L28.5242 170.112L27.3074 168.458C26.3064 167.099 26.0283 166.414 26.7327 165.895C27.4371 165.377 28.0184 165.838 29.0193 167.199L30.2363 168.852Z" fill="white"/>
        <path d="M24.5638 157.382L22.4587 153.507C21.3453 151.458 19.5847 149.719 17.6101 150.792C15.8811 151.731 16.4493 153.413 17.0675 154.806C16.2145 153.541 15.3196 153.599 14.359 154.12C13.1209 154.793 12.9226 156.311 13.92 158.147L16.0252 162.021L24.5638 157.382ZM18.1452 158.519L16.8644 159.215L15.7452 157.155C15.287 156.312 15.4098 155.927 15.7407 155.747C16.157 155.522 16.5678 155.616 17.026 156.459L18.1452 158.519ZM21.7635 156.553L19.9063 157.562L18.7871 155.503C17.807 153.699 17.9938 153.279 18.5489 152.978C19.2106 152.618 19.6642 152.689 20.6442 154.493L21.7635 156.553Z" fill="white"/>
        <path d="M14.4851 148.909C17.0939 147.875 18.4304 145.543 17.3749 142.878C16.3238 140.224 13.7528 139.439 11.1439 140.473C8.54643 141.501 7.2889 143.802 8.34 146.456C9.39551 149.121 11.8875 149.937 14.4851 148.909ZM13.736 146.984C12.1662 147.606 10.8458 147.175 10.2599 145.696C9.67846 144.228 10.3458 143.01 11.9156 142.388C13.5645 141.735 14.8622 142.175 15.455 143.638C16.0409 145.118 15.3849 146.331 13.736 146.984Z" fill="white"/>
        <path d="M14.8145 136.234L13.6932 131.97C13.1002 129.714 11.8048 127.605 9.63144 128.177C7.72829 128.677 7.87937 130.446 8.14798 131.945C7.62087 130.514 6.73805 130.357 5.68074 130.635C4.31799 130.993 3.76371 132.42 4.29496 134.441L5.41616 138.705L14.8145 136.234ZM8.30968 135.809L6.89996 136.179L6.30384 133.913C6.05983 132.984 6.27074 132.64 6.63492 132.544C7.09309 132.424 7.46956 132.614 7.71357 133.542L8.30968 135.809ZM12.2922 134.762L10.2481 135.3L9.65194 133.032C9.12999 131.047 9.41135 130.684 10.0223 130.523C10.7506 130.332 11.1741 130.509 11.6961 132.494L12.2922 134.762Z" fill="white"/>
        <path d="M0.749512 113.305L0.976723 115.736L5.07742 118.232L5.17203 119.113L1.32602 119.472L1.51254 121.468L11.1881 120.564L11.0015 118.568L7.15554 118.928L7.07412 118.057L10.6522 114.831L10.425 112.4L5.93769 116.602L0.749512 113.305Z" fill="white"/>
        <path d="M0.67651 101.277L0.536621 108.017L6.12308 108.134C8.24836 108.178 8.24153 108.506 8.21814 109.635L10.222 109.676C10.2703 107.345 9.80805 106.205 6.16467 106.13L2.58205 106.056L2.63877 103.323L10.3505 103.483L10.3921 101.479L0.67651 101.277Z" fill="white"/>
        <path d="M1.96013 89.3555L1.68129 91.4501L7.60884 96.3567L1.14284 95.4958L0.878418 97.4826L10.5112 98.7649L10.79 96.6695L4.86247 91.7636L11.3284 92.6238L11.5929 90.637L1.96013 89.3555Z" fill="white"/>
        <path d="M6.25499 79.2935L4.30891 78.8145L2.63818 85.5963L12.062 87.9172L13.7327 81.1361L11.7748 80.6532L10.5953 85.4923L8.80251 85.0505L9.80495 80.9812L7.84707 80.4991L6.85645 84.5707L5.0637 84.1296L6.25499 79.2935Z" fill="white"/>
        <path d="M7.31035 69.6203L10.9299 70.9343L9.51117 74.8776L5.88025 73.5594L5.19629 75.4434L14.3306 78.7596L15.0146 76.8753L11.3837 75.5575L12.8138 71.6182L16.4447 72.9364L17.1287 71.0525L7.9943 67.7363L7.31035 69.6203Z" fill="white"/>
        <path d="M13.0522 56.8477L10.7884 61.4197L10.7992 61.4251L9.4248 64.201L11.2101 65.0849L12.5845 62.309L19.497 65.7316L20.3863 63.9354L13.4739 60.5129L14.8483 57.737L13.0522 56.8477Z" fill="white"/>
        <path d="M19.0955 55.7357C21.4436 57.2719 24.1199 57.0197 25.6894 54.6208C27.2522 52.232 26.4114 49.6787 24.0633 48.1425C21.7254 46.613 19.1203 46.9118 17.5575 49.3005C15.988 51.6994 16.7577 54.2061 19.0955 55.7357ZM20.2363 54.0143C18.8233 53.0899 18.4143 51.7626 19.2855 50.431C20.15 49.1096 21.53 48.9528 22.943 49.8772C24.427 50.8481 24.8157 52.1621 23.9613 53.4902C23.0902 54.8218 21.7203 54.9853 20.2363 54.0143Z" fill="white"/>
        <path d="M29.6304 48.7135L32.4785 45.3474C33.9849 43.567 34.9679 41.2958 33.2523 39.8443C31.7501 38.5732 30.3884 39.7124 29.3149 40.793C30.1844 39.5398 29.8063 38.7267 28.9718 38.0205C27.8961 37.1103 26.4096 37.4756 25.06 39.0705L22.2119 42.4366L29.6304 48.7135ZM26.2442 43.1434L25.1314 42.2019L26.6458 40.4122C27.2656 39.6797 27.6686 39.6547 27.956 39.8979C28.3177 40.2039 28.3784 40.6211 27.7585 41.3538L26.2442 43.1434ZM29.3877 45.8033L27.7742 44.4381L29.2886 42.6483C30.6146 41.0812 31.0732 41.1033 31.5554 41.5113C32.1303 41.9978 32.2281 42.4465 30.9021 44.0136L29.3877 45.8033Z" fill="white"/>
        <path d="M55.7428 19.2338C57.0169 21.7338 59.4647 22.8449 62.0188 21.5432C64.5621 20.247 65.1014 17.6136 63.8272 15.1136C62.5586 12.6243 60.1495 11.589 57.6062 12.8852C55.052 14.1869 54.4741 16.7446 55.7428 19.2338ZM57.5881 18.3069C56.8215 16.8026 57.1261 15.4476 58.5439 14.725C59.9508 14.0079 61.2262 14.5577 61.9929 16.062C62.7982 17.6421 62.4825 18.9755 61.0811 19.7034C59.6634 20.4259 58.3935 19.8871 57.5881 18.3069Z" fill="white"/>
        <path d="M72.5793 6.45117L67.7974 8.22951L67.8017 8.2409L64.8984 9.32055L65.5928 11.1878L68.4961 10.1081L71.1847 17.3377L73.0633 16.6391L70.3747 9.40945L73.2779 8.32973L72.5793 6.45117Z" fill="white"/>
        <path d="M83.8548 8.08458C85.0596 7.6422 85.4696 6.70518 85.1545 5.40669C84.762 3.78947 83.3119 3.47894 80.408 4.18362C77.7045 4.8396 76.7275 6.01426 77.3029 8.38696L79.3338 7.89425C79.1015 6.9381 79.7058 6.49151 80.8977 6.20219C82.5148 5.80975 83.0812 5.72233 83.2558 6.4424C83.3962 7.02082 83.1996 7.39362 82.385 7.59125L81.0389 7.91786L81.5119 9.86557L82.8572 9.53904C83.6718 9.34135 84.2655 9.57229 84.3862 10.0681C84.598 10.9416 83.8297 11.228 82.2126 11.6204C81.0207 11.9098 80.279 11.7897 80.0178 10.7156L77.9877 11.2082C78.589 13.6872 79.9639 14.3036 82.7023 13.639L82.6993 13.6272C85.6389 12.914 87.2089 11.6579 86.7108 9.60395C86.3609 8.16384 85.1226 7.90192 83.8548 8.08458Z" fill="white"/>
        <path d="M92.6471 5.41382L90.6064 5.63243L90.226 2.0815L88.1846 2.30011L89.2193 11.9626L93.3023 11.5253C95.3309 11.308 98.01 10.6546 97.7056 7.81622C97.4475 5.40065 94.6764 5.1965 92.6471 5.41382ZM98.2219 1.22516L99.2566 10.8875L101.25 10.6741L100.215 1.01172L98.2219 1.22516ZM91.0407 9.69067L90.8144 7.577L92.8559 7.35838C94.5345 7.17858 95.2663 7.28343 95.3597 8.15308C95.4531 9.02266 94.7607 9.29224 93.0821 9.47202L91.0407 9.69067Z" fill="white"/>
        <path d="M103.806 10.5668L108.214 10.6995C110.545 10.7697 112.934 10.1246 113.001 7.87842C113.061 5.9115 111.321 5.55531 109.808 5.3882C111.33 5.2882 111.731 4.48604 111.763 3.3933C111.806 1.98488 110.595 1.04911 108.506 0.98623L104.099 0.853516L103.806 10.5668ZM106.056 4.44886L106.1 2.99187L108.444 3.06244C109.403 3.09132 109.673 3.39113 109.662 3.76752C109.648 4.24103 109.359 4.54831 108.4 4.51943L106.056 4.44886ZM105.933 8.56488L105.996 6.45223L108.339 6.52279C110.391 6.58457 110.66 6.95723 110.64 7.58856C110.618 8.34138 110.328 8.69721 108.276 8.63541L105.933 8.56488Z" fill="white"/>
        <path d="M116.202 6.12694C115.781 8.90112 117.123 11.2305 119.957 11.6609C122.779 12.0896 124.752 10.2636 125.173 7.48948C125.593 4.72734 124.239 2.48207 121.417 2.05343C118.582 1.62296 116.622 3.36479 116.202 6.12694ZM118.242 6.44904C118.496 4.77973 119.533 3.85607 121.106 4.09502C122.668 4.33214 123.384 5.52212 123.13 7.19142C122.864 8.94477 121.83 9.84442 120.267 9.61932C118.694 9.3804 117.976 8.20243 118.242 6.44904Z" fill="white"/>
        <path d="M126.986 12.7954L131.235 13.9746C133.482 14.5983 135.956 14.5411 136.557 12.3757C137.084 10.4796 135.479 9.71922 134.048 9.19606C135.551 9.46171 136.131 8.7782 136.423 7.72475C136.8 6.367 135.847 5.16952 133.833 4.6108L129.584 3.43164L126.986 12.7954ZM130.629 7.38993L131.019 5.98537L133.278 6.6123C134.202 6.86892 134.394 7.22455 134.294 7.58741C134.167 8.04391 133.813 8.27349 132.888 8.01689L130.629 7.38993ZM129.528 11.3578L130.093 9.32118L132.352 9.94812C134.33 10.4971 134.502 10.923 134.333 11.5316C134.132 12.2573 133.765 12.5337 131.787 11.9847L129.528 11.3578Z" fill="white"/>
        <path d="M153.878 12.1926L151.664 11.1646L147.443 13.4501L146.633 13.0878L148.26 9.58415L146.441 8.74023L142.35 17.5545L144.168 18.3984L145.795 14.8947L146.587 15.263L147.573 19.9788L149.787 21.0068L148.418 15.0142L153.878 12.1926Z" fill="white"/>
        <path d="M164.306 18.1874L158.554 14.6719L155.64 19.4397C154.532 21.2535 154.251 21.0825 153.288 20.4934L152.243 22.2036C154.233 23.4198 155.45 23.5943 157.351 20.4849L159.219 17.4272L161.551 18.8524L157.529 25.4341L159.239 26.4792L164.306 18.1874Z" fill="white"/>
        <path d="M173.959 25.2994L172.29 24.0034L165.066 26.6531L169.065 21.5005L167.482 20.2715L161.523 27.9476L163.193 29.2437L170.417 26.5939L166.417 31.7465L168 32.9756L173.959 25.2994Z" fill="white"/>
        <path d="M180.488 34.0781L181.883 32.6383L176.865 27.7793L170.113 34.7513L175.13 39.6103L176.533 38.1618L172.947 34.7059L174.231 33.3796L177.242 36.2949L178.645 34.8464L175.626 31.9398L176.911 30.6134L180.488 34.0781Z" fill="white"/>
        <path d="M188.313 39.8627L185.355 42.3278L182.663 39.1161L185.631 36.6432L184.347 35.1035L176.882 41.3246L178.165 42.8643L181.133 40.3914L183.815 43.6109L180.848 46.0837L182.131 47.6234L189.597 41.4024L188.313 39.8627Z" fill="white"/>
        <path d="M196.457 51.255L193.647 46.9967L193.636 47.0034L191.93 44.418L190.268 45.5151L191.974 48.1005L185.536 52.3485L186.64 54.0215L193.077 49.7735L194.783 52.3589L196.457 51.255Z" fill="white"/>
        <path d="M194.374 57.0375C191.864 58.2923 190.734 60.7314 192.016 63.2955C193.293 65.8488 195.922 66.4083 198.432 65.1535C200.931 63.9041 201.984 61.503 200.708 58.9498C199.426 56.3857 196.873 55.7881 194.374 57.0375ZM195.287 58.8899C196.797 58.1348 198.15 58.45 198.861 59.8733C199.567 61.2857 199.008 62.5568 197.498 63.3119C195.911 64.105 194.58 63.7791 193.863 62.3721C193.152 60.9488 193.7 59.6831 195.287 58.8899Z" fill="white"/>
        <path d="M195.135 69.6753L196.608 73.8312C197.388 76.0292 198.855 78.0221 200.973 77.2712C202.827 76.6137 202.529 74.8636 202.137 73.3919C202.781 74.7743 203.674 74.8572 204.704 74.4919C206.033 74.021 206.465 72.5528 205.768 70.5836L204.294 66.4277L195.135 69.6753ZM201.652 69.5553L203.026 69.0682L203.81 71.2778C204.13 72.1823 203.949 72.543 203.594 72.6688C203.148 72.8271 202.757 72.6694 202.436 71.7649L201.652 69.5553ZM197.771 70.9315L199.763 70.2251L200.547 72.4347C201.233 74.3696 200.983 74.7546 200.387 74.9658C199.678 75.2174 199.241 75.0759 198.555 73.141L197.771 70.9315Z" fill="white"/>
    </g>
</svg>