<svg width="107" height="29" viewBox="0 0 107 29" fill="none" xmlns="http://www.w3.org/2000/svg">
<g id="Frame" clip-path="url(#clip0_172_158)">
<path id="Vector" d="M24.8735 14.3692L20.1858 18.9538C21.0908 18.0692 21.5991 16.8705 21.5991 15.6209C21.5991 14.3712 21.0908 13.1725 20.1858 12.2879L11.2305 3.53667L12.5075 2.28707C12.9549 1.84938 13.4865 1.50211 14.0718 1.26516C14.657 1.02822 15.2845 0.90625 15.9182 0.90625C16.5519 0.90625 17.1794 1.02822 17.7646 1.26516C18.3499 1.50211 18.8815 1.84938 19.329 2.28707L24.8735 7.70334C25.7785 8.58794 26.2868 9.7866 26.2868 11.0363C26.2868 12.286 25.7785 13.4846 24.8735 14.3692Z" fill="white"/>
<path id="Vector_2" d="M7.01273 17.2469L15.9556 25.9697L14.6786 27.2153C14.2316 27.6522 13.7006 27.9989 13.1161 28.2354C12.5315 28.472 11.9049 28.5937 11.272 28.5937C10.6392 28.5937 10.0125 28.472 9.42798 28.2354C8.84345 27.9989 8.31245 27.6522 7.86542 27.2153L2.32919 21.8152C1.42647 20.9336 0.919434 19.7384 0.919434 18.4924C0.919434 17.2464 1.42647 16.0513 2.32919 15.1696L7.01273 10.6094C6.11257 11.4907 5.60714 12.684 5.60714 13.9281C5.60714 15.1722 6.11257 16.3655 7.01273 17.2469Z" fill="white"/>
<path id="Vector_3" d="M7.01273 19.738C6.11002 20.6197 5.60298 21.8148 5.60298 23.0608C5.60298 24.3069 6.11002 25.502 7.01273 26.3836L2.32919 21.8153C1.42647 20.9336 0.919434 19.7385 0.919434 18.4925C0.919434 17.2464 1.42647 16.0513 2.32919 15.1697L7.86542 9.76961C8.76931 8.8891 9.99456 8.39453 11.272 8.39453C12.5495 8.39453 13.7747 8.8891 14.6786 9.76961L15.9556 11.0152L7.01273 19.738Z" fill="white"/>
<path id="Vector_4" d="M24.8735 14.3693L19.329 19.7896C18.8812 20.2268 18.3495 20.5737 17.7643 20.8103C17.179 21.047 16.5517 21.1688 15.9182 21.1688C15.2847 21.1688 14.6573 21.047 14.0721 20.8103C13.4868 20.5737 12.9552 20.2268 12.5075 19.7896L11.2305 18.54L20.1858 9.79688C21.0911 8.91161 21.5994 7.71229 21.5994 6.46192C21.5994 5.21156 21.0911 4.01224 20.1858 3.12695L24.8735 7.71153C25.776 8.5958 26.2826 9.79269 26.2826 11.0404C26.2826 12.2881 25.776 13.485 24.8735 14.3693Z" fill="white"/>
<path id="Vector_5" d="M35.7341 23.6889C34.5277 23.6889 32.8223 23.2061 32.132 22.0944C32.071 22.0184 32.0322 21.928 32.0191 21.8325C32.0059 21.737 32.0191 21.6397 32.0571 21.5508C32.0922 21.4452 32.1501 21.3481 32.2269 21.2662C32.3034 21.1843 32.3974 21.1195 32.5022 21.0761L33.1387 20.7312C33.2874 20.6486 33.4541 20.6013 33.6252 20.5933C33.7575 20.6047 33.8844 20.6477 33.9954 20.7184C34.1065 20.7892 34.198 20.8856 34.2617 20.999C34.4204 21.2424 34.6487 21.4352 34.9184 21.5534C35.1885 21.6717 35.4877 21.7102 35.7798 21.6644C36.8447 21.6035 37.2771 21.1897 37.2771 20.0861V19.0881C36.682 19.2386 36.0701 19.3176 35.4554 19.3234C33.022 19.3234 31.7368 18.1062 31.7368 15.814V14.1302C31.7368 11.7365 33.1303 10.4788 35.759 10.4788C36.8347 10.4517 37.9049 10.6338 38.9078 11.0144C39.511 11.2902 39.6522 11.4201 39.6522 11.9272V19.8265C39.6522 22.3744 38.2962 23.6889 35.7341 23.6889ZM35.9005 12.4831C34.6528 12.4831 34.1161 12.9577 34.1161 14.0613V15.7653C34.1161 16.7065 34.6652 17.1812 35.7506 17.1812C36.2682 17.1769 36.7834 17.1129 37.2855 16.9905V12.6616C36.8338 12.5441 36.3681 12.4841 35.9005 12.4831ZM45.538 19.8954C42.9009 19.8954 41.4491 18.5728 41.4491 16.171V14.2276C41.4491 11.7933 42.9134 10.4707 45.5713 10.4707C48.1001 10.4707 49.6724 11.9394 49.6724 14.1667V14.9092C49.6724 15.6152 49.4313 15.818 48.62 15.818H43.8158V16.313C43.8059 16.5336 43.8438 16.7539 43.9275 16.959C44.0112 17.1643 44.1387 17.3497 44.3018 17.5032C44.4644 17.6567 44.6589 17.7746 44.872 17.8492C45.0854 17.9238 45.3122 17.9533 45.538 17.9358C45.9175 17.9566 46.2968 17.8887 46.6439 17.7377C46.9914 17.5867 47.2966 17.3569 47.5346 17.0676C47.5346 17.0676 47.6842 16.6903 48.3953 17.0676C48.3953 17.0676 48.8113 17.2664 49.1899 17.4733C49.2595 17.5042 49.3208 17.5506 49.3687 17.6087C49.4166 17.6667 49.4502 17.735 49.4664 17.8079C49.4826 17.8808 49.481 17.9564 49.4618 18.0286C49.4428 18.1008 49.4067 18.1677 49.3563 18.2239C48.6616 19.3315 47.3765 19.8954 45.538 19.8954ZM47.3056 14.2155V14.0532C47.3056 13.0673 46.7233 12.4831 45.5713 12.4831C44.7684 12.4831 43.8158 12.8279 43.8158 14.0532V14.2155H47.3056Z" fill="white"/>
<path id="Vector_6" d="M85.7844 19.8954C83.1473 19.8954 81.6958 18.5728 81.6958 16.171V14.2276C81.6958 11.7933 83.1598 10.4707 85.8177 10.4707C88.3465 10.4707 89.9191 11.9394 89.9191 14.1667V14.9092C89.9191 15.6152 89.6817 15.818 88.8667 15.818H84.0458V16.313C84.0358 16.5336 84.0737 16.7539 84.1574 16.959C84.2411 17.1643 84.3687 17.3497 84.5317 17.5032C84.6944 17.6567 84.8888 17.7746 85.1019 17.8492C85.315 17.9238 85.5421 17.9533 85.7679 17.9359C86.1475 17.9573 86.527 17.8897 86.8745 17.7386C87.2216 17.5875 87.5268 17.3575 87.7645 17.0676C87.7645 17.0676 87.9182 16.6903 88.6253 17.0676C88.6253 17.0676 89.0412 17.2664 89.4198 17.4733C89.4895 17.5042 89.5507 17.5506 89.5987 17.6087C89.6466 17.6667 89.6802 17.735 89.6963 17.8079C89.7122 17.8808 89.711 17.9564 89.6917 18.0286C89.6727 18.1008 89.6366 18.1677 89.5862 18.2239C88.8916 19.3315 87.6061 19.8954 85.7844 19.8954ZM87.5523 14.2155V14.0532C87.5523 13.0673 86.97 12.4831 85.8177 12.4831C85.0148 12.4831 84.0626 12.8279 84.0626 14.0532V14.2155H87.5523Z" fill="white"/>
<path id="Vector_7" d="M56.2027 19.6241C53.4866 19.6241 52.4802 18.5855 52.4802 15.7941V12.8324H51.4318C50.9329 12.8324 50.8081 12.7067 50.8081 12.2076V11.3272C50.8081 10.8404 50.9329 10.7186 51.4318 10.7186H52.4802V9.17693C52.4802 8.6901 52.609 8.56836 53.1207 8.56836H54.2061C54.7179 8.56836 54.847 8.6901 54.847 9.17693V10.7186H56.5648C57.0762 10.7186 57.1179 10.8404 57.1179 11.3272V12.2076C57.1179 12.6985 57.0722 12.8324 56.5648 12.8324H54.847V15.7292C54.847 17.064 55.3335 17.4251 56.3735 17.4251C57.1179 17.4251 57.1179 17.5509 57.1179 18.0459V18.979C57.1179 19.474 56.9931 19.5957 56.469 19.616L56.2027 19.6241Z" fill="white"/>
<path id="Vector_8" d="M79.3459 19.6241C76.6339 19.6241 75.6231 18.5855 75.6231 15.7941V12.8324H74.5751C74.0758 12.8324 73.9554 12.7067 73.9554 12.2076V11.3272C73.9554 10.8404 74.0758 10.7186 74.5751 10.7186H75.6231V9.17693C75.6231 8.6901 75.7522 8.56836 76.2637 8.56836H77.3537C77.8651 8.56836 77.9899 8.6901 77.9899 9.17693V10.7186H79.7121C80.2235 10.7186 80.2611 10.8404 80.2611 11.3272V12.2076C80.2611 12.6985 80.2154 12.8324 79.7121 12.8324H77.9899V15.7292C77.9899 17.064 78.4808 17.4251 79.5164 17.4251C80.2611 17.4251 80.2611 17.5509 80.2611 18.0459V18.979C80.2611 19.474 80.1364 19.5957 79.6162 19.616L79.3459 19.6241ZM106.066 19.6241C103.354 19.6241 102.348 18.5855 102.348 15.7941V12.8324H101.296C100.796 12.8324 100.676 12.7067 100.676 12.2076V11.3272C100.676 10.8404 100.796 10.7186 101.296 10.7186H102.348V9.17693C102.348 8.6901 102.472 8.56836 102.984 8.56836H104.086C104.598 8.56836 104.727 8.6901 104.727 9.17693V10.7186H106.445C106.956 10.7186 106.994 10.8404 106.994 11.3272V12.2076C106.994 12.6985 106.948 12.8324 106.445 12.8324H104.727V15.7292C104.727 17.064 105.214 17.4251 106.249 17.4251C106.994 17.4251 106.994 17.5509 106.994 18.0459V18.979C106.994 19.474 106.869 19.5957 106.349 19.616L106.066 19.6241ZM60.2666 19.6484C59.7673 19.6484 59.6426 19.6079 59.6426 19.1088V11.238C59.6426 10.7511 59.7673 10.7186 60.2666 10.7186H61.3728C61.8802 10.7186 62.0093 10.7511 62.0093 11.238V19.1291C62.0093 19.6241 61.8762 19.6687 61.3728 19.6687L60.2666 19.6484ZM70.7733 19.6484C70.2743 19.6484 70.1492 19.6079 70.1492 19.1088V13.9441C70.1492 12.9663 69.6462 12.5281 68.5148 12.5281C67.9965 12.5295 67.4804 12.5964 66.9799 12.7269V19.1291C66.9799 19.6282 66.8551 19.6687 66.3602 19.6687H65.2537C64.7503 19.6687 64.6131 19.6241 64.6131 19.1291V12.0819C64.6131 11.4611 64.7961 11.2704 65.3992 11.0473C66.4849 10.6441 67.6403 10.4485 68.8016 10.4712C71.2309 10.4712 72.516 11.6883 72.516 13.9806V19.1291C72.516 19.6241 72.3832 19.6687 71.8798 19.6687L70.7733 19.6484ZM97.789 19.6484C97.2897 19.6484 97.165 19.6079 97.165 19.1088V13.9441C97.165 12.9663 96.6616 12.5281 95.5305 12.5281C95.0123 12.5295 94.4962 12.5964 93.9956 12.7269V19.1291C93.9956 19.6282 93.8749 19.6687 93.3759 19.6687H92.2694C91.7661 19.6687 91.6289 19.6241 91.6289 19.1291V12.0819C91.6289 11.4611 91.8118 11.2704 92.415 11.0473C93.5007 10.6444 94.6561 10.4488 95.8174 10.4712C98.2507 10.4712 99.5361 11.6883 99.5361 13.9806V19.1291C99.5361 19.6241 99.3986 19.6687 98.8956 19.6687L97.789 19.6484Z" fill="white"/>
<path id="Vector_9" d="M60.8282 9.90273C61.5151 9.90273 62.0719 9.35962 62.0719 8.68963C62.0719 8.01968 61.5151 7.47656 60.8282 7.47656C60.1413 7.47656 59.5845 8.01968 59.5845 8.68963C59.5845 9.35962 60.1413 9.90273 60.8282 9.90273Z" fill="white"/>
</g>
<defs>
<clipPath id="clip0_172_158">
<rect width="106.081" height="27.916" fill="white" transform="translate(0.919434 0.90625)"/>
</clipPath>
</defs>
</svg>
