<svg width="118" height="27" viewBox="0 0 118 27" fill="none" xmlns="http://www.w3.org/2000/svg">
<g id="Frame" clip-path="url(#clip0_172_184)">
<path id="Vector" d="M4.58433 1.62489C5.99895 0.804471 7.7202 0.553404 9.33875 0.812702C11.2682 1.15158 13.035 2.29715 14.0575 3.91056C14.7035 4.89149 15.0286 6.0508 15.0472 7.2101C13.9078 7.2101 12.7698 7.2101 11.6304 7.2101C11.6233 5.181 9.31594 3.58267 7.30665 4.07657C6.05314 4.34547 5.00642 5.32505 4.68843 6.52137C4.35616 7.64775 4.71125 8.92092 5.56117 9.7537C6.20575 10.426 7.14263 10.7786 8.0824 10.8252C8.08812 9.73312 8.08382 8.64243 8.08524 7.55173C10.0988 7.56954 12.0996 8.37627 13.4557 9.82094C14.9588 11.3657 15.659 13.591 15.2996 15.6791C15.003 17.6232 13.7894 19.4067 12.0782 20.4741C10.2058 21.6828 7.7316 21.9462 5.61678 21.2081C2.78182 20.2669 0.715482 17.4846 0.808174 14.5843C1.93332 14.5843 3.05989 14.5843 4.18504 14.5843C4.20215 15.992 5.06633 17.3735 6.40682 17.9648C7.75583 18.6247 9.48564 18.3846 10.6193 17.4311C11.8072 16.4653 12.2992 14.786 11.7644 13.3743C11.261 11.8994 9.73233 10.8485 8.12234 10.8334C8.11804 11.9131 8.12234 12.9942 8.12092 14.0753C6.36972 14.1096 4.61713 13.4442 3.35366 12.2795C1.94188 11.0186 1.11335 9.16927 1.16468 7.31299C1.149 5.00813 2.51942 2.77733 4.58433 1.62489Z" fill="white"/>
<path id="Vector_2" d="M93.3981 4.01953C94.4905 4.01953 95.5842 4.01953 96.678 4.01953C96.678 5.07181 96.678 6.12271 96.678 7.17502C98.2354 7.17502 99.7912 7.17502 101.348 7.17502C101.348 8.21496 101.348 9.25626 101.348 10.2962C99.7912 10.2976 98.2354 10.2962 96.678 10.2976C96.678 12.5956 96.678 14.895 96.678 17.193C96.6554 17.6499 96.9633 18.0903 97.4011 18.2618C98.0913 18.602 99.0112 18.0381 99.0283 17.3027C99.0396 16.5797 99.0254 15.8567 99.0312 15.1323C100.088 15.1309 101.146 15.1323 102.204 15.1323C102.158 13.947 102.221 12.7355 102.699 11.627C103.51 9.59512 105.319 7.95978 107.486 7.32868C109.569 6.69485 111.935 6.98431 113.779 8.11616C115.332 9.05047 116.504 10.5514 117.005 12.2471C117.651 14.3956 117.216 16.8294 115.805 18.6157C114.362 20.5214 111.915 21.612 109.478 21.553C109.477 20.5337 109.475 19.5143 109.478 18.4964C111.703 18.6692 113.848 16.9694 114.107 14.8401C114.461 12.7314 112.869 10.5596 110.703 10.1343C108.544 9.61023 106.154 10.9684 105.541 13.0168C105.299 13.7096 105.337 14.4477 105.341 15.1666C104.307 15.1666 103.274 15.1653 102.24 15.168C102.19 16.4151 102.422 17.7335 101.873 18.9107C101.263 20.3251 99.7882 21.3431 98.2011 21.4488C96.3074 21.634 94.3923 20.4829 93.7089 18.7789C93.4269 18.104 93.3809 17.3659 93.3968 16.647C93.3997 12.4378 93.3968 8.22866 93.3981 4.01953Z" fill="white"/>
<path id="Vector_3" d="M17.8779 9.33379C19.0031 8.1443 20.5503 7.33346 22.2031 7.07828C24.3949 6.71334 26.7436 7.34307 28.4106 8.76306C30.303 10.312 31.2698 12.8035 30.9447 15.1673C27.0131 15.1687 23.0815 15.1645 19.1499 15.1701C19.418 16.2909 20.1695 17.2952 21.2049 17.8755C22.0191 18.3749 23.0017 18.5135 23.95 18.4998C23.9229 19.5041 23.9956 20.5069 23.9856 21.5126C22.2601 21.6072 20.4947 21.1668 19.0886 20.1886C17.3317 19.0129 16.1467 17.0812 15.9342 15.0315C15.6889 12.9804 16.4133 10.8443 17.8779 9.33379ZM19.4836 12.3864C22.1218 12.3918 24.7586 12.3891 27.3953 12.3877C26.6538 10.9444 25.0266 9.96075 23.3439 10.0184C21.7254 10.0376 20.2095 11.0076 19.4836 12.3864Z" fill="white"/>
<path id="Vector_4" d="M33.8351 8.0859C35.2255 7.09947 37.0707 6.751 38.7492 7.12555C41.2305 7.63455 43.2042 9.78989 43.4265 12.2182C43.5907 13.7246 43.1228 15.2887 42.1289 16.4658C41.1235 17.6937 39.5777 18.4812 37.9635 18.6307C40.2793 18.7089 42.4911 19.9615 43.7816 21.7999C44.7913 23.1636 45.1849 24.8648 45.1293 26.5208C44.0582 26.5208 42.9874 26.5208 41.9178 26.5208C41.9906 25.4781 41.7781 24.3943 41.1378 23.5327C40.2451 22.2595 38.5995 21.5201 37.0109 21.6901C35.8272 21.8013 34.722 22.4008 33.9605 23.272C33.2147 22.5435 32.4404 21.8397 31.7259 21.0824C32.9994 19.7022 34.8105 18.7775 36.7313 18.6376C35.1841 18.4496 33.7024 17.7101 32.7142 16.5399C31.6832 15.36 31.1912 13.7727 31.3537 12.2415C31.5106 10.6007 32.4361 9.03942 33.8351 8.0859ZM36.5189 10.2646C35.4108 10.6089 34.5851 11.6763 34.6037 12.8027C34.5723 13.9359 35.3937 15.0197 36.5089 15.3696C37.5128 15.7153 38.6936 15.4094 39.4152 14.663C40.1895 13.8879 40.412 12.6504 39.9171 11.6804C39.3581 10.4827 37.8123 9.8132 36.5189 10.2646Z" fill="white"/>
<path id="Vector_5" d="M66.5089 9.04926C67.7709 7.84193 69.4992 7.10657 71.2731 6.99681C73.6477 6.81984 76.072 7.81311 77.5864 9.58157C78.9366 11.1058 79.547 13.1884 79.2804 15.1695C75.3517 15.1695 71.4214 15.1654 67.4927 15.1709C67.8278 16.6073 68.9845 17.8325 70.4446 18.2742C71.0391 18.4649 71.6712 18.4965 72.2929 18.5006C72.2857 19.5049 72.2912 20.5091 72.3325 21.5134C70.5687 21.6108 68.7631 21.1485 67.3415 20.1264C65.4649 18.8367 64.2742 16.6704 64.2329 14.4506C64.1602 12.449 65.0045 10.4336 66.5089 9.04926ZM67.8265 12.3872C70.4647 12.3913 73.1029 12.3927 75.7411 12.3872C74.9737 10.9014 73.2696 9.90672 71.5384 10.0247C69.9726 10.0919 68.5321 11.0551 67.8265 12.3872Z" fill="white"/>
<path id="Vector_6" d="M42.9876 7.17621C45.5644 7.17485 48.1411 7.17758 50.7179 7.17485C52.1526 7.11585 53.6072 7.58778 54.6537 8.5454C56.3022 6.9759 59.0817 6.74539 61.0042 7.98428C62.3975 8.84037 63.3199 10.3811 63.3458 11.978C63.3441 15.0526 63.3458 18.1285 63.3441 21.2044C62.2747 21.2044 61.2052 21.2044 60.1357 21.2044C60.1286 18.16 60.1486 15.1143 60.1257 12.0699C60.0927 11.0026 58.9663 10.1108 57.871 10.3289C56.9368 10.4634 56.2212 11.3291 56.2509 12.2305C56.2483 15.2213 56.2509 18.2135 56.2496 21.2044C55.1801 21.2044 54.1106 21.2044 53.0411 21.2044C53.034 18.1628 53.0524 15.1212 53.0324 12.0809C53.0052 10.9916 51.8359 10.0834 50.7238 10.3385C49.8139 10.4977 49.1267 11.3455 49.1563 12.2318C49.1521 15.2227 49.1563 18.2135 49.1551 21.2044C48.0856 21.2044 47.0161 21.2044 45.9466 21.2044C45.9449 18.1257 45.9466 15.0471 45.9466 11.9684C45.9449 11.3936 46.0991 10.8338 46.2988 10.296C45.195 10.2987 44.0913 10.2974 42.9876 10.2974C42.9859 9.25744 42.9876 8.21751 42.9876 7.17621Z" fill="white"/>
<path id="Vector_7" d="M78.3536 7.20944C80.7449 7.23415 83.1337 7.15867 85.525 7.17515C86.4278 7.16281 87.359 7.16965 88.2146 7.48656C90.1585 8.14374 91.5688 10.0055 91.6073 11.9893C91.6273 15.0611 91.6102 18.1315 91.6156 21.2033C90.5349 21.2033 89.4524 21.2033 88.3717 21.2033C88.37 18.1672 88.3729 15.1311 88.37 12.095C88.3646 11.0125 87.1977 10.1001 86.094 10.332C85.2342 10.4774 84.5228 11.2443 84.5211 12.0922C84.5211 15.1297 84.5211 18.1658 84.5211 21.2033C83.4391 21.2033 82.3579 21.2033 81.2771 21.2033C81.2755 18.2152 81.2784 15.2271 81.2755 12.239C81.2671 11.5764 81.4037 10.9178 81.6448 10.2977C80.5481 10.2949 79.4502 10.2977 78.3536 10.2963C78.3523 9.26735 78.3536 8.2384 78.3536 7.20944Z" fill="white"/>
</g>
<defs>
<clipPath id="clip0_172_184">
<rect width="116.557" height="26.1249" fill="white" transform="translate(0.805176 0.714844)"/>
</clipPath>
</defs>
</svg>
