<svg xmlns="http://www.w3.org/2000/svg" width="180" height="180" viewBox="0 0 180 180" fill="none">
    <rect width="180" height="180" fill="#171F66"/>
    <mask id="mask0_172_1197" style="mask-type:alpha" maskUnits="userSpaceOnUse" x="0" y="0" width="180" height="180">
        <rect width="180" height="180" fill="#171F66"/>
    </mask>
    <g mask="url(#mask0_172_1197)">
        <g filter="url(#filter0_f_172_1197)">
            <circle cx="140.5" cy="191.5" r="113.5" fill="#52479A"/>
        </g>
        <g opacity="0.5">
            <g style="mix-blend-mode:overlay" opacity="0.4">
                <path d="M3.78759 -4.80479C3.31821 -5.40962 2.54786 -5.41172 2.00126 -5.09239C1.9931 -5.08766 1.98508 -5.08277 1.97719 -5.0777L-7.06504 0.670621L-7.07467 0.67684C-7.51628 0.967123 -7.82067 1.45811 -7.89395 1.97791C-7.96683 2.49505 -7.80431 3.11185 -7.2611 3.44002L-7.2483 3.44752L-4.4261 5.07692L-6.9867 9.51201C-6.9904 9.51842 -6.99401 9.52488 -6.99759 9.53148C-7.27306 10.0432 -7.34393 10.7642 -6.92433 11.3048C-6.45495 11.9096 -5.68463 11.9118 -5.13792 11.5924C-5.12988 11.5877 -5.12189 11.5829 -5.11401 11.5778L3.93052 5.83084L3.94026 5.82457C4.382 5.53424 4.68638 5.04325 4.75956 4.52349C4.83251 4.00635 4.66994 3.38952 4.12673 3.06139L4.11398 3.05387L1.28936 1.42307L3.84992 -3.01196C3.85364 -3.0184 3.85727 -3.0249 3.86082 -3.03143C4.1363 -3.54319 4.20717 -4.26413 3.78759 -4.80479Z" fill="white"/>
            </g>
            <g style="mix-blend-mode:overlay" opacity="0.4">
                <path d="M33.7876 -4.80479C33.3182 -5.40962 32.5479 -5.41172 32.0013 -5.09239C31.9931 -5.08766 31.9851 -5.08277 31.9772 -5.0777L22.935 0.670621L22.9253 0.67684C22.4837 0.967123 22.1793 1.45811 22.106 1.97791C22.0332 2.49505 22.1957 3.11185 22.7389 3.44002L22.7517 3.44752L25.5739 5.07692L23.0133 9.51201C23.0096 9.51842 23.006 9.52488 23.0024 9.53148C22.7269 10.0432 22.6561 10.7642 23.0757 11.3048C23.545 11.9096 24.3154 11.9118 24.8621 11.5924C24.8701 11.5877 24.8781 11.5829 24.886 11.5778L33.9305 5.83084L33.9403 5.82457C34.382 5.53424 34.6864 5.04325 34.7596 4.52349C34.8325 4.00635 34.6699 3.38952 34.1267 3.06139L34.114 3.05387L31.2894 1.42307L33.8499 -3.01196C33.8536 -3.0184 33.8573 -3.0249 33.8608 -3.03143C34.1363 -3.54319 34.2072 -4.26413 33.7876 -4.80479Z" fill="white"/>
            </g>
            <g style="mix-blend-mode:overlay" opacity="0.4">
                <path d="M63.7876 -4.80479C63.3182 -5.40962 62.5479 -5.41172 62.0013 -5.09239C61.9931 -5.08766 61.9851 -5.08277 61.9772 -5.0777L52.935 0.670621L52.9253 0.67684C52.4837 0.967123 52.1793 1.45811 52.106 1.97791C52.0332 2.49505 52.1957 3.11185 52.7389 3.44002L52.7517 3.44752L55.5739 5.07692L53.0133 9.51201C53.0096 9.51842 53.006 9.52488 53.0024 9.53148C52.7269 10.0432 52.6561 10.7642 53.0757 11.3048C53.545 11.9096 54.3154 11.9118 54.8621 11.5924C54.8701 11.5877 54.8781 11.5829 54.886 11.5778L63.9305 5.83084L63.9403 5.82457C64.382 5.53424 64.6864 5.04325 64.7596 4.52349C64.8325 4.00635 64.6699 3.38952 64.1267 3.06139L64.114 3.05387L61.2894 1.42307L63.8499 -3.01196C63.8536 -3.0184 63.8573 -3.0249 63.8608 -3.03143C64.1363 -3.54319 64.2072 -4.26413 63.7876 -4.80479Z" fill="white"/>
            </g>
            <g style="mix-blend-mode:overlay" opacity="0.4">
                <path d="M93.7876 -4.80479C93.3182 -5.40962 92.5479 -5.41172 92.0013 -5.09239C91.9931 -5.08766 91.9851 -5.08277 91.9772 -5.0777L82.935 0.670621L82.9253 0.67684C82.4837 0.967123 82.1793 1.45811 82.106 1.97791C82.0332 2.49505 82.1957 3.11185 82.7389 3.44002L82.7517 3.44752L85.5739 5.07692L83.0133 9.51201C83.0096 9.51842 83.006 9.52488 83.0024 9.53148C82.7269 10.0432 82.6561 10.7642 83.0757 11.3048C83.545 11.9096 84.3154 11.9118 84.8621 11.5924C84.8701 11.5877 84.8781 11.5829 84.886 11.5778L93.9305 5.83084L93.9403 5.82457C94.382 5.53424 94.6864 5.04325 94.7596 4.52349C94.8325 4.00635 94.6699 3.38952 94.1267 3.06139L94.114 3.05387L91.2894 1.42307L93.8499 -3.01196C93.8536 -3.0184 93.8573 -3.0249 93.8608 -3.03143C94.1363 -3.54319 94.2072 -4.26413 93.7876 -4.80479Z" fill="white"/>
            </g>
            <g style="mix-blend-mode:overlay" opacity="0.4">
                <path d="M123.788 -4.80479C123.318 -5.40962 122.548 -5.41172 122.001 -5.09239C121.993 -5.08766 121.985 -5.08277 121.977 -5.0777L112.935 0.670621L112.925 0.67684C112.484 0.967123 112.179 1.45811 112.106 1.97791C112.033 2.49505 112.196 3.11185 112.739 3.44002L112.752 3.44752L115.574 5.07692L113.013 9.51201C113.01 9.51842 113.006 9.52488 113.002 9.53148C112.727 10.0432 112.656 10.7642 113.076 11.3048C113.545 11.9096 114.315 11.9118 114.862 11.5924C114.87 11.5877 114.878 11.5829 114.886 11.5778L123.931 5.83084L123.94 5.82457C124.382 5.53424 124.686 5.04325 124.76 4.52349C124.833 4.00635 124.67 3.38952 124.127 3.06139L124.114 3.05387L121.289 1.42307L123.85 -3.01196C123.854 -3.0184 123.857 -3.0249 123.861 -3.03143C124.136 -3.54319 124.207 -4.26413 123.788 -4.80479Z" fill="white"/>
            </g>
            <g style="mix-blend-mode:overlay" opacity="0.4">
                <path d="M153.788 -4.80479C153.318 -5.40962 152.548 -5.41172 152.001 -5.09239C151.993 -5.08766 151.985 -5.08277 151.977 -5.0777L142.935 0.670621L142.925 0.67684C142.484 0.967123 142.179 1.45811 142.106 1.97791C142.033 2.49505 142.196 3.11185 142.739 3.44002L142.752 3.44752L145.574 5.07692L143.013 9.51201C143.01 9.51842 143.006 9.52488 143.002 9.53148C142.727 10.0432 142.656 10.7642 143.076 11.3048C143.545 11.9096 144.315 11.9118 144.862 11.5924C144.87 11.5877 144.878 11.5829 144.886 11.5778L153.931 5.83084L153.94 5.82457C154.382 5.53424 154.686 5.04325 154.76 4.52349C154.833 4.00635 154.67 3.38952 154.127 3.06139L154.114 3.05387L151.289 1.42307L153.85 -3.01196C153.854 -3.0184 153.857 -3.0249 153.861 -3.03143C154.136 -3.54319 154.207 -4.26413 153.788 -4.80479Z" fill="white"/>
            </g>
            <g style="mix-blend-mode:overlay" opacity="0.4">
                <path d="M183.788 -4.80479C183.318 -5.40962 182.548 -5.41172 182.001 -5.09239C181.993 -5.08766 181.985 -5.08277 181.977 -5.0777L172.935 0.670621L172.925 0.67684C172.484 0.967123 172.179 1.45811 172.106 1.97791C172.033 2.49505 172.196 3.11185 172.739 3.44002L172.752 3.44752L175.574 5.07692L173.013 9.51201C173.01 9.51842 173.006 9.52488 173.002 9.53148C172.727 10.0432 172.656 10.7642 173.076 11.3048C173.545 11.9096 174.315 11.9118 174.862 11.5924C174.87 11.5877 174.878 11.5829 174.886 11.5778L183.931 5.83084L183.94 5.82457C184.382 5.53424 184.686 5.04325 184.76 4.52349C184.833 4.00635 184.67 3.38952 184.127 3.06139L184.114 3.05387L181.289 1.42307L183.85 -3.01196C183.854 -3.0184 183.857 -3.0249 183.861 -3.03143C184.136 -3.54319 184.207 -4.26413 183.788 -4.80479Z" fill="white"/>
            </g>
        </g>
        <g opacity="0.5">
            <g style="mix-blend-mode:overlay" opacity="0.4">
                <path d="M13.7876 25.1952C13.3182 24.5904 12.5479 24.5883 12.0013 24.9076C11.9931 24.9123 11.9851 24.9172 11.9772 24.9223L2.93496 30.6706L2.92533 30.6768C2.48372 30.9671 2.17933 31.4581 2.10605 31.9779C2.03317 32.4951 2.19569 33.1118 2.7389 33.44L2.7517 33.4475L5.5739 35.0769L3.0133 39.512C3.0096 39.5184 3.00599 39.5249 3.00241 39.5315C2.72694 40.0432 2.65607 40.7642 3.07567 41.3048C3.54505 41.9096 4.31537 41.9118 4.86208 41.5924C4.87012 41.5877 4.87811 41.5829 4.88599 41.5778L13.9305 35.8308L13.9403 35.8246C14.382 35.5342 14.6864 35.0433 14.7596 34.5235C14.8325 34.0063 14.6699 33.3895 14.1267 33.0614L14.114 33.0539L11.2894 31.4231L13.8499 26.988C13.8536 26.9816 13.8573 26.9751 13.8608 26.9686C14.1363 26.4568 14.2072 25.7359 13.7876 25.1952Z" fill="white"/>
            </g>
            <g style="mix-blend-mode:overlay" opacity="0.4">
                <path d="M43.7876 25.1952C43.3182 24.5904 42.5479 24.5883 42.0013 24.9076C41.9931 24.9123 41.9851 24.9172 41.9772 24.9223L32.935 30.6706L32.9253 30.6768C32.4837 30.9671 32.1793 31.4581 32.106 31.9779C32.0332 32.4951 32.1957 33.1118 32.7389 33.44L32.7517 33.4475L35.5739 35.0769L33.0133 39.512C33.0096 39.5184 33.006 39.5249 33.0024 39.5315C32.7269 40.0432 32.6561 40.7642 33.0757 41.3048C33.545 41.9096 34.3154 41.9118 34.8621 41.5924C34.8701 41.5877 34.8781 41.5829 34.886 41.5778L43.9305 35.8308L43.9403 35.8246C44.382 35.5342 44.6864 35.0433 44.7596 34.5235C44.8325 34.0063 44.6699 33.3895 44.1267 33.0614L44.114 33.0539L41.2894 31.4231L43.8499 26.988C43.8536 26.9816 43.8573 26.9751 43.8608 26.9686C44.1363 26.4568 44.2072 25.7359 43.7876 25.1952Z" fill="white"/>
            </g>
            <g style="mix-blend-mode:overlay" opacity="0.4">
                <path d="M73.7876 25.1952C73.3182 24.5904 72.5479 24.5883 72.0013 24.9076C71.9931 24.9123 71.9851 24.9172 71.9772 24.9223L62.935 30.6706L62.9253 30.6768C62.4837 30.9671 62.1793 31.4581 62.106 31.9779C62.0332 32.4951 62.1957 33.1118 62.7389 33.44L62.7517 33.4475L65.5739 35.0769L63.0133 39.512C63.0096 39.5184 63.006 39.5249 63.0024 39.5315C62.7269 40.0432 62.6561 40.7642 63.0757 41.3048C63.545 41.9096 64.3154 41.9118 64.8621 41.5924C64.8701 41.5877 64.8781 41.5829 64.886 41.5778L73.9305 35.8308L73.9403 35.8246C74.382 35.5342 74.6864 35.0433 74.7596 34.5235C74.8325 34.0063 74.6699 33.3895 74.1267 33.0614L74.114 33.0539L71.2894 31.4231L73.8499 26.988C73.8536 26.9816 73.8573 26.9751 73.8608 26.9686C74.1363 26.4568 74.2072 25.7359 73.7876 25.1952Z" fill="white"/>
            </g>
            <g style="mix-blend-mode:overlay" opacity="0.4">
                <path d="M103.788 25.1952C103.318 24.5904 102.548 24.5883 102.001 24.9076C101.993 24.9123 101.985 24.9172 101.977 24.9223L92.935 30.6706L92.9253 30.6768C92.4837 30.9671 92.1793 31.4581 92.106 31.9779C92.0332 32.4951 92.1957 33.1118 92.7389 33.44L92.7517 33.4475L95.5739 35.0769L93.0133 39.512C93.0096 39.5184 93.006 39.5249 93.0024 39.5315C92.7269 40.0432 92.6561 40.7642 93.0757 41.3048C93.545 41.9096 94.3154 41.9118 94.8621 41.5924C94.8701 41.5877 94.8781 41.5829 94.886 41.5778L103.931 35.8308L103.94 35.8246C104.382 35.5342 104.686 35.0433 104.76 34.5235C104.833 34.0063 104.67 33.3895 104.127 33.0614L104.114 33.0539L101.289 31.4231L103.85 26.988C103.854 26.9816 103.857 26.9751 103.861 26.9686C104.136 26.4568 104.207 25.7359 103.788 25.1952Z" fill="white"/>
            </g>
            <g style="mix-blend-mode:overlay" opacity="0.4">
                <path d="M133.788 25.1952C133.318 24.5904 132.548 24.5883 132.001 24.9076C131.993 24.9123 131.985 24.9172 131.977 24.9223L122.935 30.6706L122.925 30.6768C122.484 30.9671 122.179 31.4581 122.106 31.9779C122.033 32.4951 122.196 33.1118 122.739 33.44L122.752 33.4475L125.574 35.0769L123.013 39.512C123.01 39.5184 123.006 39.5249 123.002 39.5315C122.727 40.0432 122.656 40.7642 123.076 41.3048C123.545 41.9096 124.315 41.9118 124.862 41.5924C124.87 41.5877 124.878 41.5829 124.886 41.5778L133.931 35.8308L133.94 35.8246C134.382 35.5342 134.686 35.0433 134.76 34.5235C134.833 34.0063 134.67 33.3895 134.127 33.0614L134.114 33.0539L131.289 31.4231L133.85 26.988C133.854 26.9816 133.857 26.9751 133.861 26.9686C134.136 26.4568 134.207 25.7359 133.788 25.1952Z" fill="white"/>
            </g>
            <g style="mix-blend-mode:overlay" opacity="0.4">
                <path d="M163.788 25.1952C163.318 24.5904 162.548 24.5883 162.001 24.9076C161.993 24.9123 161.985 24.9172 161.977 24.9223L152.935 30.6706L152.925 30.6768C152.484 30.9671 152.179 31.4581 152.106 31.9779C152.033 32.4951 152.196 33.1118 152.739 33.44L152.752 33.4475L155.574 35.0769L153.013 39.512C153.01 39.5184 153.006 39.5249 153.002 39.5315C152.727 40.0432 152.656 40.7642 153.076 41.3048C153.545 41.9096 154.315 41.9118 154.862 41.5924C154.87 41.5877 154.878 41.5829 154.886 41.5778L163.931 35.8308L163.94 35.8246C164.382 35.5342 164.686 35.0433 164.76 34.5235C164.833 34.0063 164.67 33.3895 164.127 33.0614L164.114 33.0539L161.289 31.4231L163.85 26.988C163.854 26.9816 163.857 26.9751 163.861 26.9686C164.136 26.4568 164.207 25.7359 163.788 25.1952Z" fill="white"/>
            </g>
            <g style="mix-blend-mode:overlay" opacity="0.4">
                <path d="M193.788 25.1952C193.318 24.5904 192.548 24.5883 192.001 24.9076C191.993 24.9123 191.985 24.9172 191.977 24.9223L182.935 30.6706L182.925 30.6768C182.484 30.9671 182.179 31.4581 182.106 31.9779C182.033 32.4951 182.196 33.1118 182.739 33.44L182.752 33.4475L185.574 35.0769L183.013 39.512C183.01 39.5184 183.006 39.5249 183.002 39.5315C182.727 40.0432 182.656 40.7642 183.076 41.3048C183.545 41.9096 184.315 41.9118 184.862 41.5924C184.87 41.5877 184.878 41.5829 184.886 41.5778L193.931 35.8308L193.94 35.8246C194.382 35.5342 194.686 35.0433 194.76 34.5235C194.833 34.0063 194.67 33.3895 194.127 33.0614L194.114 33.0539L191.289 31.4231L193.85 26.988C193.854 26.9816 193.857 26.9751 193.861 26.9686C194.136 26.4568 194.207 25.7359 193.788 25.1952Z" fill="white"/>
            </g>
        </g>
        <g opacity="0.5">
            <g style="mix-blend-mode:overlay" opacity="0.4">
                <path d="M3.78759 55.1952C3.31821 54.5904 2.54786 54.5883 2.00126 54.9076C1.9931 54.9123 1.98508 54.9172 1.97719 54.9223L-7.06504 60.6706L-7.07467 60.6768C-7.51628 60.9671 -7.82067 61.4581 -7.89395 61.9779C-7.96683 62.4951 -7.80431 63.1118 -7.2611 63.44L-7.2483 63.4475L-4.4261 65.0769L-6.9867 69.512C-6.9904 69.5184 -6.99401 69.5249 -6.99759 69.5315C-7.27306 70.0432 -7.34393 70.7642 -6.92433 71.3048C-6.45495 71.9096 -5.68463 71.9118 -5.13792 71.5924C-5.12988 71.5877 -5.12189 71.5829 -5.11401 71.5778L3.93052 65.8308L3.94026 65.8246C4.382 65.5342 4.68638 65.0433 4.75956 64.5235C4.83251 64.0063 4.66994 63.3895 4.12673 63.0614L4.11398 63.0539L1.28936 61.4231L3.84992 56.988C3.85364 56.9816 3.85727 56.9751 3.86082 56.9686C4.1363 56.4568 4.20717 55.7359 3.78759 55.1952Z" fill="white"/>
            </g>
            <g style="mix-blend-mode:overlay" opacity="0.4">
                <path d="M33.7876 55.1952C33.3182 54.5904 32.5479 54.5883 32.0013 54.9076C31.9931 54.9123 31.9851 54.9172 31.9772 54.9223L22.935 60.6706L22.9253 60.6768C22.4837 60.9671 22.1793 61.4581 22.106 61.9779C22.0332 62.4951 22.1957 63.1118 22.7389 63.44L22.7517 63.4475L25.5739 65.0769L23.0133 69.512C23.0096 69.5184 23.006 69.5249 23.0024 69.5315C22.7269 70.0432 22.6561 70.7642 23.0757 71.3048C23.545 71.9096 24.3154 71.9118 24.8621 71.5924C24.8701 71.5877 24.8781 71.5829 24.886 71.5778L33.9305 65.8308L33.9403 65.8246C34.382 65.5342 34.6864 65.0433 34.7596 64.5235C34.8325 64.0063 34.6699 63.3895 34.1267 63.0614L34.114 63.0539L31.2894 61.4231L33.8499 56.988C33.8536 56.9816 33.8573 56.9751 33.8608 56.9686C34.1363 56.4568 34.2072 55.7359 33.7876 55.1952Z" fill="white"/>
            </g>
            <g style="mix-blend-mode:overlay" opacity="0.4">
                <path d="M63.7876 55.1952C63.3182 54.5904 62.5479 54.5883 62.0013 54.9076C61.9931 54.9123 61.9851 54.9172 61.9772 54.9223L52.935 60.6706L52.9253 60.6768C52.4837 60.9671 52.1793 61.4581 52.106 61.9779C52.0332 62.4951 52.1957 63.1118 52.7389 63.44L52.7517 63.4475L55.5739 65.0769L53.0133 69.512C53.0096 69.5184 53.006 69.5249 53.0024 69.5315C52.7269 70.0432 52.6561 70.7642 53.0757 71.3048C53.545 71.9096 54.3154 71.9118 54.8621 71.5924C54.8701 71.5877 54.8781 71.5829 54.886 71.5778L63.9305 65.8308L63.9403 65.8246C64.382 65.5342 64.6864 65.0433 64.7596 64.5235C64.8325 64.0063 64.6699 63.3895 64.1267 63.0614L64.114 63.0539L61.2894 61.4231L63.8499 56.988C63.8536 56.9816 63.8573 56.9751 63.8608 56.9686C64.1363 56.4568 64.2072 55.7359 63.7876 55.1952Z" fill="white"/>
            </g>
            <g style="mix-blend-mode:overlay" opacity="0.4">
                <path d="M93.7876 55.1952C93.3182 54.5904 92.5479 54.5883 92.0013 54.9076C91.9931 54.9123 91.9851 54.9172 91.9772 54.9223L82.935 60.6706L82.9253 60.6768C82.4837 60.9671 82.1793 61.4581 82.106 61.9779C82.0332 62.4951 82.1957 63.1118 82.7389 63.44L82.7517 63.4475L85.5739 65.0769L83.0133 69.512C83.0096 69.5184 83.006 69.5249 83.0024 69.5315C82.7269 70.0432 82.6561 70.7642 83.0757 71.3048C83.545 71.9096 84.3154 71.9118 84.8621 71.5924C84.8701 71.5877 84.8781 71.5829 84.886 71.5778L93.9305 65.8308L93.9403 65.8246C94.382 65.5342 94.6864 65.0433 94.7596 64.5235C94.8325 64.0063 94.6699 63.3895 94.1267 63.0614L94.114 63.0539L91.2894 61.4231L93.8499 56.988C93.8536 56.9816 93.8573 56.9751 93.8608 56.9686C94.1363 56.4568 94.2072 55.7359 93.7876 55.1952Z" fill="white"/>
            </g>
            <g style="mix-blend-mode:overlay" opacity="0.4">
                <path d="M123.788 55.1952C123.318 54.5904 122.548 54.5883 122.001 54.9076C121.993 54.9123 121.985 54.9172 121.977 54.9223L112.935 60.6706L112.925 60.6768C112.484 60.9671 112.179 61.4581 112.106 61.9779C112.033 62.4951 112.196 63.1118 112.739 63.44L112.752 63.4475L115.574 65.0769L113.013 69.512C113.01 69.5184 113.006 69.5249 113.002 69.5315C112.727 70.0432 112.656 70.7642 113.076 71.3048C113.545 71.9096 114.315 71.9118 114.862 71.5924C114.87 71.5877 114.878 71.5829 114.886 71.5778L123.931 65.8308L123.94 65.8246C124.382 65.5342 124.686 65.0433 124.76 64.5235C124.833 64.0063 124.67 63.3895 124.127 63.0614L124.114 63.0539L121.289 61.4231L123.85 56.988C123.854 56.9816 123.857 56.9751 123.861 56.9686C124.136 56.4568 124.207 55.7359 123.788 55.1952Z" fill="white"/>
            </g>
            <g style="mix-blend-mode:overlay" opacity="0.4">
                <path d="M153.788 55.1952C153.318 54.5904 152.548 54.5883 152.001 54.9076C151.993 54.9123 151.985 54.9172 151.977 54.9223L142.935 60.6706L142.925 60.6768C142.484 60.9671 142.179 61.4581 142.106 61.9779C142.033 62.4951 142.196 63.1118 142.739 63.44L142.752 63.4475L145.574 65.0769L143.013 69.512C143.01 69.5184 143.006 69.5249 143.002 69.5315C142.727 70.0432 142.656 70.7642 143.076 71.3048C143.545 71.9096 144.315 71.9118 144.862 71.5924C144.87 71.5877 144.878 71.5829 144.886 71.5778L153.931 65.8308L153.94 65.8246C154.382 65.5342 154.686 65.0433 154.76 64.5235C154.833 64.0063 154.67 63.3895 154.127 63.0614L154.114 63.0539L151.289 61.4231L153.85 56.988C153.854 56.9816 153.857 56.9751 153.861 56.9686C154.136 56.4568 154.207 55.7359 153.788 55.1952Z" fill="white"/>
            </g>
            <g style="mix-blend-mode:overlay" opacity="0.4">
                <path d="M183.788 55.1952C183.318 54.5904 182.548 54.5883 182.001 54.9076C181.993 54.9123 181.985 54.9172 181.977 54.9223L172.935 60.6706L172.925 60.6768C172.484 60.9671 172.179 61.4581 172.106 61.9779C172.033 62.4951 172.196 63.1118 172.739 63.44L172.752 63.4475L175.574 65.0769L173.013 69.512C173.01 69.5184 173.006 69.5249 173.002 69.5315C172.727 70.0432 172.656 70.7642 173.076 71.3048C173.545 71.9096 174.315 71.9118 174.862 71.5924C174.87 71.5877 174.878 71.5829 174.886 71.5778L183.931 65.8308L183.94 65.8246C184.382 65.5342 184.686 65.0433 184.76 64.5235C184.833 64.0063 184.67 63.3895 184.127 63.0614L184.114 63.0539L181.289 61.4231L183.85 56.988C183.854 56.9816 183.857 56.9751 183.861 56.9686C184.136 56.4568 184.207 55.7359 183.788 55.1952Z" fill="white"/>
            </g>
        </g>
        <g opacity="0.5">
            <g style="mix-blend-mode:overlay" opacity="0.4">
                <path d="M13.7876 85.1952C13.3182 84.5904 12.5479 84.5883 12.0013 84.9076C11.9931 84.9123 11.9851 84.9172 11.9772 84.9223L2.93496 90.6706L2.92533 90.6768C2.48372 90.9671 2.17933 91.4581 2.10605 91.9779C2.03317 92.4951 2.19569 93.1118 2.7389 93.44L2.7517 93.4475L5.5739 95.0769L3.0133 99.512C3.0096 99.5184 3.00599 99.5249 3.00241 99.5315C2.72694 100.043 2.65607 100.764 3.07567 101.305C3.54505 101.91 4.31537 101.912 4.86208 101.592C4.87012 101.588 4.87811 101.583 4.88599 101.578L13.9305 95.8308L13.9403 95.8246C14.382 95.5342 14.6864 95.0433 14.7596 94.5235C14.8325 94.0063 14.6699 93.3895 14.1267 93.0614L14.114 93.0539L11.2894 91.4231L13.8499 86.988C13.8536 86.9816 13.8573 86.9751 13.8608 86.9686C14.1363 86.4568 14.2072 85.7359 13.7876 85.1952Z" fill="white"/>
            </g>
            <g style="mix-blend-mode:overlay" opacity="0.4">
                <path d="M43.7876 85.1952C43.3182 84.5904 42.5479 84.5883 42.0013 84.9076C41.9931 84.9123 41.9851 84.9172 41.9772 84.9223L32.935 90.6706L32.9253 90.6768C32.4837 90.9671 32.1793 91.4581 32.106 91.9779C32.0332 92.4951 32.1957 93.1118 32.7389 93.44L32.7517 93.4475L35.5739 95.0769L33.0133 99.512C33.0096 99.5184 33.006 99.5249 33.0024 99.5315C32.7269 100.043 32.6561 100.764 33.0757 101.305C33.545 101.91 34.3154 101.912 34.8621 101.592C34.8701 101.588 34.8781 101.583 34.886 101.578L43.9305 95.8308L43.9403 95.8246C44.382 95.5342 44.6864 95.0433 44.7596 94.5235C44.8325 94.0063 44.6699 93.3895 44.1267 93.0614L44.114 93.0539L41.2894 91.4231L43.8499 86.988C43.8536 86.9816 43.8573 86.9751 43.8608 86.9686C44.1363 86.4568 44.2072 85.7359 43.7876 85.1952Z" fill="white"/>
            </g>
            <g style="mix-blend-mode:overlay" opacity="0.4">
                <path d="M73.7876 85.1952C73.3182 84.5904 72.5479 84.5883 72.0013 84.9076C71.9931 84.9123 71.9851 84.9172 71.9772 84.9223L62.935 90.6706L62.9253 90.6768C62.4837 90.9671 62.1793 91.4581 62.106 91.9779C62.0332 92.4951 62.1957 93.1118 62.7389 93.44L62.7517 93.4475L65.5739 95.0769L63.0133 99.512C63.0096 99.5184 63.006 99.5249 63.0024 99.5315C62.7269 100.043 62.6561 100.764 63.0757 101.305C63.545 101.91 64.3154 101.912 64.8621 101.592C64.8701 101.588 64.8781 101.583 64.886 101.578L73.9305 95.8308L73.9403 95.8246C74.382 95.5342 74.6864 95.0433 74.7596 94.5235C74.8325 94.0063 74.6699 93.3895 74.1267 93.0614L74.114 93.0539L71.2894 91.4231L73.8499 86.988C73.8536 86.9816 73.8573 86.9751 73.8608 86.9686C74.1363 86.4568 74.2072 85.7359 73.7876 85.1952Z" fill="white"/>
            </g>
            <g style="mix-blend-mode:overlay" opacity="0.4">
                <path d="M103.788 85.1952C103.318 84.5904 102.548 84.5883 102.001 84.9076C101.993 84.9123 101.985 84.9172 101.977 84.9223L92.935 90.6706L92.9253 90.6768C92.4837 90.9671 92.1793 91.4581 92.106 91.9779C92.0332 92.4951 92.1957 93.1118 92.7389 93.44L92.7517 93.4475L95.5739 95.0769L93.0133 99.512C93.0096 99.5184 93.006 99.5249 93.0024 99.5315C92.7269 100.043 92.6561 100.764 93.0757 101.305C93.545 101.91 94.3154 101.912 94.8621 101.592C94.8701 101.588 94.8781 101.583 94.886 101.578L103.931 95.8308L103.94 95.8246C104.382 95.5342 104.686 95.0433 104.76 94.5235C104.833 94.0063 104.67 93.3895 104.127 93.0614L104.114 93.0539L101.289 91.4231L103.85 86.988C103.854 86.9816 103.857 86.9751 103.861 86.9686C104.136 86.4568 104.207 85.7359 103.788 85.1952Z" fill="white"/>
            </g>
            <g style="mix-blend-mode:overlay" opacity="0.4">
                <path d="M133.788 85.1952C133.318 84.5904 132.548 84.5883 132.001 84.9076C131.993 84.9123 131.985 84.9172 131.977 84.9223L122.935 90.6706L122.925 90.6768C122.484 90.9671 122.179 91.4581 122.106 91.9779C122.033 92.4951 122.196 93.1118 122.739 93.44L122.752 93.4475L125.574 95.0769L123.013 99.512C123.01 99.5184 123.006 99.5249 123.002 99.5315C122.727 100.043 122.656 100.764 123.076 101.305C123.545 101.91 124.315 101.912 124.862 101.592C124.87 101.588 124.878 101.583 124.886 101.578L133.931 95.8308L133.94 95.8246C134.382 95.5342 134.686 95.0433 134.76 94.5235C134.833 94.0063 134.67 93.3895 134.127 93.0614L134.114 93.0539L131.289 91.4231L133.85 86.988C133.854 86.9816 133.857 86.9751 133.861 86.9686C134.136 86.4568 134.207 85.7359 133.788 85.1952Z" fill="white"/>
            </g>
            <g style="mix-blend-mode:overlay" opacity="0.4">
                <path d="M163.788 85.1952C163.318 84.5904 162.548 84.5883 162.001 84.9076C161.993 84.9123 161.985 84.9172 161.977 84.9223L152.935 90.6706L152.925 90.6768C152.484 90.9671 152.179 91.4581 152.106 91.9779C152.033 92.4951 152.196 93.1118 152.739 93.44L152.752 93.4475L155.574 95.0769L153.013 99.512C153.01 99.5184 153.006 99.5249 153.002 99.5315C152.727 100.043 152.656 100.764 153.076 101.305C153.545 101.91 154.315 101.912 154.862 101.592C154.87 101.588 154.878 101.583 154.886 101.578L163.931 95.8308L163.94 95.8246C164.382 95.5342 164.686 95.0433 164.76 94.5235C164.833 94.0063 164.67 93.3895 164.127 93.0614L164.114 93.0539L161.289 91.4231L163.85 86.988C163.854 86.9816 163.857 86.9751 163.861 86.9686C164.136 86.4568 164.207 85.7359 163.788 85.1952Z" fill="white"/>
            </g>
            <g style="mix-blend-mode:overlay" opacity="0.4">
                <path d="M193.788 85.1952C193.318 84.5904 192.548 84.5883 192.001 84.9076C191.993 84.9123 191.985 84.9172 191.977 84.9223L182.935 90.6706L182.925 90.6768C182.484 90.9671 182.179 91.4581 182.106 91.9779C182.033 92.4951 182.196 93.1118 182.739 93.44L182.752 93.4475L185.574 95.0769L183.013 99.512C183.01 99.5184 183.006 99.5249 183.002 99.5315C182.727 100.043 182.656 100.764 183.076 101.305C183.545 101.91 184.315 101.912 184.862 101.592C184.87 101.588 184.878 101.583 184.886 101.578L193.931 95.8308L193.94 95.8246C194.382 95.5342 194.686 95.0433 194.76 94.5235C194.833 94.0063 194.67 93.3895 194.127 93.0614L194.114 93.0539L191.289 91.4231L193.85 86.988C193.854 86.9816 193.857 86.9751 193.861 86.9686C194.136 86.4568 194.207 85.7359 193.788 85.1952Z" fill="white"/>
            </g>
        </g>
        <g opacity="0.5">
            <g style="mix-blend-mode:overlay" opacity="0.4">
                <path d="M3.78759 115.195C3.31821 114.59 2.54786 114.588 2.00126 114.908C1.9931 114.912 1.98508 114.917 1.97719 114.922L-7.06504 120.671L-7.07467 120.677C-7.51628 120.967 -7.82067 121.458 -7.89395 121.978C-7.96683 122.495 -7.80431 123.112 -7.2611 123.44L-7.2483 123.448L-4.4261 125.077L-6.9867 129.512C-6.9904 129.518 -6.99401 129.525 -6.99759 129.531C-7.27306 130.043 -7.34393 130.764 -6.92433 131.305C-6.45495 131.91 -5.68463 131.912 -5.13792 131.592C-5.12988 131.588 -5.12189 131.583 -5.11401 131.578L3.93052 125.831L3.94026 125.825C4.382 125.534 4.68638 125.043 4.75956 124.523C4.83251 124.006 4.66994 123.39 4.12673 123.061L4.11398 123.054L1.28936 121.423L3.84992 116.988C3.85364 116.982 3.85727 116.975 3.86082 116.969C4.1363 116.457 4.20717 115.736 3.78759 115.195Z" fill="white"/>
            </g>
            <g style="mix-blend-mode:overlay" opacity="0.4">
                <path d="M33.7876 115.195C33.3182 114.59 32.5479 114.588 32.0013 114.908C31.9931 114.912 31.9851 114.917 31.9772 114.922L22.935 120.671L22.9253 120.677C22.4837 120.967 22.1793 121.458 22.106 121.978C22.0332 122.495 22.1957 123.112 22.7389 123.44L22.7517 123.448L25.5739 125.077L23.0133 129.512C23.0096 129.518 23.006 129.525 23.0024 129.531C22.7269 130.043 22.6561 130.764 23.0757 131.305C23.545 131.91 24.3154 131.912 24.8621 131.592C24.8701 131.588 24.8781 131.583 24.886 131.578L33.9305 125.831L33.9403 125.825C34.382 125.534 34.6864 125.043 34.7596 124.523C34.8325 124.006 34.6699 123.39 34.1267 123.061L34.114 123.054L31.2894 121.423L33.8499 116.988C33.8536 116.982 33.8573 116.975 33.8608 116.969C34.1363 116.457 34.2072 115.736 33.7876 115.195Z" fill="white"/>
            </g>
            <g style="mix-blend-mode:overlay" opacity="0.4">
                <path d="M63.7876 115.195C63.3182 114.59 62.5479 114.588 62.0013 114.908C61.9931 114.912 61.9851 114.917 61.9772 114.922L52.935 120.671L52.9253 120.677C52.4837 120.967 52.1793 121.458 52.106 121.978C52.0332 122.495 52.1957 123.112 52.7389 123.44L52.7517 123.448L55.5739 125.077L53.0133 129.512C53.0096 129.518 53.006 129.525 53.0024 129.531C52.7269 130.043 52.6561 130.764 53.0757 131.305C53.545 131.91 54.3154 131.912 54.8621 131.592C54.8701 131.588 54.8781 131.583 54.886 131.578L63.9305 125.831L63.9403 125.825C64.382 125.534 64.6864 125.043 64.7596 124.523C64.8325 124.006 64.6699 123.39 64.1267 123.061L64.114 123.054L61.2894 121.423L63.8499 116.988C63.8536 116.982 63.8573 116.975 63.8608 116.969C64.1363 116.457 64.2072 115.736 63.7876 115.195Z" fill="white"/>
            </g>
            <g style="mix-blend-mode:overlay" opacity="0.4">
                <path d="M93.7876 115.195C93.3182 114.59 92.5479 114.588 92.0013 114.908C91.9931 114.912 91.9851 114.917 91.9772 114.922L82.935 120.671L82.9253 120.677C82.4837 120.967 82.1793 121.458 82.106 121.978C82.0332 122.495 82.1957 123.112 82.7389 123.44L82.7517 123.448L85.5739 125.077L83.0133 129.512C83.0096 129.518 83.006 129.525 83.0024 129.531C82.7269 130.043 82.6561 130.764 83.0757 131.305C83.545 131.91 84.3154 131.912 84.8621 131.592C84.8701 131.588 84.8781 131.583 84.886 131.578L93.9305 125.831L93.9403 125.825C94.382 125.534 94.6864 125.043 94.7596 124.523C94.8325 124.006 94.6699 123.39 94.1267 123.061L94.114 123.054L91.2894 121.423L93.8499 116.988C93.8536 116.982 93.8573 116.975 93.8608 116.969C94.1363 116.457 94.2072 115.736 93.7876 115.195Z" fill="white"/>
            </g>
            <g style="mix-blend-mode:overlay" opacity="0.4">
                <path d="M123.788 115.195C123.318 114.59 122.548 114.588 122.001 114.908C121.993 114.912 121.985 114.917 121.977 114.922L112.935 120.671L112.925 120.677C112.484 120.967 112.179 121.458 112.106 121.978C112.033 122.495 112.196 123.112 112.739 123.44L112.752 123.448L115.574 125.077L113.013 129.512C113.01 129.518 113.006 129.525 113.002 129.531C112.727 130.043 112.656 130.764 113.076 131.305C113.545 131.91 114.315 131.912 114.862 131.592C114.87 131.588 114.878 131.583 114.886 131.578L123.931 125.831L123.94 125.825C124.382 125.534 124.686 125.043 124.76 124.523C124.833 124.006 124.67 123.39 124.127 123.061L124.114 123.054L121.289 121.423L123.85 116.988C123.854 116.982 123.857 116.975 123.861 116.969C124.136 116.457 124.207 115.736 123.788 115.195Z" fill="white"/>
            </g>
            <g style="mix-blend-mode:overlay" opacity="0.4">
                <path d="M153.788 115.195C153.318 114.59 152.548 114.588 152.001 114.908C151.993 114.912 151.985 114.917 151.977 114.922L142.935 120.671L142.925 120.677C142.484 120.967 142.179 121.458 142.106 121.978C142.033 122.495 142.196 123.112 142.739 123.44L142.752 123.448L145.574 125.077L143.013 129.512C143.01 129.518 143.006 129.525 143.002 129.531C142.727 130.043 142.656 130.764 143.076 131.305C143.545 131.91 144.315 131.912 144.862 131.592C144.87 131.588 144.878 131.583 144.886 131.578L153.931 125.831L153.94 125.825C154.382 125.534 154.686 125.043 154.76 124.523C154.833 124.006 154.67 123.39 154.127 123.061L154.114 123.054L151.289 121.423L153.85 116.988C153.854 116.982 153.857 116.975 153.861 116.969C154.136 116.457 154.207 115.736 153.788 115.195Z" fill="white"/>
            </g>
            <g style="mix-blend-mode:overlay" opacity="0.4">
                <path d="M183.788 115.195C183.318 114.59 182.548 114.588 182.001 114.908C181.993 114.912 181.985 114.917 181.977 114.922L172.935 120.671L172.925 120.677C172.484 120.967 172.179 121.458 172.106 121.978C172.033 122.495 172.196 123.112 172.739 123.44L172.752 123.448L175.574 125.077L173.013 129.512C173.01 129.518 173.006 129.525 173.002 129.531C172.727 130.043 172.656 130.764 173.076 131.305C173.545 131.91 174.315 131.912 174.862 131.592C174.87 131.588 174.878 131.583 174.886 131.578L183.931 125.831L183.94 125.825C184.382 125.534 184.686 125.043 184.76 124.523C184.833 124.006 184.67 123.39 184.127 123.061L184.114 123.054L181.289 121.423L183.85 116.988C183.854 116.982 183.857 116.975 183.861 116.969C184.136 116.457 184.207 115.736 183.788 115.195Z" fill="white"/>
            </g>
        </g>
        <g opacity="0.5">
            <g style="mix-blend-mode:overlay" opacity="0.4">
                <path d="M13.7876 145.195C13.3182 144.59 12.5479 144.588 12.0013 144.908C11.9931 144.912 11.9851 144.917 11.9772 144.922L2.93496 150.671L2.92533 150.677C2.48372 150.967 2.17933 151.458 2.10605 151.978C2.03317 152.495 2.19569 153.112 2.7389 153.44L2.7517 153.448L5.5739 155.077L3.0133 159.512C3.0096 159.518 3.00599 159.525 3.00241 159.531C2.72694 160.043 2.65607 160.764 3.07567 161.305C3.54505 161.91 4.31537 161.912 4.86208 161.592C4.87012 161.588 4.87811 161.583 4.88599 161.578L13.9305 155.831L13.9403 155.825C14.382 155.534 14.6864 155.043 14.7596 154.523C14.8325 154.006 14.6699 153.39 14.1267 153.061L14.114 153.054L11.2894 151.423L13.8499 146.988C13.8536 146.982 13.8573 146.975 13.8608 146.969C14.1363 146.457 14.2072 145.736 13.7876 145.195Z" fill="white"/>
            </g>
            <g style="mix-blend-mode:overlay" opacity="0.4">
                <path d="M43.7876 145.195C43.3182 144.59 42.5479 144.588 42.0013 144.908C41.9931 144.912 41.9851 144.917 41.9772 144.922L32.935 150.671L32.9253 150.677C32.4837 150.967 32.1793 151.458 32.106 151.978C32.0332 152.495 32.1957 153.112 32.7389 153.44L32.7517 153.448L35.5739 155.077L33.0133 159.512C33.0096 159.518 33.006 159.525 33.0024 159.531C32.7269 160.043 32.6561 160.764 33.0757 161.305C33.545 161.91 34.3154 161.912 34.8621 161.592C34.8701 161.588 34.8781 161.583 34.886 161.578L43.9305 155.831L43.9403 155.825C44.382 155.534 44.6864 155.043 44.7596 154.523C44.8325 154.006 44.6699 153.39 44.1267 153.061L44.114 153.054L41.2894 151.423L43.8499 146.988C43.8536 146.982 43.8573 146.975 43.8608 146.969C44.1363 146.457 44.2072 145.736 43.7876 145.195Z" fill="white"/>
            </g>
            <g style="mix-blend-mode:overlay" opacity="0.4">
                <path d="M73.7876 145.195C73.3182 144.59 72.5479 144.588 72.0013 144.908C71.9931 144.912 71.9851 144.917 71.9772 144.922L62.935 150.671L62.9253 150.677C62.4837 150.967 62.1793 151.458 62.106 151.978C62.0332 152.495 62.1957 153.112 62.7389 153.44L62.7517 153.448L65.5739 155.077L63.0133 159.512C63.0096 159.518 63.006 159.525 63.0024 159.531C62.7269 160.043 62.6561 160.764 63.0757 161.305C63.545 161.91 64.3154 161.912 64.8621 161.592C64.8701 161.588 64.8781 161.583 64.886 161.578L73.9305 155.831L73.9403 155.825C74.382 155.534 74.6864 155.043 74.7596 154.523C74.8325 154.006 74.6699 153.39 74.1267 153.061L74.114 153.054L71.2894 151.423L73.8499 146.988C73.8536 146.982 73.8573 146.975 73.8608 146.969C74.1363 146.457 74.2072 145.736 73.7876 145.195Z" fill="white"/>
            </g>
            <g style="mix-blend-mode:overlay" opacity="0.4">
                <path d="M103.788 145.195C103.318 144.59 102.548 144.588 102.001 144.908C101.993 144.912 101.985 144.917 101.977 144.922L92.935 150.671L92.9253 150.677C92.4837 150.967 92.1793 151.458 92.106 151.978C92.0332 152.495 92.1957 153.112 92.7389 153.44L92.7517 153.448L95.5739 155.077L93.0133 159.512C93.0096 159.518 93.006 159.525 93.0024 159.531C92.7269 160.043 92.6561 160.764 93.0757 161.305C93.545 161.91 94.3154 161.912 94.8621 161.592C94.8701 161.588 94.8781 161.583 94.886 161.578L103.931 155.831L103.94 155.825C104.382 155.534 104.686 155.043 104.76 154.523C104.833 154.006 104.67 153.39 104.127 153.061L104.114 153.054L101.289 151.423L103.85 146.988C103.854 146.982 103.857 146.975 103.861 146.969C104.136 146.457 104.207 145.736 103.788 145.195Z" fill="white"/>
            </g>
            <g style="mix-blend-mode:overlay" opacity="0.4">
                <path d="M133.788 145.195C133.318 144.59 132.548 144.588 132.001 144.908C131.993 144.912 131.985 144.917 131.977 144.922L122.935 150.671L122.925 150.677C122.484 150.967 122.179 151.458 122.106 151.978C122.033 152.495 122.196 153.112 122.739 153.44L122.752 153.448L125.574 155.077L123.013 159.512C123.01 159.518 123.006 159.525 123.002 159.531C122.727 160.043 122.656 160.764 123.076 161.305C123.545 161.91 124.315 161.912 124.862 161.592C124.87 161.588 124.878 161.583 124.886 161.578L133.931 155.831L133.94 155.825C134.382 155.534 134.686 155.043 134.76 154.523C134.833 154.006 134.67 153.39 134.127 153.061L134.114 153.054L131.289 151.423L133.85 146.988C133.854 146.982 133.857 146.975 133.861 146.969C134.136 146.457 134.207 145.736 133.788 145.195Z" fill="white"/>
            </g>
            <g style="mix-blend-mode:overlay" opacity="0.4">
                <path d="M163.788 145.195C163.318 144.59 162.548 144.588 162.001 144.908C161.993 144.912 161.985 144.917 161.977 144.922L152.935 150.671L152.925 150.677C152.484 150.967 152.179 151.458 152.106 151.978C152.033 152.495 152.196 153.112 152.739 153.44L152.752 153.448L155.574 155.077L153.013 159.512C153.01 159.518 153.006 159.525 153.002 159.531C152.727 160.043 152.656 160.764 153.076 161.305C153.545 161.91 154.315 161.912 154.862 161.592C154.87 161.588 154.878 161.583 154.886 161.578L163.931 155.831L163.94 155.825C164.382 155.534 164.686 155.043 164.76 154.523C164.833 154.006 164.67 153.39 164.127 153.061L164.114 153.054L161.289 151.423L163.85 146.988C163.854 146.982 163.857 146.975 163.861 146.969C164.136 146.457 164.207 145.736 163.788 145.195Z" fill="white"/>
            </g>
            <g style="mix-blend-mode:overlay" opacity="0.4">
                <path d="M193.788 145.195C193.318 144.59 192.548 144.588 192.001 144.908C191.993 144.912 191.985 144.917 191.977 144.922L182.935 150.671L182.925 150.677C182.484 150.967 182.179 151.458 182.106 151.978C182.033 152.495 182.196 153.112 182.739 153.44L182.752 153.448L185.574 155.077L183.013 159.512C183.01 159.518 183.006 159.525 183.002 159.531C182.727 160.043 182.656 160.764 183.076 161.305C183.545 161.91 184.315 161.912 184.862 161.592C184.87 161.588 184.878 161.583 184.886 161.578L193.931 155.831L193.94 155.825C194.382 155.534 194.686 155.043 194.76 154.523C194.833 154.006 194.67 153.39 194.127 153.061L194.114 153.054L191.289 151.423L193.85 146.988C193.854 146.982 193.857 146.975 193.861 146.969C194.136 146.457 194.207 145.736 193.788 145.195Z" fill="white"/>
            </g>
        </g>
        <g opacity="0.5">
            <g style="mix-blend-mode:overlay" opacity="0.4">
                <path d="M3.78759 175.195C3.31821 174.59 2.54786 174.588 2.00126 174.908C1.9931 174.912 1.98508 174.917 1.97719 174.922L-7.06504 180.671L-7.07467 180.677C-7.51628 180.967 -7.82067 181.458 -7.89395 181.978C-7.96683 182.495 -7.80431 183.112 -7.2611 183.44L-7.2483 183.448L-4.4261 185.077L-6.9867 189.512C-6.9904 189.518 -6.99401 189.525 -6.99759 189.531C-7.27306 190.043 -7.34393 190.764 -6.92433 191.305C-6.45495 191.91 -5.68463 191.912 -5.13792 191.592C-5.12988 191.588 -5.12189 191.583 -5.11401 191.578L3.93052 185.831L3.94026 185.825C4.382 185.534 4.68638 185.043 4.75956 184.523C4.83251 184.006 4.66994 183.39 4.12673 183.061L4.11398 183.054L1.28936 181.423L3.84992 176.988C3.85364 176.982 3.85727 176.975 3.86082 176.969C4.1363 176.457 4.20717 175.736 3.78759 175.195Z" fill="white"/>
            </g>
            <g style="mix-blend-mode:overlay" opacity="0.4">
                <path d="M33.7876 175.195C33.3182 174.59 32.5479 174.588 32.0013 174.908C31.9931 174.912 31.9851 174.917 31.9772 174.922L22.935 180.671L22.9253 180.677C22.4837 180.967 22.1793 181.458 22.106 181.978C22.0332 182.495 22.1957 183.112 22.7389 183.44L22.7517 183.448L25.5739 185.077L23.0133 189.512C23.0096 189.518 23.006 189.525 23.0024 189.531C22.7269 190.043 22.6561 190.764 23.0757 191.305C23.545 191.91 24.3154 191.912 24.8621 191.592C24.8701 191.588 24.8781 191.583 24.886 191.578L33.9305 185.831L33.9403 185.825C34.382 185.534 34.6864 185.043 34.7596 184.523C34.8325 184.006 34.6699 183.39 34.1267 183.061L34.114 183.054L31.2894 181.423L33.8499 176.988C33.8536 176.982 33.8573 176.975 33.8608 176.969C34.1363 176.457 34.2072 175.736 33.7876 175.195Z" fill="white"/>
            </g>
            <g style="mix-blend-mode:overlay" opacity="0.4">
                <path d="M63.7876 175.195C63.3182 174.59 62.5479 174.588 62.0013 174.908C61.9931 174.912 61.9851 174.917 61.9772 174.922L52.935 180.671L52.9253 180.677C52.4837 180.967 52.1793 181.458 52.106 181.978C52.0332 182.495 52.1957 183.112 52.7389 183.44L52.7517 183.448L55.5739 185.077L53.0133 189.512C53.0096 189.518 53.006 189.525 53.0024 189.531C52.7269 190.043 52.6561 190.764 53.0757 191.305C53.545 191.91 54.3154 191.912 54.8621 191.592C54.8701 191.588 54.8781 191.583 54.886 191.578L63.9305 185.831L63.9403 185.825C64.382 185.534 64.6864 185.043 64.7596 184.523C64.8325 184.006 64.6699 183.39 64.1267 183.061L64.114 183.054L61.2894 181.423L63.8499 176.988C63.8536 176.982 63.8573 176.975 63.8608 176.969C64.1363 176.457 64.2072 175.736 63.7876 175.195Z" fill="white"/>
            </g>
            <g style="mix-blend-mode:overlay" opacity="0.4">
                <path d="M93.7876 175.195C93.3182 174.59 92.5479 174.588 92.0013 174.908C91.9931 174.912 91.9851 174.917 91.9772 174.922L82.935 180.671L82.9253 180.677C82.4837 180.967 82.1793 181.458 82.106 181.978C82.0332 182.495 82.1957 183.112 82.7389 183.44L82.7517 183.448L85.5739 185.077L83.0133 189.512C83.0096 189.518 83.006 189.525 83.0024 189.531C82.7269 190.043 82.6561 190.764 83.0757 191.305C83.545 191.91 84.3154 191.912 84.8621 191.592C84.8701 191.588 84.8781 191.583 84.886 191.578L93.9305 185.831L93.9403 185.825C94.382 185.534 94.6864 185.043 94.7596 184.523C94.8325 184.006 94.6699 183.39 94.1267 183.061L94.114 183.054L91.2894 181.423L93.8499 176.988C93.8536 176.982 93.8573 176.975 93.8608 176.969C94.1363 176.457 94.2072 175.736 93.7876 175.195Z" fill="white"/>
            </g>
            <g style="mix-blend-mode:overlay" opacity="0.4">
                <path d="M123.788 175.195C123.318 174.59 122.548 174.588 122.001 174.908C121.993 174.912 121.985 174.917 121.977 174.922L112.935 180.671L112.925 180.677C112.484 180.967 112.179 181.458 112.106 181.978C112.033 182.495 112.196 183.112 112.739 183.44L112.752 183.448L115.574 185.077L113.013 189.512C113.01 189.518 113.006 189.525 113.002 189.531C112.727 190.043 112.656 190.764 113.076 191.305C113.545 191.91 114.315 191.912 114.862 191.592C114.87 191.588 114.878 191.583 114.886 191.578L123.931 185.831L123.94 185.825C124.382 185.534 124.686 185.043 124.76 184.523C124.833 184.006 124.67 183.39 124.127 183.061L124.114 183.054L121.289 181.423L123.85 176.988C123.854 176.982 123.857 176.975 123.861 176.969C124.136 176.457 124.207 175.736 123.788 175.195Z" fill="white"/>
            </g>
            <g style="mix-blend-mode:overlay" opacity="0.4">
                <path d="M153.788 175.195C153.318 174.59 152.548 174.588 152.001 174.908C151.993 174.912 151.985 174.917 151.977 174.922L142.935 180.671L142.925 180.677C142.484 180.967 142.179 181.458 142.106 181.978C142.033 182.495 142.196 183.112 142.739 183.44L142.752 183.448L145.574 185.077L143.013 189.512C143.01 189.518 143.006 189.525 143.002 189.531C142.727 190.043 142.656 190.764 143.076 191.305C143.545 191.91 144.315 191.912 144.862 191.592C144.87 191.588 144.878 191.583 144.886 191.578L153.931 185.831L153.94 185.825C154.382 185.534 154.686 185.043 154.76 184.523C154.833 184.006 154.67 183.39 154.127 183.061L154.114 183.054L151.289 181.423L153.85 176.988C153.854 176.982 153.857 176.975 153.861 176.969C154.136 176.457 154.207 175.736 153.788 175.195Z" fill="white"/>
            </g>
            <g style="mix-blend-mode:overlay" opacity="0.4">
                <path d="M183.788 175.195C183.318 174.59 182.548 174.588 182.001 174.908C181.993 174.912 181.985 174.917 181.977 174.922L172.935 180.671L172.925 180.677C172.484 180.967 172.179 181.458 172.106 181.978C172.033 182.495 172.196 183.112 172.739 183.44L172.752 183.448L175.574 185.077L173.013 189.512C173.01 189.518 173.006 189.525 173.002 189.531C172.727 190.043 172.656 190.764 173.076 191.305C173.545 191.91 174.315 191.912 174.862 191.592C174.87 191.588 174.878 191.583 174.886 191.578L183.931 185.831L183.94 185.825C184.382 185.534 184.686 185.043 184.76 184.523C184.833 184.006 184.67 183.39 184.127 183.061L184.114 183.054L181.289 181.423L183.85 176.988C183.854 176.982 183.857 176.975 183.861 176.969C184.136 176.457 184.207 175.736 183.788 175.195Z" fill="white"/>
            </g>
        </g>
    </g>
    <defs>
        <filter id="filter0_f_172_1197" x="-117.586" y="-66.586" width="516.172" height="516.172" filterUnits="userSpaceOnUse" color-interpolation-filters="sRGB">
            <feFlood flood-opacity="0" result="BackgroundImageFix"/>
            <feBlend mode="normal" in="SourceGraphic" in2="BackgroundImageFix" result="shape"/>
            <feGaussianBlur stdDeviation="72.293" result="effect1_foregroundBlur_172_1197"/>
        </filter>
    </defs>
</svg>