<svg width="110" height="110" viewBox="3 3 104 104" fill="none" xmlns="http://www.w3.org/2000/svg">
<g opacity="0.4">
<path d="M98.6555 51.9559C99.4069 51.7542 99.6246 51.3415 99.5464 50.6074C99.4631 49.8252 98.8671 49.3714 97.8622 49.4784C96.9416 49.5765 96.3943 50.152 96.4776 50.9343C96.5558 51.6684 96.8698 51.9879 97.694 52.0705L97.7805 52.8828C96.3752 52.8864 95.8037 52.0345 95.6954 51.0176C95.5839 49.9706 96.3167 48.8519 97.7789 48.6962C99.2652 48.5379 100.217 49.4771 100.329 50.5241C100.435 51.523 100.079 52.4616 98.742 52.7683L98.6555 51.9559Z" fill="white"/>
<path d="M100.444 57.904L99.7183 57.8863L99.7538 56.4344L95.9426 56.3413L95.9604 55.6154L99.7715 55.7085L99.807 54.2566L100.533 54.2744L100.444 57.904Z" fill="white"/>
<path d="M95.352 62.1899L96.4718 62.0283L96.7253 60.3469L95.7048 59.8503L95.8221 59.0724L100.097 61.1613L99.9254 62.2982L95.2347 62.9677L95.352 62.1899ZM97.4091 60.6825L97.2223 61.9212L99.3299 61.6209L97.4091 60.6825Z" fill="white"/>
<path d="M98.412 68.785L97.7121 68.5917L98.0987 67.1918L94.4239 66.177L94.6172 65.477L98.292 66.4918L98.6786 65.0919L99.3785 65.2852L98.412 68.785Z" fill="white"/>
<path d="M95.8289 71.6504C95.3304 72.8586 94.6082 73.3397 93.5957 72.9219C92.6224 72.5204 92.4495 71.67 92.9481 70.4618L93.6474 68.7668L97.8428 70.4978L97.5658 71.1691L96.2513 70.6267L95.8289 71.6504ZM93.6193 70.7387C93.2939 71.5275 93.2965 72.013 93.8727 72.2507C94.4936 72.5069 94.8322 72.1621 95.1576 71.3734L95.58 70.3497L94.0417 69.715L93.6193 70.7387Z" fill="white"/>
<path d="M94.0264 78.4472L93.6684 79.0789L89.7199 76.8414L90.0779 76.2096L93.0577 77.8982L91.3339 73.9932L91.7217 73.3088L95.6703 75.5463L95.2824 76.2307L92.3026 74.5421L94.0264 78.4472Z" fill="white"/>
<path d="M84.3727 87.4829C84.9952 87.9496 85.4542 87.8662 85.9836 87.3515C86.5476 86.8032 86.5367 86.0541 85.8323 85.3296C85.1869 84.6658 84.3963 84.5904 83.8322 85.1388C83.3029 85.6534 83.2453 86.0977 83.6891 86.7972L83.1034 87.3666C82.2331 86.2632 82.5506 85.2877 83.2839 84.5748C84.0388 83.8408 85.3713 83.7269 86.3963 84.7812C87.4382 85.8529 87.2869 87.1816 86.5319 87.9156C85.8117 88.6158 84.8532 88.9147 83.787 88.0524L84.3727 87.4829Z" fill="white"/>
<path d="M80.8178 92.5399L80.3827 91.9585L81.5455 91.0883L79.2611 88.0361L79.8425 87.601L82.1268 90.6532L83.2895 89.783L83.7246 90.3643L80.8178 92.5399Z" fill="white"/>
<path d="M74.3623 91.1424L75.1836 91.9206L76.6597 91.0766L76.4163 89.968L77.0992 89.5776L78.1121 94.2264L77.114 94.797L73.6793 91.5329L74.3623 91.1424ZM76.8205 91.8211L75.7331 92.4428L77.2759 93.9098L76.8205 91.8211Z" fill="white"/>
<path d="M70.999 97.6467L70.7199 96.9764L72.0607 96.4182L70.5954 92.8987L71.2658 92.6196L72.731 96.1391L74.0718 95.5809L74.3509 96.2512L70.999 97.6467Z" fill="white"/>
<path d="M67.1627 97.378C65.9036 97.729 65.08 97.4561 64.7858 96.4011C64.503 95.3869 65.0666 94.7272 66.3257 94.3761L68.0918 93.8836L69.3108 98.2553L68.6113 98.4503L68.2294 97.0805L67.1627 97.378ZM66.5207 95.0756C65.6988 95.3047 65.3179 95.6057 65.4853 96.2061C65.6657 96.8531 66.1458 96.9077 66.9677 96.6785L68.0344 96.3811L67.5874 94.7781L66.5207 95.0756Z" fill="white"/>
<path d="M60.5887 100.172L59.8705 100.28L59.1989 95.7912L59.9171 95.6838L60.4239 99.0711L62.4366 95.3068L63.2146 95.1904L63.8862 99.6789L63.1082 99.7953L62.6014 96.408L60.5887 100.172Z" fill="white"/>
<path d="M47.5159 98.1211C47.5298 98.899 47.8775 99.2101 48.6087 99.3119C49.3878 99.4204 49.9724 98.952 50.1117 97.9511C50.2394 97.0341 49.8135 96.3638 49.0343 96.2553C48.3031 96.1535 47.9171 96.3807 47.6374 97.1605L46.8283 97.0478C47.165 95.6834 48.1299 95.3351 49.1428 95.4761C50.1857 95.6213 51.0937 96.6031 50.8909 98.0595C50.6848 99.5399 49.543 100.236 48.5002 100.091C47.5053 99.9525 46.6808 99.3795 46.7068 98.0085L47.5159 98.1211Z" fill="white"/>
<path d="M41.3385 98.4155L41.5318 97.7155L42.9317 98.1021L43.9466 94.4273L44.6465 94.6206L43.6317 98.2954L45.0316 98.682L44.8383 99.382L41.3385 98.4155Z" fill="white"/>
<path d="M38.4957 92.4729L38.3846 93.5988L39.9565 94.2474L40.6829 93.3753L41.4101 93.6753L38.359 97.3261L37.2961 96.8876L37.7685 92.1729L38.4957 92.4729ZM39.467 94.8309L38.309 94.3532L38.0963 96.4714L39.467 94.8309Z" fill="white"/>
<path d="M31.3098 93.8333L31.6655 93.2002L32.9317 93.9116L34.7991 90.588L35.4322 90.9437L33.5647 94.2673L34.8309 94.9787L34.4752 95.6118L31.3098 93.8333Z" fill="white"/>
<path d="M29.1765 90.6591C28.1218 89.8871 27.8267 89.0711 28.4736 88.1873C29.0956 87.3377 29.9626 87.3724 31.0173 88.1444L32.4968 89.2275L29.8161 92.8896L29.2301 92.4607L30.0701 91.3132L29.1765 90.6591ZM30.5884 88.7304C29.8999 88.2264 29.4277 88.1133 29.0596 88.6162C28.6628 89.1582 28.9169 89.5692 29.6054 90.0732L30.499 90.7273L31.4819 89.3845L30.5884 88.7304Z" fill="white"/>
<path d="M23.0229 87.3056L22.4944 86.8077L25.6066 83.5044L26.1351 84.0023L23.7865 86.4952L27.9894 85.7493L28.562 86.2887L25.4498 89.592L24.8772 89.0526L27.2259 86.5597L23.0229 87.3056Z" fill="white"/>
<path d="M16.5922 75.8416C15.9906 76.3349 15.9622 76.8006 16.3358 77.4373C16.734 78.1158 17.464 78.2838 18.3356 77.7724C19.1341 77.3038 19.3957 76.5539 18.9976 75.8754C18.6239 75.2387 18.2062 75.0769 17.4211 75.3411L17.0077 74.6365C18.2868 74.0544 19.1585 74.5953 19.6761 75.4773C20.2089 76.3854 20.0019 77.7067 18.7337 78.4508C17.4446 79.2073 16.1902 78.7436 15.6573 77.8354C15.149 76.9691 15.0871 75.967 16.1788 75.137L16.5922 75.8416Z" fill="white"/>
<path d="M12.5274 71.1599L13.1967 70.8782L13.76 72.2169L17.2738 70.7382L17.5555 71.4075L14.0416 72.8862L14.6049 74.2248L13.9356 74.5064L12.5274 71.1599Z" fill="white"/>
<path d="M15.4307 65.241L14.4775 65.8503L14.9405 67.4865L16.075 67.5176L16.2892 68.2745L11.5334 68.1362L11.2203 67.0299L15.2165 64.484L15.4307 65.241ZM14.1792 67.4629L13.8381 66.2577L12.0423 67.401L14.1792 67.4629Z" fill="white"/>
<path d="M9.89131 60.2934L10.6091 60.1831L10.8295 61.6186L14.5976 61.0399L14.7079 61.7577L10.9397 62.3363L11.1602 63.7718L10.4424 63.882L9.89131 60.2934Z" fill="white"/>
<path d="M11.0608 56.5319C11.0227 55.2254 11.4855 54.4914 12.5804 54.4595C13.6328 54.4288 14.1377 55.1345 14.1759 56.441L14.2293 58.2738L9.6928 58.4061L9.67162 57.6803L11.0931 57.6388L11.0608 56.5319ZM13.45 56.4622C13.4251 55.6093 13.2246 55.1672 12.6015 55.1853C11.9301 55.2049 11.7617 55.6578 11.7866 56.5107L11.8189 57.6176L13.4823 57.5691L13.45 56.4622Z" fill="white"/>
<path d="M9.91484 49.6656L9.98225 48.9426L14.5011 49.3639L14.4337 50.0869L11.0235 49.769L14.1972 52.6235L14.1242 53.4067L9.60536 52.9855L9.67837 52.2022L13.0886 52.5201L9.91484 49.6656Z" fill="white"/>
<path d="M15.0105 37.5384C14.252 37.3655 13.8666 37.6285 13.5926 38.3141C13.3006 39.0445 13.6154 39.7243 14.5538 40.0994C15.4135 40.4431 16.1663 40.1901 16.4583 39.4596C16.7323 38.7741 16.6041 38.3449 15.9141 37.8866L16.2173 37.128C17.4614 37.7817 17.5683 38.802 17.1887 39.7516C16.7979 40.7293 15.6272 41.3757 14.2618 40.8299C12.8739 40.2751 12.4713 38.9998 12.8621 38.0221C13.235 37.0893 13.9889 36.4262 15.3138 36.7798L15.0105 37.5384Z" fill="white"/>
<path d="M16.2453 31.3728L16.8784 31.7285L16.167 32.9947L19.4906 34.8621L19.1349 35.4952L15.8113 33.6277L15.0999 34.8939L14.4668 34.5382L16.2453 31.3728Z" fill="white"/>
<path d="M22.6474 30.0921L21.5804 29.716L20.576 31.0881L21.2499 32.0013L20.7852 32.6361L17.9666 28.803L18.6457 27.8753L23.1121 29.4574L22.6474 30.0921ZM20.1259 30.4736L20.8658 29.4629L18.8592 28.7515L20.1259 30.4736Z" fill="white"/>
<path d="M22.9791 22.8339L23.5095 23.3299L22.5174 24.3906L25.3017 26.9947L24.8057 27.5251L22.0214 24.921L21.0294 25.9816L20.499 25.4856L22.9791 22.8339Z" fill="white"/>
<path d="M26.5313 21.5275C27.5328 20.6875 28.3956 20.5957 29.0995 21.4349C29.7761 22.2416 29.5354 23.0753 28.534 23.9152L27.1291 25.0935L24.2127 21.6161L24.769 21.1495L25.6829 22.2391L26.5313 21.5275ZM28.0673 23.3588C28.7211 22.8106 28.9436 22.3791 28.5431 21.9015C28.1115 21.3869 27.6517 21.5355 26.998 22.0838L26.1495 22.7954L27.2189 24.0705L28.0673 23.3588Z" fill="white"/>
<path d="M31.2173 16.3484L31.8265 15.9532L34.2968 19.7604L33.6876 20.1557L31.8234 17.2825L31.5505 21.5424L30.8906 21.9705L28.4203 18.1633L29.0802 17.7351L30.9445 20.6083L31.2173 16.3484Z" fill="white"/>
<path d="M43.9209 12.7949C43.5871 12.0922 43.142 11.9524 42.434 12.1616C41.6795 12.3845 41.3406 13.0525 41.627 14.0217C41.8893 14.9096 42.5541 15.3441 43.3085 15.1212C44.0165 14.912 44.2742 14.5456 44.2069 13.72L44.9903 13.4885C45.2472 14.8702 44.5122 15.5858 43.5314 15.8756C42.5217 16.174 41.2892 15.6548 40.8725 14.2446C40.449 12.8112 41.2013 11.7055 42.211 11.4072C43.1744 11.1225 44.1619 11.304 44.7044 12.5634L43.9209 12.7949Z" fill="white"/>
<path d="M49.7867 9.89717L49.897 10.6149L48.4615 10.8354L49.0402 14.6035L48.3224 14.7137L47.7437 10.9456L46.3083 11.166L46.198 10.4483L49.7867 9.89717Z" fill="white"/>
<path d="M54.6953 14.1428L54.3329 13.071L52.6335 13.1271L52.3305 14.2209L51.5443 14.2468L52.8218 9.66372L53.9709 9.62577L55.4815 14.1168L54.6953 14.1428ZM52.8393 12.3938L54.0912 12.3524L53.4131 10.3344L52.8393 12.3938Z" fill="white"/>
<path d="M60.6859 9.93167L60.6212 10.6549L59.1747 10.5256L58.8352 14.3228L58.1119 14.2581L58.4514 10.461L57.0048 10.3316L57.0695 9.60838L60.6859 9.93167Z" fill="white"/>
<path d="M64.1003 11.9702C65.3777 12.2472 65.9789 12.8729 65.7468 13.9433C65.5237 14.9723 64.7173 15.2928 63.4399 15.0158L61.648 14.6273L62.6097 10.1919L63.3194 10.3458L63.0181 11.7356L64.1003 11.9702ZM63.5938 14.3062C64.4277 14.487 64.905 14.3985 65.0371 13.7894C65.1794 13.133 64.7803 12.8607 63.9464 12.6799L62.8642 12.4452L62.5116 14.0715L63.5938 14.3062Z" fill="white"/>
<path d="M71.0811 12.5194L71.7666 12.7589L70.2698 17.0434L69.5843 16.8039L70.7139 13.5705L67.1792 15.9637L66.4366 15.7042L67.9334 11.4197L68.6761 11.6792L67.5464 14.9126L71.0811 12.5194Z" fill="white"/>
<path d="M79.853 19.0665C80.1659 18.3543 79.9803 17.9262 79.3588 17.5277C78.6965 17.1031 77.9696 17.284 77.4242 18.1347C76.9245 18.9142 77.0309 19.7012 77.6931 20.1258C78.3146 20.5242 78.7603 20.4793 79.3406 19.8882L80.0283 20.3291C79.1516 21.4275 78.1295 21.34 77.2685 20.788C76.3821 20.2197 75.9683 18.9481 76.7619 17.7102C77.5686 16.4519 78.897 16.2972 79.7834 16.8655C80.629 17.4076 81.138 18.2731 80.5407 19.5075L79.853 19.0665Z" fill="white"/>
<path d="M85.4622 21.256L84.9959 21.8126L83.8826 20.88L81.4345 23.8024L80.8778 23.336L83.326 20.4137L82.2127 19.481L82.679 18.9244L85.4622 21.256Z" fill="white"/>
<path d="M85.7307 27.9783L86.3012 27.0012L85.1429 25.7563L84.1191 26.246L83.5832 25.6701L87.8788 23.6242L88.6619 24.466L86.2666 28.5542L85.7307 27.9783ZM85.8312 25.43L86.6844 26.3471L87.7612 24.5106L85.8312 25.43Z" fill="white"/>
<path d="M92.8319 29.7368L92.2442 30.1633L91.3913 28.9878L88.3056 31.2266L87.8792 30.6388L90.9649 28.4L90.112 27.2245L90.6998 26.7981L92.8319 29.7368Z" fill="white"/>
<path d="M93.3776 33.3826C94.0135 34.5246 93.9409 35.3892 92.984 35.9221C92.0641 36.4344 91.2908 36.0408 90.6549 34.8988L89.7629 33.2969L93.728 31.0889L94.0813 31.7233L92.8389 32.4152L93.3776 33.3826ZM91.2893 34.5455C91.7045 35.291 92.0862 35.5909 92.6307 35.2877C93.2176 34.9609 93.1583 34.4814 92.7432 33.7359L92.2044 32.7684L90.7506 33.5781L91.2893 34.5455Z" fill="white"/>
<path d="M97.6202 39.0968L97.8916 39.7704L93.6821 41.4667L93.4107 40.7931L96.5875 39.513L92.4585 38.4302L92.1645 37.7006L96.374 36.0042L96.668 36.7339L93.4912 38.014L97.6202 39.0968Z" fill="white"/>
</g>
</svg>
