<svg xmlns="http://www.w3.org/2000/svg" width="12" height="12" viewBox="0 0 12 12" fill="none">
    <path fill-rule="evenodd" clip-rule="evenodd" d="M10.875 3.5C10.875 2.18832 9.81168 1.125 8.5 1.125H3.5C2.18832 1.125 1.125 2.18832 1.125 3.5V7C1.125 8.18408 1.99151 9.16577 3.125 9.34556V10.5C3.125 10.6455 3.20917 10.7779 3.34094 10.8396C3.47271 10.9013 3.62829 10.8812 3.74007 10.7881L5.43577 9.375H8.5C9.81168 9.375 10.875 8.31168 10.875 7V3.5ZM8 5.75C7.72 5.75 7.5 5.525 7.5 5.25C7.5 4.975 7.725 4.75 8 4.75C8.275 4.75 8.5 4.975 8.5 5.25C8.5 5.525 8.28 5.75 8 5.75ZM6 5.75C5.72 5.75 5.5 5.525 5.5 5.25C5.5 4.975 5.725 4.75 6 4.75C6.275 4.75 6.5 4.975 6.5 5.25C6.5 5.525 6.28 5.75 6 5.75ZM3.5 5.25C3.5 5.525 3.72 5.75 4 5.75C4.28 5.75 4.5 5.525 4.5 5.25C4.5 4.975 4.275 4.75 4 4.75C3.725 4.75 3.5 4.975 3.5 5.25Z" fill="#161F6A"/>
</svg>