<svg xmlns="http://www.w3.org/2000/svg" width="212" height="212" viewBox="0 0 212 212" fill="none">
    <g opacity="0.2">
        <path d="M205.662 110.197C205.551 112.228 205.9 114.975 208.318 115.106C211.159 115.259 211.669 112.558 211.779 110.527L212 106.441L202.327 105.918L202.217 107.961L205.772 108.153L205.662 110.197ZM209.834 108.373L209.724 110.416C209.633 112.097 209.401 112.8 208.53 112.752C207.659 112.705 207.517 111.983 207.608 110.302L207.718 108.259L209.834 108.373Z" fill="white"/>
        <path d="M200.305 124.878L199.909 127.096L210.181 124.677L210.58 122.448L201.778 116.643L201.381 118.859L203.009 119.937L202.205 124.431L200.305 124.878ZM204.88 121.17L207.829 123.112L204.401 123.913L204.88 121.17Z" fill="white"/>
        <path d="M204.014 140.051L205.985 140.682L208.535 132.727L199.31 129.771L197.821 134.418C197.074 136.747 197.519 138.733 199.526 139.376C201.532 140.019 202.944 138.628 203.69 136.298L204.551 133.612L205.934 134.055L204.014 140.051ZM200.642 132.36L202.649 133.002L201.788 135.688C201.385 136.945 201.03 137.378 200.246 137.127C199.462 136.877 199.379 136.303 199.781 135.046L200.642 132.36Z" fill="white"/>
        <path d="M200.206 142.75C197.664 141.584 195.063 142.229 193.872 144.827C192.686 147.413 193.894 149.805 196.436 150.971C198.967 152.132 201.491 151.451 202.677 148.864C203.868 146.267 202.738 143.911 200.206 142.75ZM199.337 144.616C200.867 145.317 201.467 146.565 200.806 148.006C200.15 149.437 198.813 149.797 197.283 149.095C195.676 148.358 195.098 147.121 195.743 145.685C196.405 144.243 197.73 143.879 199.337 144.616Z" fill="white"/>
        <path d="M194.826 163.315L197.476 158.975L197.466 158.969L199.075 156.334L197.38 155.299L195.772 157.934L189.21 153.926L188.168 155.631L194.73 159.638L193.121 162.273L194.826 163.315Z" fill="white"/>
        <path d="M182.557 164.045L179.695 167.381C178.182 169.145 177.187 171.402 178.886 172.86C180.375 174.138 181.74 173.012 182.818 171.942C181.943 173.185 182.314 173.998 183.141 174.707C184.207 175.622 185.691 175.268 187.047 173.687L189.909 170.352L182.557 164.045ZM185.894 169.62L186.997 170.566L185.475 172.34C184.852 173.065 184.451 173.087 184.166 172.843C183.807 172.536 183.75 172.119 184.373 171.394L185.894 169.62ZM182.779 166.947L184.378 168.319L182.856 170.093C181.524 171.646 181.067 171.621 180.589 171.211C180.02 170.722 179.925 170.274 181.258 168.721L182.779 166.947Z" fill="white"/>
        <path d="M171.712 188.58L177.972 183.326L171.746 175.906L170.216 177.19L175.158 183.08L171.958 185.765L167.016 179.876L165.485 181.16L171.712 188.58Z" fill="white"/>
        <path d="M166.071 186.962C164.534 184.624 161.988 183.791 159.6 185.36C157.222 186.922 156.975 189.591 158.511 191.928C160.041 194.255 162.541 195.018 164.919 193.455C167.307 191.886 167.599 189.289 166.071 186.962ZM164.344 188.082C165.268 189.488 165.114 190.864 163.788 191.735C162.473 192.599 161.149 192.194 160.225 190.788C159.255 189.311 159.421 187.954 160.73 187.08C162.055 186.209 163.373 186.604 164.344 188.082Z" fill="white"/>
        <path d="M151.54 194.21C149.721 195.118 147.506 196.78 148.588 198.947C149.86 201.492 152.46 200.599 154.279 199.69L157.94 197.861L153.61 189.195L151.779 190.11L153.371 193.295L151.54 194.21ZM155.189 196.934L153.359 197.849C151.854 198.601 151.128 198.747 150.738 197.967C150.348 197.187 150.906 196.705 152.412 195.953L154.243 195.038L155.189 196.934Z" fill="white"/>
        <path d="M139.459 205.912L144.239 204.179L144.236 204.168L147.138 203.116L146.462 201.249L143.559 202.301L140.939 195.072L139.061 195.753L141.681 202.982L138.778 204.034L139.459 205.912Z" fill="white"/>
        <path d="M124.651 204.792C125.203 207.187 127.339 207.937 129.65 207.665L129.849 208.526L131.796 208.078L131.597 207.216C133.694 206.447 135.274 204.84 134.727 202.469C134.18 200.097 132.042 199.286 129.818 199.5L129.619 198.639L127.672 199.088L127.871 199.949C125.68 200.74 124.099 202.397 124.651 204.792ZM128.334 201.955L129.188 205.66C127.86 205.829 126.94 205.557 126.657 204.329C126.377 203.114 127.071 202.407 128.334 201.955ZM132.709 202.934C132.987 204.137 132.305 204.792 131.134 205.21L130.28 201.506C131.519 201.382 132.435 201.742 132.709 202.934Z" fill="white"/>
        <path d="M122.066 205.281C121.786 202.499 119.913 200.582 117.07 200.868C114.239 201.153 112.786 203.404 113.066 206.187C113.345 208.958 115.209 210.791 118.04 210.505C120.883 210.22 122.344 208.053 122.066 205.281ZM120.016 205.476C120.185 207.15 119.412 208.299 117.834 208.457C116.267 208.615 115.281 207.643 115.113 205.969C114.936 204.21 115.711 203.085 117.276 202.916C118.855 202.757 119.839 203.716 120.016 205.476Z" fill="white"/>
        <path d="M101.256 211.049L107.975 211.179L108.082 205.611C108.123 203.492 108.45 203.498 109.576 203.52L109.614 201.523C107.29 201.478 106.155 201.94 106.085 205.572L106.016 209.143L103.292 209.091L103.441 201.403L101.443 201.365L101.256 211.049Z" fill="white"/>
        <path d="M89.356 209.796L91.4446 210.072L96.3271 204.157L95.4781 210.603L97.4585 210.864L98.7237 201.261L96.6351 200.986L91.7526 206.9L92.6017 200.454L90.6212 200.193L89.356 209.796Z" fill="white"/>
        <path d="M86.746 204.55C87.4362 201.839 86.3344 199.397 83.5654 198.692C80.8078 197.989 78.6715 199.607 77.9814 202.316C77.2935 205.015 78.4165 207.375 81.1741 208.078C83.943 208.784 86.0589 207.248 86.746 204.55ZM84.7543 204.03C84.3388 205.661 83.2196 206.475 81.6826 206.084C80.157 205.695 79.5637 204.444 79.9792 202.813C80.4151 201.1 81.529 200.31 83.0576 200.686C84.5946 201.078 85.1909 202.316 84.7543 204.03Z" fill="white"/>
        <path d="M53.3359 189.599C51.6271 188.495 49.0693 187.434 47.7555 189.468C46.2117 191.858 48.3031 193.642 50.0118 194.745L53.4495 196.965L58.705 188.829L56.9861 187.719L55.0548 190.709L53.3359 189.599ZM52.8475 194.126L51.1286 193.016C49.7148 192.103 49.2198 191.553 49.6928 190.821C50.1659 190.088 50.8644 190.323 52.2782 191.236L53.9971 192.346L52.8475 194.126Z" fill="white"/>
        <path d="M43.2502 177.662L41.5225 176.217L38.5225 186.335L40.2593 187.787L49.6684 183.029L47.9407 181.584L46.1967 182.462L42.695 179.534L43.2502 177.662ZM44.1982 183.474L41.0484 185.07L42.0541 181.696L44.1982 183.474Z" fill="white"/>
        <path d="M28.2371 173.348L26.71 174.746L32.3513 180.908L39.4959 174.367L36.201 170.768C34.5495 168.964 32.6049 168.364 31.051 169.787C29.497 171.209 30.0037 173.126 31.6552 174.929L33.5602 177.011L32.4886 177.992L28.2371 173.348ZM36.5878 174.239L35.0338 175.662L33.1288 173.581C32.2377 172.607 32.0379 172.084 32.6452 171.529C33.2525 170.972 33.7916 171.185 34.6828 172.158L36.5878 174.239Z" fill="white"/>
        <path d="M27.7853 168.704C30.0594 167.076 30.7899 164.497 29.1264 162.174C27.47 159.861 24.7941 159.722 22.52 161.35C20.2557 162.971 19.5941 165.499 21.2506 167.813C22.9141 170.137 25.521 170.325 27.7853 168.704ZM26.5969 167.023C25.2285 168.003 23.8476 167.904 22.9242 166.615C22.0079 165.335 22.3597 163.996 23.7281 163.016C25.1655 161.987 26.5266 162.1 27.4528 163.373C28.3762 164.662 28.0342 165.994 26.5969 167.023Z" fill="white"/>
        <path d="M12.6035 153.825L15.0552 158.28L15.0657 158.274L16.5542 160.979L18.2939 160.022L16.8054 157.316L23.5416 153.61L22.5784 151.859L15.8423 155.566L14.3539 152.861L12.6035 153.825Z" fill="white"/>
        <path d="M18.0601 142.811L16.585 138.671C15.8047 136.481 14.3394 134.497 12.2293 135.248C10.3816 135.906 10.6816 137.651 11.0756 139.117C10.4308 137.74 9.5406 137.659 8.51407 138.025C7.19101 138.496 6.76149 139.96 7.46045 141.922L8.93558 146.062L18.0601 142.811ZM11.5638 142.94L10.1951 143.428L9.41081 141.227C9.0898 140.326 9.27006 139.966 9.62361 139.84C10.0684 139.682 10.4585 139.838 10.7795 140.739L11.5638 142.94ZM15.4303 141.563L13.4457 142.27L12.6614 140.069C11.9747 138.141 12.2233 137.757 12.8165 137.546C13.5236 137.294 13.9592 137.434 14.646 139.362L15.4303 141.563Z" fill="white"/>
        <path d="M2.14453 121.218L3.59721 129.26L13.1294 127.539L12.7742 125.573L5.20812 126.939L4.46564 122.829L12.0318 121.462L11.6767 119.496L2.14453 121.218Z" fill="white"/>
        <path d="M6.35028 117.123C9.14186 116.95 11.1292 115.153 10.9525 112.3C10.7766 109.46 8.58263 107.923 5.79102 108.095C3.01151 108.268 1.10876 110.06 1.2847 112.9C1.46138 115.752 3.57078 117.295 6.35028 117.123ZM6.2351 115.068C4.5553 115.171 3.43719 114.356 3.33911 112.773C3.24179 111.202 4.25059 110.253 5.93038 110.149C7.69473 110.04 8.78869 110.857 8.89811 112.428C8.99619 114.011 7.99948 114.958 6.2351 115.068Z" fill="white"/>
        <path d="M7.27062 100.911C7.38457 98.8802 7.04158 96.1325 4.62379 95.997C1.78288 95.8373 1.26758 98.5374 1.15361 100.569L0.924316 104.654L10.5955 105.197L10.7101 103.154L7.15597 102.955L7.27062 100.911ZM3.09409 102.727L3.20873 100.684C3.30303 99.0036 3.53647 98.3005 4.40688 98.3497C5.27728 98.3982 5.4186 99.1216 5.3243 100.802L5.20965 102.846L3.09409 102.727Z" fill="white"/>
        <path d="M3.11051 84.6152L2.24136 89.6257L2.25329 89.6279L1.72559 92.6701L3.68207 93.0091L4.20978 89.967L11.7852 91.2814L12.1267 89.3131L4.55123 87.9987L5.07893 84.9565L3.11051 84.6152Z" fill="white"/>
        <path d="M11.4325 72.3161C9.07912 71.6066 7.36765 73.0887 6.45664 75.2295L5.61039 74.9744L5.03369 76.8875L5.87995 77.1425C5.50697 79.3439 6.11749 81.5135 8.44761 82.2165C10.7777 82.9188 12.5437 81.4658 13.4614 79.4279L14.3077 79.6829L14.8844 77.7706L14.0382 77.5156C14.4391 75.2204 13.7857 73.0257 11.4325 72.3161ZM12.0674 76.9208L8.4274 75.8235C8.93934 74.5869 9.6326 73.9234 10.8383 74.2868C12.0323 74.6468 12.3012 75.6003 12.0674 76.9208ZM9.04529 80.2338C7.86279 79.8774 7.63327 78.961 7.85069 77.7366L11.4907 78.8338C10.9835 79.9712 10.2161 80.5865 9.04529 80.2338Z" fill="white"/>
        <path d="M12.2915 69.8302C14.8463 70.9687 17.4398 70.2951 18.6028 67.685C19.761 65.086 18.5278 62.7072 15.9731 61.5687C13.4294 60.4352 10.9134 61.1433 9.75523 63.7423C8.59211 66.3523 9.74789 68.6966 12.2915 69.8302ZM13.1405 67.955C11.6032 67.2699 10.9897 66.0289 11.6354 64.5801C12.276 63.1424 13.609 62.7687 15.1463 63.4538C16.7611 64.1733 17.3524 65.4045 16.7228 66.8472C16.0771 68.296 14.7551 68.6745 13.1405 67.955Z" fill="white"/>
        <path d="M17.6147 48.9023L14.167 54.6704L18.9477 57.528C20.7664 58.6151 20.5987 58.8957 20.021 59.8623L21.7358 60.8873C22.9285 58.8919 23.0906 57.6768 19.9727 55.8132L16.9068 53.9806L18.3046 51.6422L24.904 55.5869L25.9291 53.8721L17.6147 48.9023Z" fill="white"/>
        <path d="M24.6087 39.1934L23.333 40.87L26.0437 48.0448L20.8694 44.1075L19.6597 45.6974L27.3681 51.563L28.6439 49.8864L25.9331 42.7116L31.1074 46.6488L32.3172 45.059L24.6087 39.1934Z" fill="white"/>
        <path d="M30.4601 39.5333C32.4702 41.4782 35.1374 41.7339 37.1244 39.6804C39.1029 37.6355 38.7594 34.9781 36.7493 33.0332C34.7479 31.0968 32.1416 30.9 30.1631 32.9449C28.1761 34.9984 28.4588 37.5969 30.4601 39.5333ZM31.9001 38.0625C30.6906 36.8922 30.5394 35.5161 31.6423 34.3762C32.7369 33.245 34.1172 33.3506 35.3267 34.5209C36.5972 35.7501 36.7309 37.1094 35.6451 38.2491C34.5422 39.3889 33.1705 39.2917 31.9001 38.0625Z" fill="white"/>
        <path d="M61.205 17.337C63.0237 16.4258 65.237 14.7617 64.1523 12.5966C62.8778 10.0527 60.2794 10.9482 58.4607 11.8594L54.8018 13.6925L59.1406 22.3528L60.9701 21.4362L59.3755 18.2536L61.205 17.337ZM57.5532 14.6162L59.3827 13.6996C60.8874 12.9458 61.6129 12.799 62.0034 13.5784C62.3939 14.3579 61.8366 14.8402 60.3318 15.5941L58.5023 16.5107L57.5532 14.6162Z" fill="white"/>
        <path d="M76.6108 14.7128L78.7327 13.9586L71.5419 6.23438L69.4085 6.99256L68.7275 17.5145L70.8495 16.7604L70.9796 14.8123L75.2808 13.2837L76.6108 14.7128ZM71.1232 12.5768L71.3486 9.05296L73.7432 11.6329L71.1232 12.5768Z" fill="white"/>
        <path d="M87.952 3.97291L87.5237 1.94727L79.3501 3.67599L81.354 13.1527L86.1283 12.1431C88.5211 11.637 90.0255 10.2668 89.5897 8.20556C89.1538 6.14439 87.246 5.60738 84.8532 6.11347L82.0926 6.69721L81.7921 5.27572L87.952 3.97291ZM82.9424 10.713L82.5065 8.65182L85.2664 8.06806C86.5574 7.79495 87.1098 7.88864 87.2801 8.69412C87.4503 9.49968 86.9932 9.85618 85.7022 10.1292L82.9424 10.713Z" fill="white"/>
        <path d="M92.1826 5.94316C92.4293 8.72919 94.2788 10.668 97.1257 10.4154C99.9597 10.1639 101.439 7.92976 101.192 5.14374C100.946 2.36981 99.1038 0.515435 96.269 0.766925C93.4229 1.01949 91.9366 3.16923 92.1826 5.94316ZM94.2341 5.77329C94.085 4.09687 94.8713 2.95742 96.4514 2.81723C98.0194 2.67811 98.9941 3.66131 99.1424 5.33774C99.299 7.09855 98.5105 8.21392 96.9433 8.36512C95.3639 8.50527 94.39 7.53414 94.2341 5.77329Z" fill="white"/>
        <path d="M112.711 0.424992L107.628 0.273332V0.285433L104.541 0.193359L104.482 2.17818L107.568 2.27026L107.339 9.95541L109.336 10.015L109.565 2.32984L112.652 2.42191L112.711 0.424992Z" fill="white"/>
        <path d="M119.425 10.7199L123.741 11.5526C126.023 11.993 128.478 11.7388 128.901 9.53949C129.273 7.61349 127.619 6.98592 126.155 6.58035C127.669 6.72439 128.191 5.99897 128.397 4.92899C128.664 3.5499 127.621 2.43616 125.576 2.04163L121.26 1.20898L119.425 10.7199ZM122.614 5.05855L122.889 3.6319L125.183 4.0746C126.123 4.25581 126.341 4.59389 126.27 4.96245C126.181 5.42611 125.848 5.68245 124.909 5.50124L122.614 5.05855ZM121.836 9.08885L122.235 7.0202L124.53 7.4629C126.539 7.85051 126.744 8.25998 126.624 8.87817C126.482 9.61524 126.14 9.91915 124.131 9.53155L121.836 9.08885Z" fill="white"/>
        <path d="M146.111 7.98098L138.445 5.14648L135.085 14.2316L136.959 14.9245L139.626 7.71317L143.544 9.16189L140.877 16.3732L142.751 17.0661L146.111 7.98098Z" fill="white"/>
        <path d="M147.501 13.6822C146.232 16.1745 146.77 18.7994 149.316 20.096C151.852 21.3871 154.292 20.2787 155.561 17.7864C156.825 15.3048 156.247 12.7554 153.712 11.4643C151.166 10.1677 148.765 11.2006 147.501 13.6822ZM149.33 14.627C150.093 13.1272 151.365 12.5788 152.778 13.2986C154.181 14.0128 154.485 15.3634 153.721 16.8632C152.919 18.4384 151.658 18.9652 150.251 18.2618C148.837 17.542 148.528 16.2022 149.33 14.627Z" fill="white"/>
        <path d="M160.997 22.7115C162.688 23.8414 165.229 24.9419 166.575 22.9283C168.155 20.5622 166.091 18.7469 164.4 17.617L160.997 15.3438L155.616 23.3983L157.318 24.535L159.296 21.5749L160.997 22.7115ZM161.555 18.192L163.256 19.3286C164.656 20.2634 165.143 20.8214 164.659 21.5463C164.174 22.2712 163.479 22.0254 162.08 21.0906L160.378 19.9539L161.555 18.192Z" fill="white"/>
        <path d="M177.147 27.4058L173.273 24.1118L173.265 24.121L170.913 22.1211L169.626 23.6339L171.979 25.6338L166.999 31.4915L168.521 32.7855L173.501 26.928L175.853 28.9279L177.147 27.4058Z" fill="white"/>
        <path d="M183.513 40.8232C185.32 39.1566 184.913 36.9295 183.531 35.0572L184.181 34.4579L182.827 32.9895L182.176 33.5888C180.47 32.1489 178.291 31.5727 176.502 33.2228C174.713 34.873 175.068 37.1323 176.356 38.9579L175.707 39.5573L177.062 41.0257L177.711 40.4264C179.484 41.9374 181.707 42.4897 183.513 40.8232ZM179.224 39.0307L182.018 36.4529C182.824 37.5222 183.043 38.4564 182.117 39.3102C181.201 40.1558 180.243 39.903 179.224 39.0307ZM177.906 34.7447C178.814 33.9073 179.72 34.1752 180.664 34.9844L177.869 37.5623C177.148 36.5478 177.007 35.5739 177.906 34.7447Z" fill="white"/>
        <path d="M185.219 42.8251C182.94 44.4474 182.203 47.0234 183.861 49.3512C185.51 51.6691 188.186 51.8154 190.465 50.1931C192.733 48.578 193.401 46.0511 191.751 43.7331C190.094 41.4054 187.487 41.21 185.219 42.8251ZM186.403 44.509C187.774 43.5328 189.154 43.6349 190.074 44.927C190.987 46.2092 190.632 47.5472 189.261 48.5233C187.821 49.5487 186.46 49.4326 185.537 48.1573C184.617 46.8652 184.963 45.5343 186.403 44.509Z" fill="white"/>
        <path d="M200.541 58.0426L197.324 52.1426L192.434 54.8088C190.574 55.8231 190.417 55.5361 189.879 54.5474L188.125 55.5037C189.237 57.5448 190.201 58.3016 193.391 56.5628L196.527 54.8529L197.831 57.2449L191.08 60.9253L192.037 62.6794L200.541 58.0426Z" fill="white"/>
        <path d="M205.351 68.9986L204.555 67.048L196.998 65.7381L203.018 63.2814L202.263 61.4316L193.294 65.0916L194.091 67.0422L201.647 68.3521L195.627 70.8089L196.383 72.6586L205.351 68.9986Z" fill="white"/>
        <path d="M202.086 73.866C199.389 74.6095 197.815 76.777 198.574 79.5316C199.33 82.2748 201.793 83.3289 204.49 82.5851C207.174 81.845 208.668 79.7003 207.912 76.9571C207.152 74.2025 204.771 73.1258 202.086 73.866ZM202.621 75.8538C204.244 75.4065 205.506 75.9749 205.928 77.5042C206.345 79.0215 205.554 80.1566 203.931 80.6046C202.227 81.0738 200.988 80.4987 200.558 78.9844C200.136 77.4558 200.917 76.3237 202.621 75.8538Z" fill="white"/>
    </g>
</svg>