<svg xmlns="http://www.w3.org/2000/svg" width="20" height="20" viewBox="0 0 20 20" fill="none">
    <path d="M6.54673 1.84131C6.88569 1.84131 7.16048 2.11609 7.16048 2.45506V3.47798H12.4796V2.45506C12.4796 2.11609 12.7544 1.84131 13.0934 1.84131C13.4324 1.84131 13.7071 2.11609 13.7071 2.45506V3.47798H14.7301C16.4249 3.47798 17.7988 4.8519 17.7988 6.54673V7.16048H1.84131V6.54673C1.84131 4.8519 3.21523 3.47798 4.91006 3.47798H5.93298V2.45506C5.93298 2.11609 6.20776 1.84131 6.54673 1.84131Z" fill="#B5B7CF"/>
    <path fill-rule="evenodd" clip-rule="evenodd" d="M17.7988 14.7301V8.38798H1.84131V14.7301C1.84131 16.4249 3.21523 17.7988 4.91006 17.7988H14.7301C16.4249 17.7988 17.7988 16.4249 17.7988 14.7301ZM4.91006 10.4338C4.57109 10.4338 4.29631 10.7086 4.29631 11.0476C4.29631 11.3865 4.57109 11.6613 4.91006 11.6613H6.54673C6.88569 11.6613 7.16048 11.3865 7.16048 11.0476C7.16048 10.7086 6.88569 10.4338 6.54673 10.4338H4.91006ZM9.00173 10.4338C8.66276 10.4338 8.38798 10.7086 8.38798 11.0476C8.38798 11.3865 8.66276 11.6613 9.00173 11.6613H10.6384C10.9774 11.6613 11.2521 11.3865 11.2521 11.0476C11.2521 10.7086 10.9774 10.4338 10.6384 10.4338H9.00173ZM13.0934 10.4338C12.7544 10.4338 12.4796 10.7086 12.4796 11.0476C12.4796 11.3865 12.7544 11.6613 13.0934 11.6613H14.7301C15.069 11.6613 15.3438 11.3865 15.3438 11.0476C15.3438 10.7086 15.069 10.4338 14.7301 10.4338H13.0934ZM4.91006 13.7071C4.57109 13.7071 4.29631 13.9819 4.29631 14.3209C4.29631 14.6599 4.57109 14.9346 4.91006 14.9346H6.54673C6.88569 14.9346 7.16048 14.6599 7.16048 14.3209C7.16048 13.9819 6.88569 13.7071 6.54673 13.7071H4.91006ZM9.00173 13.7071C8.66276 13.7071 8.38798 13.9819 8.38798 14.3209C8.38798 14.6599 8.66276 14.9346 9.00173 14.9346H10.6384C10.9774 14.9346 11.2521 14.6599 11.2521 14.3209C11.2521 13.9819 10.9774 13.7071 10.6384 13.7071H9.00173ZM13.0934 13.7071C12.7544 13.7071 12.4796 13.9819 12.4796 14.3209C12.4796 14.6599 12.7544 14.9346 13.0934 14.9346H14.7301C15.069 14.9346 15.3438 14.6599 15.3438 14.3209C15.3438 13.9819 15.069 13.7071 14.7301 13.7071H13.0934Z" fill="#B5B7CF"/>
</svg>