<svg xmlns="http://www.w3.org/2000/svg" width="133" height="27" viewBox="0 0 133 27" fill="none">
    <path d="M0 0.572266H12.6662C12.6662 1.81182 12.6662 3.03712 12.6662 4.26243C11.2415 4.26243 9.81669 4.26243 8.37767 4.26243V26.3892H4.30282C4.30282 19.0088 4.30282 11.657 4.30282 4.27668C2.87804 4.27668 1.45327 4.27668 0.0142477 4.27668C-1.38e-08 3.05137 0 1.81182 0 0.572266Z" fill="#161F6A"/>
    <path d="M34.166 0.572266H38.2266C38.2266 7.95259 38.2266 15.3044 38.2266 22.6705C40.4778 22.6847 42.7289 22.6705 44.98 22.6705C44.98 23.9101 44.98 25.1496 44.98 26.3607H34.1803L34.166 0.572266Z" fill="#161F6A"/>
    <path d="M49.3115 0.586169C50.6792 0.571921 52.047 0.586169 53.4148 0.571921C53.4148 4.29058 53.4148 8.03773 53.4148 11.7706C55.2385 8.05198 57.0195 4.29058 58.829 0.571921C60.1682 0.571921 61.5218 0.557674 62.8753 0.586169C61.0089 4.34757 59.1567 8.10897 57.2902 11.8846C57.1335 12.0841 57.2902 12.3263 57.3614 12.5258C59.2136 17.142 61.0374 21.7726 62.8896 26.3888C61.479 26.4031 60.0685 26.4031 58.6295 26.3888C57.3187 22.9694 56.0222 19.5642 54.6686 16.1589C54.2839 16.9711 53.7995 17.7262 53.4291 18.5383C53.3721 21.1599 53.4291 23.7815 53.4148 26.4031C52.047 26.4031 50.6792 26.4173 49.3115 26.3888C49.3685 24.1092 49.283 21.8153 49.3115 19.5214C49.3115 17.313 49.3115 15.1046 49.3115 12.8962C49.3827 11.8704 49.2972 10.8303 49.3115 9.80445V5.38766C49.3115 5.08845 49.3115 4.8035 49.3115 4.5043V1.58351C49.2972 1.24156 49.2972 0.913867 49.3115 0.586169Z" fill="#161F6A"/>
    <path d="M67.0358 0.572266H71.0822C71.0822 7.14047 71.0822 13.6944 71.0822 20.2626C71.1107 20.9323 71.1249 21.6447 71.4954 22.2288C71.7518 22.5993 72.165 22.7702 72.5497 22.9555C73.2193 22.9982 73.946 23.0552 74.5016 22.6278C75.271 22.1148 75.3138 21.1033 75.3138 20.2769C75.3138 13.7087 75.3138 7.15472 75.3138 0.586514C76.6103 0.586514 77.8926 0.586514 79.1891 0.586514V16.7292C79.1891 18.0542 79.1891 19.3793 79.1891 20.7043C79.1891 22.2146 78.776 23.8103 77.7501 24.9929C76.71 26.2039 75.043 26.7453 73.4616 26.7311C71.9085 26.8023 70.2843 26.5601 69.0447 25.5628C67.6485 24.4372 67.0216 22.5993 67.0073 20.861C67.0073 16.0453 67.0073 11.2296 67.0073 6.41384C67.0358 4.47615 67.0358 2.53845 67.0358 0.572266Z" fill="#161F6A"/>
    <path d="M84.4322 0.571921C86.1419 0.571921 87.8659 0.557674 89.5757 0.586169C90.9292 5.7296 92.3682 10.8303 93.7217 15.9737C93.7645 10.8445 93.7217 5.71535 93.736 0.586169C94.9613 0.586169 96.1723 0.571921 97.3834 0.600417C97.3834 9.1918 97.3834 17.7974 97.3834 26.3888C95.9729 26.4031 94.5766 26.3888 93.1518 26.4031C91.5418 20.5757 89.9746 14.7484 88.3788 8.90685C88.2791 8.53641 88.2079 8.15172 88.1651 7.76703C88.1224 8.15172 88.0939 8.55065 88.0939 8.93534C88.0939 12.2836 88.0939 15.6033 88.0939 18.9515C88.0939 21.4449 88.0939 23.9097 88.0939 26.4031C86.8686 26.4173 85.629 26.4031 84.418 26.4173L84.4322 0.571921Z" fill="#161F6A"/>
    <path d="M118.769 0.58641C120.151 0.572163 121.533 0.58641 122.915 0.58641C123.741 6.15727 124.554 11.7281 125.408 17.299C125.565 18.7095 125.864 20.1058 125.978 21.5306C126.534 18.3676 126.933 15.1903 127.432 12.0131C127.987 8.1947 128.557 4.4048 129.127 0.58641C130.381 0.58641 131.635 0.58641 132.889 0.58641C132.475 3.7779 131.891 6.9409 131.464 10.1466L131.421 10.2321C130.637 15.6178 129.726 21.0034 128.942 26.4033C126.89 26.4318 124.853 26.4033 122.787 26.4176C121.433 17.7834 120.108 9.19204 118.769 0.58641Z" fill="#161F6A"/>
    <path d="M21.4715 0.387252C23.3095 0.145041 25.3754 0.287518 26.8999 1.42734C28.3816 2.55291 29.0655 4.4621 29.0655 6.27157C29.0655 10.9876 29.0655 15.6893 29.0655 20.3911C29.094 21.8016 28.7806 23.2691 27.9542 24.4374C27.1136 25.677 25.7031 26.4036 24.2498 26.6031C22.882 26.7598 21.4572 26.7456 20.1465 26.2611C19.0209 25.8622 18.0948 25.0643 17.5106 24.0385C16.9692 23.0127 16.67 21.8728 16.6558 20.7045V6.28581C16.6985 4.7898 17.1117 3.22255 18.1233 2.08273C18.9924 1.12813 20.2034 0.558225 21.4715 0.387252ZM21.4572 4.4906C20.8161 5.03201 20.7876 5.94387 20.7734 6.72749C20.7734 11.1443 20.7734 15.5611 20.7734 19.9636C20.7876 20.7045 20.7591 21.4881 21.158 22.1578C21.9274 23.2406 23.7939 23.2691 24.5917 22.2005C25.0334 21.5594 24.9622 20.733 25.0192 19.9779C25.0192 15.6466 25.0192 11.3295 25.0192 7.01245C24.9622 6.25732 25.0334 5.43095 24.5917 4.7898C24.321 4.37662 23.8509 4.20564 23.4092 4.02042C22.7395 3.97768 21.9844 4.00618 21.4572 4.4906Z" fill="#161F6A"/>
    <path d="M103.681 2.26879C104.564 1.12897 105.975 0.516316 107.385 0.359591C109.252 0.17437 111.318 0.345343 112.8 1.61339C114.21 2.78171 114.723 4.66241 114.794 6.42913C114.794 11.1451 114.794 15.8469 114.794 20.5771C114.751 22.0019 114.424 23.4979 113.526 24.6377C112.828 25.5781 111.759 26.1622 110.648 26.4899C108.682 26.8746 106.445 26.8461 104.735 25.7063C103.097 24.6377 102.413 22.6146 102.356 20.7339C102.356 16.0179 102.356 11.3019 102.356 6.58585C102.37 5.06134 102.726 3.47984 103.681 2.26879ZM108.112 4.03551C107.571 4.13524 107.043 4.43444 106.773 4.93311C106.445 5.56001 106.445 6.3009 106.445 6.99903C106.445 11.3731 106.445 15.7329 106.445 20.1069C106.445 20.8336 106.474 21.5887 106.872 22.2156C107.571 23.1132 108.981 23.1987 109.893 22.5861C110.577 22.1016 110.691 21.1755 110.691 20.3919C110.705 15.9324 110.691 11.4728 110.691 7.01328C110.691 6.22966 110.691 5.37479 110.235 4.73364C109.779 4.064 108.867 3.92152 108.112 4.03551Z" fill="#161F6A"/>
</svg>