<svg width="53" height="53" viewBox="0 0 53 53" fill="none" xmlns="http://www.w3.org/2000/svg">
<g id="&#208;&#152;&#208;&#186;&#208;&#190;&#208;&#189;&#208;&#186;&#208;&#176; &#208;&#158;&#208;&#177;&#208;&#189;&#208;&#190;&#208;&#178;&#208;&#184;&#209;&#130;&#209;&#140;">
<g id="&#208;&#158;&#208;&#177;&#209;&#139;&#209;&#135;&#208;&#189;&#208;&#190;&#208;&#181; &#209;&#129;&#208;&#190;&#209;&#129;&#209;&#130;&#208;&#190;&#209;&#143;&#208;&#189;&#208;&#184;&#208;&#181;">
<g id="&#208;&#159;&#208;&#187;&#208;&#176;&#209;&#136;&#208;&#186;&#208;&#176;" filter="url(#filter0_bd_172_602)">
<circle cx="26.5" cy="18.5" r="15.5" fill="white" fill-opacity="0.01" shape-rendering="crispEdges"/>
<circle cx="26.5" cy="18.5" r="15.3652" stroke="url(#paint0_linear_172_602)" stroke-width="0.269565" shape-rendering="crispEdges"/>
</g>
<g id="&#208;&#152;&#208;&#186;&#208;&#190;&#208;&#189;&#208;&#186;&#208;&#176; &#208;&#158;&#208;&#177;&#208;&#189;&#208;&#190;&#208;&#178;&#208;&#184;&#209;&#130;&#209;&#140;_2">
<path fill-rule="evenodd" clip-rule="evenodd" d="M25.9278 22.9488L24.4451 24.4314L25.9278 25.914" fill="white" fill-opacity="0.01"/>
<path fill-rule="evenodd" clip-rule="evenodd" d="M30.571 14.3281C31.6348 15.4001 32.2953 16.8715 32.2953 18.5009C32.2953 21.776 29.6399 24.4314 26.3648 24.4314C25.7822 24.4314 25.221 24.3439 24.6887 24.1875" fill="white" fill-opacity="0.01"/>
<path fill-rule="evenodd" clip-rule="evenodd" d="M26.8023 14.0531L28.2849 12.5705L26.8023 11.0879" fill="white" fill-opacity="0.01"/>
<path fill-rule="evenodd" clip-rule="evenodd" d="M22.1055 22.6241C21.0721 21.5566 20.4346 20.1036 20.4346 18.5009C20.4346 15.2259 23.0899 12.5705 26.365 12.5705C26.9477 12.5705 27.5088 12.658 28.0411 12.8144" fill="white" fill-opacity="0.01"/>
<path d="M25.9278 22.9488L24.4451 24.4314L25.9278 25.914M30.571 14.3281C31.6348 15.4001 32.2953 16.8715 32.2953 18.5009C32.2953 21.776 29.6399 24.4314 26.3648 24.4314C25.7822 24.4314 25.221 24.3439 24.6887 24.1875M26.8023 14.0531L28.2849 12.5705L26.8023 11.0879M22.1055 22.6241C21.0721 21.5566 20.4346 20.1036 20.4346 18.5009C20.4346 15.2259 23.0899 12.5705 26.365 12.5705C26.9477 12.5705 27.5088 12.658 28.0411 12.8144" stroke="white" stroke-width="1.75217" stroke-linecap="round" stroke-linejoin="round"/>
</g>
</g>
</g>
<defs>
<filter id="filter0_bd_172_602" x="0.217391" y="-2.3913" width="52.5652" height="55.2609" filterUnits="userSpaceOnUse" color-interpolation-filters="sRGB">
<feFlood flood-opacity="0" result="BackgroundImageFix"/>
<feGaussianBlur in="BackgroundImageFix" stdDeviation="2.69565"/>
<feComposite in2="SourceAlpha" operator="in" result="effect1_backgroundBlur_172_602"/>
<feColorMatrix in="SourceAlpha" type="matrix" values="0 0 0 0 0 0 0 0 0 0 0 0 0 0 0 0 0 0 127 0" result="hardAlpha"/>
<feOffset dy="8.08696"/>
<feGaussianBlur stdDeviation="5.3913"/>
<feComposite in2="hardAlpha" operator="out"/>
<feColorMatrix type="matrix" values="0 0 0 0 0.0901961 0 0 0 0 0.121569 0 0 0 0 0.4 0 0 0 0.05 0"/>
<feBlend mode="normal" in2="effect1_backgroundBlur_172_602" result="effect2_dropShadow_172_602"/>
<feBlend mode="normal" in="SourceGraphic" in2="effect2_dropShadow_172_602" result="shape"/>
</filter>
<linearGradient id="paint0_linear_172_602" x1="26.5" y1="3" x2="26.5" y2="34" gradientUnits="userSpaceOnUse">
<stop stop-color="white" stop-opacity="0.6"/>
<stop offset="1" stop-color="white" stop-opacity="0"/>
</linearGradient>
</defs>
</svg>
