<svg xmlns="http://www.w3.org/2000/svg" width="12" height="11" viewBox="0 0 12 11" fill="none">
    <path d="M1.0713 4.58818C4.13913 3.17696 6.18483 2.24659 7.2084 1.79709C10.1309 0.51366 10.7382 0.290715 11.134 0.283274C11.221 0.281734 11.4157 0.304513 11.5418 0.412534C11.6482 0.503744 11.6775 0.626957 11.6915 0.713434C11.7056 0.799912 11.723 0.99691 11.7091 1.15084C11.5508 2.90776 10.8655 7.17133 10.5169 9.13911C10.3694 9.97175 10.0789 10.2509 9.79768 10.2782C9.18656 10.3376 8.7225 9.85183 8.1306 9.44217C7.20439 8.80113 6.68114 8.40209 5.78209 7.77655C4.74309 7.05364 5.41663 6.65632 6.00876 6.00698C6.16372 5.83704 8.85634 3.25117 8.90845 3.0166C8.91497 2.98726 8.92102 2.8779 8.85949 2.82015C8.79795 2.76241 8.70714 2.78216 8.6416 2.79786C8.54871 2.82012 7.06908 3.8527 4.20271 5.89559C3.78272 6.20009 3.40231 6.34845 3.06147 6.34068C2.68573 6.33211 1.96295 6.11636 1.42563 5.93195C0.766593 5.70577 0.242803 5.58618 0.288413 5.20205C0.31217 5.00197 0.573132 4.79734 1.0713 4.58818Z" fill="#2752EB"/>
</svg>