<svg width="16" height="16" viewBox="0 0 16 16" fill="none" xmlns="http://www.w3.org/2000/svg">
<path fill-rule="evenodd" clip-rule="evenodd" d="M6.2061 1.57633C6.2061 1.3152 6.41779 1.10352 6.67892 1.10352H9.20058C9.46171 1.10352 9.6734 1.3152 9.6734 1.57633C9.6734 1.83746 9.46171 2.04914 9.20058 2.04914H8.41256V3.33118C9.49379 3.42861 10.4796 3.85695 11.2679 4.51413L12.1002 3.6819L11.8041 3.38581C11.6194 3.20117 11.6194 2.9018 11.8041 2.71715C11.9887 2.53251 12.2881 2.53251 12.4728 2.71715L13.7336 3.97799C13.9182 4.16263 13.9182 4.462 13.7336 4.64664C13.5489 4.83129 13.2496 4.83129 13.0649 4.64664L12.7688 4.35056L11.9366 5.1828C12.6884 6.08468 13.1407 7.24498 13.1407 8.51091C13.1407 11.3833 10.8121 13.7118 7.93975 13.7118C5.06735 13.7118 2.73881 11.3833 2.73881 8.51091C2.73881 7.245 3.19109 6.08472 3.94287 5.18284L3.11251 4.35248L2.81642 4.64857C2.63177 4.83321 2.33241 4.83321 2.14776 4.64857C1.96312 4.46392 1.96312 4.16455 2.14776 3.97991L3.40859 2.71908C3.59324 2.53443 3.89261 2.53443 4.07725 2.71908C4.2619 2.90372 4.2619 3.20309 4.07725 3.38773L3.78116 3.68382L4.61151 4.51417C5.39987 3.85696 6.38569 3.42861 7.46694 3.33118V2.04914H6.67892C6.41779 2.04914 6.2061 1.83746 6.2061 1.57633ZM8.41256 6.30445C8.41256 6.04333 8.20088 5.83164 7.93975 5.83164C7.67862 5.83164 7.46694 6.04333 7.46694 6.30445V8.51091C7.46694 8.63631 7.51675 8.75657 7.60542 8.84524L8.86625 10.1061C9.0509 10.2907 9.35027 10.2907 9.53491 10.1061C9.71956 9.92143 9.71956 9.62206 9.53491 9.43742L8.41256 8.31507V6.30445Z" fill="white"/>
</svg>
