<svg width="16" height="16" viewBox="0 0 16 16" fill="none" xmlns="http://www.w3.org/2000/svg">
<g id="&#208;&#152;&#208;&#186;&#208;&#190;&#208;&#189;&#208;&#186;&#208;&#176; &#208;&#159;&#209;&#128;&#208;&#190;&#209;&#129;&#208;&#188;&#208;&#190;&#209;&#130;&#209;&#128;&#209;&#139;">
<path id="Vector" fill-rule="evenodd" clip-rule="evenodd" d="M3.0049 4.76379C5.58893 2.41467 9.53524 2.41467 12.1193 4.76379L12.7605 5.34675C14.067 6.53445 14.067 8.58906 12.7605 9.77676L12.1193 10.3597C9.53524 12.7088 5.58893 12.7088 3.0049 10.3597L2.36364 9.77676C1.05717 8.58906 1.05717 6.53445 2.36364 5.34675L3.0049 4.76379ZM7.5623 9.45236C8.60647 9.45236 9.45293 8.6059 9.45293 7.56173C9.45293 6.51757 8.60647 5.67111 7.5623 5.67111C6.51814 5.67111 5.67168 6.51757 5.67168 7.56173C5.67168 8.6059 6.51814 9.45236 7.5623 9.45236Z" fill="#161F6A"/>
</g>
</svg>
