<svg xmlns="http://www.w3.org/2000/svg" width="106" height="106" viewBox="0 0 106 106" fill="none">
    <path d="M67.3956 14.4442C67.1248 13.2997 66.2615 12.3879 65.1334 12.0552C64.0053 11.7224 62.7854 12.0196 61.9368 12.834L51.2394 23.0995L38.5566 13.5453C37.6466 12.8598 36.4459 12.696 35.3856 13.1128C34.3253 13.5295 33.5574 14.467 33.3577 15.5886L30.375 32.3418L17.2378 32.2295C16.0234 32.2191 14.9028 32.8811 14.3258 33.9497C13.7488 35.0184 13.81 36.3185 14.4849 37.3282L22.5257 49.358L10.9675 61.7525C10.1928 62.5832 9.90347 63.7559 10.2029 64.8516C10.5023 65.9474 11.3477 66.81 12.4372 67.1314L26.7486 71.353L26.1014 86.7985C26.0501 88.0234 26.6866 89.1744 27.7513 89.7822C28.816 90.3899 30.1308 90.3526 31.1594 89.6856L44.853 80.8053L51.5345 95.696C52.0364 96.8145 53.1205 97.5594 54.3446 97.6268C55.5686 97.6942 56.728 97.0729 57.3497 96.0163L65.1891 82.6925L79.5005 86.9141C80.59 87.2355 81.7682 86.9699 82.6144 86.2121C83.4606 85.4542 83.854 84.3123 83.6542 83.1941L80.6736 66.5108L93.9561 60.7711C95.071 60.2894 95.828 59.2307 95.9234 58.0199C96.0188 56.8092 95.4369 55.645 94.4113 54.9946L83.3164 47.9588L89.9039 32.269C90.345 31.2186 90.2089 30.0144 89.5445 29.0889C88.8801 28.1634 87.7828 27.6493 86.6465 27.7312L70.8087 28.8722L67.3956 14.4442Z" fill="currentColor"/>
    <path d="M40.4882 63.253C40.1036 62.9733 39.5792 61.7846 38.915 59.687C38.2507 57.5894 37.7788 55.6316 37.4991 53.8137C37.3593 53.0795 37.0796 52.0832 36.6601 50.8246C36.5901 50.5449 36.5552 50.3177 36.5552 50.1429C36.5552 49.6185 36.695 49.0941 36.9747 48.5696C37.2544 48.0103 37.569 47.6257 37.9186 47.416C38.0585 47.3111 38.3556 47.2412 38.8101 47.2062C39.2996 47.1363 39.6317 47.1188 39.8065 47.1538C40.5756 47.4334 41.2748 49.566 41.9041 53.5515C42.0439 54.6353 42.1488 55.4219 42.2187 55.9113C42.3236 56.4008 42.3761 56.7329 42.3761 56.9077C42.446 57.1174 42.5159 57.3622 42.5858 57.6418C42.6557 57.9215 42.7257 58.1138 42.7956 58.2187C42.8655 58.3236 42.9879 58.2886 43.1627 58.1138C43.5472 57.7292 44.1241 57.03 44.8932 56.0162C45.2778 55.5267 45.8546 54.7227 46.6237 53.6039L48.1445 51.5587C48.564 50.9994 49.1234 50.3876 49.8226 49.7233C50.5218 49.0591 51.0637 48.6745 51.4483 48.5696C51.9377 48.4997 52.3223 48.6046 52.6019 48.8843C52.9166 49.129 53.0739 49.4786 53.0739 49.9331C53.0739 50.5973 52.7942 51.314 52.2349 52.0832C52.0251 52.3628 51.7979 52.7474 51.5531 53.2368C51.3434 53.6913 51.2035 53.9535 51.1336 54.0234C50.7491 54.7926 50.0324 55.8763 48.9836 57.2748C47.9697 58.6732 47.288 59.5472 46.9384 59.8968C46.8685 59.9667 46.5713 60.2114 46.0469 60.6309C45.5574 61.0505 45.103 61.5574 44.6834 62.1517C43.5997 63.2005 42.5858 63.7249 41.6419 63.7249C41.1874 63.7249 40.8029 63.5676 40.4882 63.253Z" fill="white"/>
    <path d="M57.0622 66.347C55.9785 66.347 54.9646 66.1022 54.0207 65.6128C53.0768 65.1233 52.3251 64.5115 51.7658 63.7774C51.2064 63.0082 50.9267 62.2566 50.9267 61.5224C50.9267 60.9281 51.1714 60.6309 51.6609 60.6309C51.9755 60.7009 52.3426 60.8931 52.7621 61.2078C53.2865 61.5224 53.7235 61.7672 54.0731 61.942C54.4577 62.1168 54.8423 62.2042 55.2268 62.2042C55.8212 62.2042 56.3281 62.1168 56.7476 61.942C57.2021 61.7322 57.4643 61.435 57.5342 61.0505C57.5342 60.9106 57.4643 60.6135 57.3245 60.159C57.1846 59.6695 57.0098 59.2325 56.8 58.848C56.0309 57.6943 55.5065 56.5756 55.2268 55.4918C54.9821 54.3731 54.8248 53.0795 54.7549 51.6112C54.7549 50.8071 55.3317 49.8457 56.4854 48.727C57.6741 47.6082 59.0375 46.6119 60.5758 45.7379C62.149 44.8639 63.425 44.3744 64.4039 44.2695C66.3267 44.2695 67.4804 44.4269 67.865 44.7415C68.3544 45.1261 68.8089 45.7553 69.2284 46.6294C69.648 47.5034 69.8577 48.2375 69.8577 48.8318C69.8577 49.0766 69.7354 49.3912 69.4906 49.7758C69.2809 50.1254 69.141 50.3526 69.0711 50.4575L68.5991 51.1917L68.2321 51.9783C68.1621 52.1531 68.0398 52.4153 67.865 52.7649C67.7251 53.1145 67.5853 53.3242 67.4455 53.3942C67.3406 53.4641 67.1658 53.4816 66.921 53.4466C66.3267 53.4466 65.7848 53.1844 65.2954 52.66C64.806 52.1356 64.5612 51.5588 64.5612 50.9295C64.5612 50.475 64.7186 50.0205 65.0332 49.566C65.3478 49.1115 65.5052 48.8493 65.5052 48.7794C65.5052 48.6396 65.3478 48.5696 65.0332 48.5696C64.5787 48.5696 63.8795 48.7969 62.9356 49.2514C61.9917 49.7059 61.1526 50.3177 60.4184 51.0868C59.6843 51.821 59.3172 52.6425 59.3172 53.5515C59.3172 54.0409 59.4046 54.6178 59.5794 55.282C59.7892 55.9113 60.0164 56.4357 60.2611 56.8552C60.5408 57.1349 60.9428 57.974 61.4672 59.3724C62.0266 60.7358 62.3063 61.8196 62.3063 62.6237C62.3063 63.8473 61.8343 64.7737 60.8904 65.403C59.9814 66.0323 58.7054 66.347 57.0622 66.347Z" fill="white"/>
</svg>
