<svg xmlns="http://www.w3.org/2000/svg" width="106" height="106" viewBox="0 0 106 106" fill="none">
    <path d="M67.3956 14.4442C67.1248 13.2997 66.2615 12.3879 65.1334 12.0552C64.0053 11.7224 62.7854 12.0196 61.9368 12.834L51.2394 23.0995L38.5566 13.5453C37.6466 12.8598 36.4459 12.696 35.3856 13.1128C34.3253 13.5295 33.5574 14.467 33.3577 15.5886L30.375 32.3418L17.2378 32.2295C16.0234 32.2191 14.9028 32.8811 14.3258 33.9497C13.7488 35.0184 13.81 36.3185 14.4849 37.3282L22.5257 49.358L10.9675 61.7525C10.1928 62.5832 9.90347 63.7559 10.2029 64.8516C10.5023 65.9474 11.3477 66.81 12.4372 67.1314L26.7486 71.353L26.1014 86.7985C26.0501 88.0234 26.6866 89.1744 27.7513 89.7822C28.816 90.3899 30.1308 90.3526 31.1594 89.6856L44.853 80.8053L51.5345 95.696C52.0364 96.8145 53.1205 97.5594 54.3446 97.6268C55.5686 97.6942 56.728 97.0729 57.3497 96.0163L65.1891 82.6925L79.5005 86.9141C80.59 87.2355 81.7682 86.9699 82.6144 86.2121C83.4606 85.4542 83.854 84.3123 83.6542 83.1941L80.6736 66.5108L93.9561 60.7711C95.071 60.2894 95.828 59.2307 95.9234 58.0199C96.0188 56.8092 95.4369 55.645 94.4113 54.9946L83.3164 47.9588L89.9039 32.269C90.345 31.2186 90.2089 30.0144 89.5445 29.0889C88.8801 28.1634 87.7828 27.6493 86.6465 27.7312L70.8087 28.8722L67.3956 14.4442Z" fill="currentColor"/>
</svg>