<svg xmlns="http://www.w3.org/2000/svg" width="40" height="40" viewBox="0 0 40 40" fill="none">
  <g clip-path="url(#clip0_1_25867)">
    <path d="M0 16.1784C0 25.0988 7.32856 32.3568 16.3357 32.3568C19.8976 32.3568 23.1525 31.2215 25.8343 29.3157L35.9059 39.3108C36.3767 39.777 36.9909 40 37.646 40C39.038 40 40 38.966 40 37.6077C40 36.959 39.7544 36.3709 39.3245 35.9452L29.3142 25.9706C31.4228 23.2539 32.6715 19.8683 32.6715 16.1784C32.6715 7.25798 25.3429 0 16.3357 0C7.32856 0 0 7.25798 0 16.1784ZM3.50052 16.1784C3.50052 9.16372 9.25284 3.46681 16.3357 3.46681C23.4186 3.46681 29.1709 9.16372 29.1709 16.1784C29.1709 23.193 23.4186 28.89 16.3357 28.89C9.25284 28.89 3.50052 23.193 3.50052 16.1784Z" fill="#161F6A" fill-opacity="0.35"/>
  </g>
  <defs>
    <clipPath id="clip0_1_25867">
      <rect width="40" height="40" fill="white"/>
    </clipPath>
  </defs>
</svg>