<svg width="10" height="11" viewBox="0 0 10 11" fill="none" xmlns="http://www.w3.org/2000/svg">
<g id="&#208;&#152;&#208;&#186;&#208;&#190;&#208;&#189;&#208;&#186;&#208;&#176; Adobe">
<path id="Vector" d="M0 4.36904C0 3.10226 0 2.46887 0.246532 1.98502C0.463389 1.55942 0.809418 1.21339 1.23502 0.996532C1.71887 0.75 2.35226 0.75 3.61904 0.75H6.38096C7.64775 0.75 8.28114 0.75 8.76497 0.996532C9.19057 1.21339 9.53661 1.55942 9.75346 1.98502C10 2.46887 10 3.10226 10 4.36904V7.13096C10 8.39775 10 9.03114 9.75346 9.51497C9.53661 9.94057 9.19057 10.2866 8.76497 10.5035C8.28114 10.75 7.64775 10.75 6.38096 10.75H3.61904C2.35226 10.75 1.71887 10.75 1.23502 10.5035C0.809418 10.2866 0.463389 9.94057 0.246532 9.51497C0 9.03114 0 8.39775 0 7.13096V4.36904Z" fill="white"/>
<path id="Vector_2" d="M0 4.36904C0 3.10226 0 2.46887 0.246532 1.98502C0.463389 1.55942 0.809418 1.21339 1.23502 0.996532C1.71887 0.75 2.35226 0.75 3.61904 0.75H6.38096C7.64775 0.75 8.28114 0.75 8.76497 0.996532C9.19057 1.21339 9.53661 1.55942 9.75346 1.98502C10 2.46887 10 3.10226 10 4.36904V7.13096C10 8.39775 10 9.03114 9.75346 9.51497C9.53661 9.94057 9.19057 10.2866 8.76497 10.5035C8.28114 10.75 7.64775 10.75 6.38096 10.75H3.61904C2.35226 10.75 1.71887 10.75 1.23502 10.5035C0.809418 10.2866 0.463389 9.94057 0.246532 9.51497C0 9.03114 0 8.39775 0 7.13096V4.36904Z" fill="url(#paint0_radial_850_1372)"/>
<path id="Vector_3" d="M0 4.36904C0 3.10226 0 2.46887 0.246532 1.98502C0.463389 1.55942 0.809418 1.21339 1.23502 0.996532C1.71887 0.75 2.35226 0.75 3.61904 0.75H6.38096C7.64775 0.75 8.28114 0.75 8.76497 0.996532C9.19057 1.21339 9.53661 1.55942 9.75346 1.98502C10 2.46887 10 3.10226 10 4.36904V7.13096C10 8.39775 10 9.03114 9.75346 9.51497C9.53661 9.94057 9.19057 10.2866 8.76497 10.5035C8.28114 10.75 7.64775 10.75 6.38096 10.75H3.61904C2.35226 10.75 1.71887 10.75 1.23502 10.5035C0.809418 10.2866 0.463389 9.94057 0.246532 9.51497C0 9.03114 0 8.39775 0 7.13096V4.36904Z" fill="url(#paint1_radial_850_1372)"/>
<path id="Vector_4" d="M0 4.36904C0 3.10226 0 2.46887 0.246532 1.98502C0.463389 1.55942 0.809418 1.21339 1.23502 0.996532C1.71887 0.75 2.35226 0.75 3.61904 0.75H6.38096C7.64775 0.75 8.28114 0.75 8.76497 0.996532C9.19057 1.21339 9.53661 1.55942 9.75346 1.98502C10 2.46887 10 3.10226 10 4.36904V7.13096C10 8.39775 10 9.03114 9.75346 9.51497C9.53661 9.94057 9.19057 10.2866 8.76497 10.5035C8.28114 10.75 7.64775 10.75 6.38096 10.75H3.61904C2.35226 10.75 1.71887 10.75 1.23502 10.5035C0.809418 10.2866 0.463389 9.94057 0.246532 9.51497C0 9.03114 0 8.39775 0 7.13096V4.36904Z" fill="url(#paint2_radial_850_1372)"/>
<path id="Vector_5" d="M0 4.36904C0 3.10226 0 2.46887 0.246532 1.98502C0.463389 1.55942 0.809418 1.21339 1.23502 0.996532C1.71887 0.75 2.35226 0.75 3.61904 0.75H6.38096C7.64775 0.75 8.28114 0.75 8.76497 0.996532C9.19057 1.21339 9.53661 1.55942 9.75346 1.98502C10 2.46887 10 3.10226 10 4.36904V7.13096C10 8.39775 10 9.03114 9.75346 9.51497C9.53661 9.94057 9.19057 10.2866 8.76497 10.5035C8.28114 10.75 7.64775 10.75 6.38096 10.75H3.61904C2.35226 10.75 1.71887 10.75 1.23502 10.5035C0.809418 10.2866 0.463389 9.94057 0.246532 9.51497C0 9.03114 0 8.39775 0 7.13096V4.36904Z" fill="url(#paint3_radial_850_1372)"/>
<path id="Vector_6" d="M0 4.36904C0 3.10226 0 2.46887 0.246532 1.98502C0.463389 1.55942 0.809418 1.21339 1.23502 0.996532C1.71887 0.75 2.35226 0.75 3.61904 0.75H6.38096C7.64775 0.75 8.28114 0.75 8.76497 0.996532C9.19057 1.21339 9.53661 1.55942 9.75346 1.98502C10 2.46887 10 3.10226 10 4.36904V7.13096C10 8.39775 10 9.03114 9.75346 9.51497C9.53661 9.94057 9.19057 10.2866 8.76497 10.5035C8.28114 10.75 7.64775 10.75 6.38096 10.75H3.61904C2.35226 10.75 1.71887 10.75 1.23502 10.5035C0.809418 10.2866 0.463389 9.94057 0.246532 9.51497C0 9.03114 0 8.39775 0 7.13096V4.36904Z" fill="url(#paint4_radial_850_1372)"/>
<path id="Vector_7" d="M0 4.36904C0 3.10226 0 2.46887 0.246532 1.98502C0.463389 1.55942 0.809418 1.21339 1.23502 0.996532C1.71887 0.75 2.35226 0.75 3.61904 0.75H6.38096C7.64775 0.75 8.28114 0.75 8.76497 0.996532C9.19057 1.21339 9.53661 1.55942 9.75346 1.98502C10 2.46887 10 3.10226 10 4.36904V7.13096C10 8.39775 10 9.03114 9.75346 9.51497C9.53661 9.94057 9.19057 10.2866 8.76497 10.5035C8.28114 10.75 7.64775 10.75 6.38096 10.75H3.61904C2.35226 10.75 1.71887 10.75 1.23502 10.5035C0.809418 10.2866 0.463389 9.94057 0.246532 9.51497C0 9.03114 0 8.39775 0 7.13096V4.36904Z" fill="url(#paint5_radial_850_1372)"/>
<path id="Vector_8" d="M0 4.36904C0 3.10226 0 2.46887 0.246532 1.98502C0.463389 1.55942 0.809418 1.21339 1.23502 0.996532C1.71887 0.75 2.35226 0.75 3.61904 0.75H6.38096C7.64775 0.75 8.28114 0.75 8.76497 0.996532C9.19057 1.21339 9.53661 1.55942 9.75346 1.98502C10 2.46887 10 3.10226 10 4.36904V7.13096C10 8.39775 10 9.03114 9.75346 9.51497C9.53661 9.94057 9.19057 10.2866 8.76497 10.5035C8.28114 10.75 7.64775 10.75 6.38096 10.75H3.61904C2.35226 10.75 1.71887 10.75 1.23502 10.5035C0.809418 10.2866 0.463389 9.94057 0.246532 9.51497C0 9.03114 0 8.39775 0 7.13096V4.36904Z" fill="url(#paint6_radial_850_1372)"/>
<path id="Vector_9" d="M8.02512 3.76282C7.49594 3.17737 6.75012 2.84831 5.97512 2.85258C5.21676 2.85258 4.44594 3.18592 3.95012 3.72436C3.85844 3.71582 3.76676 3.70729 3.67926 3.70729C2.19177 3.70729 1.27094 4.98932 1.27094 6.17736C1.2751 6.81839 1.51677 7.43379 1.94594 7.90386C2.39594 8.39532 3.02094 8.67311 3.67926 8.67311H5.97512C7.53344 8.67311 8.80012 7.36114 8.80012 5.75429C8.79176 5.01497 8.51676 4.30557 8.02512 3.76282ZM3.63344 8.25429C2.52927 8.25429 1.6376 7.3355 1.6376 6.203C1.6376 5.07907 2.5251 4.16454 3.62512 4.156C4.11262 4.156 4.62512 4.31839 4.95012 4.67311L5.78762 5.55343C5.92512 5.69875 5.92094 5.9295 5.77926 6.07054C5.63762 6.21157 5.41262 6.20729 5.27512 6.06197L4.45844 5.19875C3.92512 4.72864 3.12094 4.78847 2.6626 5.3355C2.4626 5.57054 2.35427 5.87397 2.35427 6.18593C2.35427 6.90386 2.95012 7.51072 3.65426 7.51072H3.81676C4.05012 7.84404 4.70426 8.25429 4.70426 8.25429H3.63344ZM7.72512 7.51925C7.27926 7.99789 6.66262 8.26711 6.01676 8.27139C5.40426 8.27139 4.77926 7.98932 4.30012 7.50214L3.20844 6.37397C3.07094 6.22864 3.07512 5.99789 3.21262 5.85686C3.27926 5.78847 3.36676 5.75429 3.46262 5.75429C3.55844 5.75429 3.65012 5.79275 3.71676 5.86539L4.80426 6.98079C5.15012 7.3355 5.59176 7.53636 6.01676 7.53636C6.47094 7.53636 6.90426 7.34404 7.21676 7.00214C7.53762 6.66454 7.71676 6.21157 7.71676 5.74147C7.71676 4.77564 6.95012 3.99361 6.00844 3.98932C5.65012 3.98932 5.35426 4.06197 5.06262 4.27139C4.89747 4.10204 4.54176 3.93379 4.37926 3.89957C4.82926 3.46797 5.39176 3.25857 6.00844 3.25857C7.34594 3.25857 8.42512 4.36968 8.42926 5.74147C8.42926 6.40386 8.17926 7.04489 7.72512 7.51925Z" fill="white"/>
</g>
<defs>
<radialGradient id="paint0_radial_850_1372" cx="0" cy="0" r="1" gradientUnits="userSpaceOnUse" gradientTransform="translate(8.3125 9.297) rotate(46.87) scale(5.97279 6.11779)">
<stop stop-color="#68E048"/>
<stop offset="1" stop-color="#5CE049" stop-opacity="0"/>
</radialGradient>
<radialGradient id="paint1_radial_850_1372" cx="0" cy="0" r="1" gradientUnits="userSpaceOnUse" gradientTransform="translate(1.58333 9.25429) rotate(137.364) scale(6.0885 6.25964)">
<stop stop-color="#308CFE"/>
<stop offset="1" stop-color="#2F8BFF" stop-opacity="0"/>
</radialGradient>
<radialGradient id="paint2_radial_850_1372" cx="0" cy="0" r="1" gradientUnits="userSpaceOnUse" gradientTransform="translate(8.125 6.34829) rotate(7.9001) scale(3.57561 3.75782)">
<stop stop-color="#FDD511"/>
<stop offset="1" stop-color="#FDD20D" stop-opacity="0"/>
</radialGradient>
<radialGradient id="paint3_radial_850_1372" cx="0" cy="0" r="1" gradientUnits="userSpaceOnUse" gradientTransform="translate(1.70833 4.36111) rotate(-127.134) scale(5.28007 5.38004)">
<stop stop-color="#F928C2"/>
<stop offset="1" stop-color="#F922BC" stop-opacity="0"/>
</radialGradient>
<radialGradient id="paint4_radial_850_1372" cx="0" cy="0" r="1" gradientUnits="userSpaceOnUse" gradientTransform="translate(5.66668 2.41667) rotate(-63.404) scale(5.30493 5.36014)">
<stop stop-color="#F90700"/>
<stop offset="1" stop-color="#F90700" stop-opacity="0"/>
</radialGradient>
<radialGradient id="paint5_radial_850_1372" cx="0" cy="0" r="1" gradientUnits="userSpaceOnUse" gradientTransform="translate(9.45832 2.20299) rotate(-65.6935) scale(3.18864 3.2167)">
<stop stop-color="#FB4200"/>
<stop offset="1" stop-color="#FB4300" stop-opacity="0"/>
</radialGradient>
<radialGradient id="paint6_radial_850_1372" cx="0" cy="0" r="1" gradientUnits="userSpaceOnUse" gradientTransform="translate(1.04167 1.96795) rotate(-133.672) scale(2.83599 2.90623)">
<stop stop-color="#FE0D88"/>
<stop offset="1" stop-color="#FE0D88" stop-opacity="0"/>
</radialGradient>
</defs>
</svg>
